<?xml version="1.0" encoding="utf-8"?>
<!-- Generator: Adobe Illustrator 19.0.0, SVG Export Plug-In . SVG Version: 6.00 Build 0)  -->
<svg version="1.1" id="Calque_1" xmlns="http://www.w3.org/2000/svg" xmlns:xlink="http://www.w3.org/1999/xlink" x="0px" y="0px"
	 viewBox="0 0 450 450" style="enable-background:new 0 0 450 450;" xml:space="preserve">
<style type="text/css">
	.st0{fill:#FFFFFF;stroke:#C0D7F1;stroke-width:2;stroke-miterlimit:10;}
	.st1{fill:#FFFFFF;stroke:#0D82C5;stroke-width:2;stroke-miterlimit:10;}
</style>
<path id="XMLID_1_" class="st0" d="M400.1,350.8H89.4c-1.8,0-3.2-1.4-3.2-3.2V134.2c0-1.8,1.4-3.2,3.2-3.2h310.6
	c1.8,0,3.2,1.4,3.2,3.2v213.4C403.3,349.4,401.8,350.8,400.1,350.8z"/>
<line id="XMLID_3_" class="st0" x1="86.2" y1="152.4" x2="403.3" y2="152.4"/>
<circle id="XMLID_2_" class="st0" cx="104.4" cy="141.9" r="3.1"/>
<circle id="XMLID_5_" class="st0" cx="115.9" cy="141.9" r="3.1"/>
<circle id="XMLID_6_" class="st0" cx="127.4" cy="141.9" r="3.1"/>
<line id="XMLID_7_" class="st0" x1="157.8" y1="152.4" x2="157.8" y2="350.8"/>
<line id="XMLID_8_" class="st0" x1="306.1" y1="152.4" x2="306.1" y2="350.8"/>
<circle id="XMLID_13_" class="st0" cx="357.3" cy="209.2" r="18.1"/>
<line id="XMLID_15_" class="st0" x1="336.7" y1="240.9" x2="381" y2="240.9"/>
<line id="XMLID_16_" class="st0" x1="347.4" y1="251.6" x2="370.3" y2="251.6"/>
<g id="XMLID_17_">
	<circle id="XMLID_14_" class="st0" cx="184.5" cy="186" r="9.4"/>
	<line id="XMLID_18_" class="st0" x1="203.6" y1="182.7" x2="275" y2="182.7"/>
	<line id="XMLID_19_" class="st0" x1="203.6" y1="191.1" x2="253.1" y2="191.1"/>
</g>
<g id="XMLID_21_">
	<circle id="XMLID_24_" class="st0" cx="265.6" cy="220.7" r="9.4"/>
	<line id="XMLID_23_" class="st0" x1="246.4" y1="224" x2="175.1" y2="224"/>
	<line id="XMLID_22_" class="st0" x1="246.4" y1="215.6" x2="197" y2="215.6"/>
</g>
<g id="XMLID_29_">
	<circle id="XMLID_32_" class="st0" cx="184.5" cy="254.8" r="9.4"/>
	<line id="XMLID_31_" class="st0" x1="203.6" y1="251.5" x2="275" y2="251.5"/>
	<line id="XMLID_30_" class="st0" x1="203.6" y1="259.9" x2="253.1" y2="259.9"/>
</g>
<g id="XMLID_25_">
	<circle id="XMLID_28_" class="st0" cx="265.6" cy="289.5" r="9.4"/>
	<line id="XMLID_27_" class="st0" x1="246.4" y1="292.8" x2="175.1" y2="292.8"/>
	<line id="XMLID_26_" class="st0" x1="246.4" y1="284.4" x2="197" y2="284.4"/>
</g>
<g id="XMLID_45_">
	<path id="XMLID_33_" class="st1" d="M174.6,382H59.9c-2.3,0-4.2-1.9-4.2-4.2V260.4c0-2.3,1.9-4.2,4.2-4.2h114.7
		c2.3,0,4.2,1.9,4.2,4.2v117.3C178.8,380.1,176.9,382,174.6,382z"/>
	<circle id="XMLID_34_" class="st1" cx="116.3" cy="283.6" r="13.9"/>
	<line id="XMLID_36_" class="st1" x1="82.8" y1="314.5" x2="152.1" y2="314.5"/>
	<line id="XMLID_37_" class="st1" x1="97.8" y1="324.6" x2="138.2" y2="324.6"/>
	<path id="XMLID_35_" class="st1" d="M127.6,367.9H105c-4,0-7.3-3.3-7.3-7.3v0c0-4,3.3-7.3,7.3-7.3h22.6c4,0,7.3,3.3,7.3,7.3v0
		C134.9,364.6,131.6,367.9,127.6,367.9z"/>
</g>
<g id="XMLID_39_">
	<path id="XMLID_43_" class="st1" d="M336.4,184.5H221.7c-2.3,0-4.2-1.9-4.2-4.2V62.9c0-2.3,1.9-4.2,4.2-4.2h114.7
		c2.3,0,4.2,1.9,4.2,4.2v117.3C340.6,182.6,338.7,184.5,336.4,184.5z"/>
	<line id="XMLID_41_" class="st1" x1="244.6" y1="127.1" x2="313.9" y2="127.1"/>
	<line id="XMLID_40_" class="st1" x1="244.8" y1="137.1" x2="299.9" y2="137.1"/>
	<line id="XMLID_44_" class="st1" x1="244.6" y1="147.4" x2="313.9" y2="147.4"/>
	<line id="XMLID_42_" class="st1" x1="244.6" y1="157.5" x2="285" y2="157.5"/>
	<path id="XMLID_38_" class="st1" d="M266,101h34.6c0.3,0,0.5-0.2,0.5-0.5V74.9c0-0.3-0.2-0.5-0.5-0.5h-41.6c-0.3,0-0.5,0.2-0.5,0.5
		V101v6.3c0,0.5,0.6,0.7,0.9,0.4l6.2-6.5C265.7,101.1,265.8,101,266,101z"/>
</g>
</svg>
