<?xml version="1.0" encoding="utf-8"?>
<!-- Generator: Adobe Illustrator 19.0.0, SVG Export Plug-In . SVG Version: 6.00 Build 0)  -->
<svg version="1.1" id="Calque_1" xmlns="http://www.w3.org/2000/svg" xmlns:xlink="http://www.w3.org/1999/xlink" x="0px" y="0px"
	 viewBox="-80 172 450 450" style="enable-background:new -80 172 450 450;" xml:space="preserve">
<style type="text/css">
	.st0{fill:none;stroke:#3C4349;stroke-width:2;stroke-miterlimit:10;}
	.st1{fill:#0D82C5;stroke:#5D5C74;stroke-miterlimit:10;}
	.st2{fill:#7E50FF;stroke:#5D5C74;stroke-width:2;stroke-miterlimit:10;}
	.st3{fill:#344258;stroke:#5D5C74;stroke-miterlimit:10;}
	.st4{fill:#FBD7CE;}
	.st5{fill:#5C5C74;}
	.st6{fill:#E4E6E9;}
	.st7{fill:#CDCFD2;}
	.st8{fill:#3C4349;}
	.st9{fill:#FFFFFF;}
	.st10{fill:#FBD7CE;stroke:#5D5C74;stroke-miterlimit:10;}
	.st11{fill:#FBD7CE;stroke:#5E5C74;stroke-miterlimit:10;}
	.st12{fill:#FACAB8;}
	.st13{fill:#1D99CE;}
	.st14{fill:#7E50FF;stroke:#5C5C74;stroke-width:2;stroke-miterlimit:10;}
</style>
<line id="XMLID_2582_" class="st0" x1="-88.4" y1="486.4" x2="378.4" y2="486.4"/>
<path id="XMLID_2581_" class="st1" d="M330.7,385.5c8.6,26.7-4.1,47-37,47c-34.8,0-44.8-20.2-36.6-47c5.2-16.9,3.2-35.3,8.5-43.7
	c7.5-11.9,14.4-16.5,28.1-16.5c13,0,21.3,4.1,26.6,15.7C324.7,350.4,325.1,368.2,330.7,385.5z"/>
<path id="XMLID_4523_" class="st2" d="M293.4,325.3c-13.1,0-20.1,4.1-27.7,16.3c-2.8,4.4-3.5,11.6-4.4,20
	c-0.8,7.3-1.6,15.7-4.1,23.6c-4.3,14-3.4,25.7,2.6,33.8c6.2,8.4,17.5,12.7,33.6,12.7c15.7,0,27.4-4.6,33.8-13.4
	c6.1-8.3,7-19.7,2.8-33c-2.7-8.6-4.3-17.3-5.6-25c-1.4-7.9-2.6-14.8-4.7-19.5C314.7,329.9,306.9,325.3,293.4,325.3z"/>
<path id="XMLID_2569_" class="st3" d="M246.7,448.1c0-19.7,21.2-35.6,47.4-35.6c26.2,0,47.4,16,47.4,35.6"/>
<path id="XMLID_2564_" class="st4" d="M304.7,358.2c-10.2,0-19-4.1-23.1-10.2c-1.7,6.8-6.4,11.8-12.2,12.5c0,6.3,0,16.4,0,21.9
	c0,8.5,5.3,19,13.6,24.3v8.5c0,4.7,3,11.4,10.8,11.4c7.6,0,11-6.6,11-11.4v-7.9c8.8-5.1,13.6-16.1,13.6-24.9c0-8.5,0-27.7,0-27.7
	c0-0.1,0-0.1,0-0.2C316.9,357.5,313.3,358.2,304.7,358.2z"/>
<path id="XMLID_4517_" class="st5" d="M293.7,426.8c-8.3,0-11.3-7.1-11.3-11.8v-8.2c-7.9-5.2-13.6-15.5-13.6-24.6v-21.9
	c0-0.2,0.2-0.4,0.4-0.5c5.5-0.7,10.1-5.5,11.8-12.2c0-0.2,0.2-0.3,0.4-0.3c0.2,0,0.4,0,0.5,0.2c4.3,6.1,13,10,22.8,10
	c8.8,0,11.9-0.8,13.2-3.3c0.1-0.2,0.3-0.3,0.5-0.2c0.2,0,0.4,0.2,0.4,0.4v0.2v27.7c0,8.3-4.3,19.7-13.6,25.2v7.6
	C305.1,419.9,301.6,426.8,293.7,426.8z M269.7,360.7v21.5c0,8.9,5.6,18.9,13.4,23.9c0.1,0.1,0.2,0.2,0.2,0.4v8.5
	c0,4.4,2.8,10.9,10.3,10.9c7.2,0,10.5-6.4,10.5-10.9v-7.9c0-0.2,0.1-0.3,0.2-0.4c8.8-5.1,13.4-16.2,13.4-24.5v-26.4
	c-2.1,2.1-6.1,2.6-13.2,2.6c-9.6,0-18.3-3.6-23-9.6C279.7,355.3,275.2,359.8,269.7,360.7z"/>
<g id="XMLID_4515_">
	<path id="XMLID_2537_" class="st5" d="M298.8,391.2c0,0-2.1,2.4-4.7,2.4s-4.7-2.4-4.7-2.4s2.1,0.3,4.7,0.3
		C296.7,391.5,298.8,391.2,298.8,391.2z"/>
</g>
<g id="XMLID_4513_">
	<path id="XMLID_2536_" class="st5" d="M294.3,384.7L294.3,384.7c-0.8,0-1.5-0.3-1.9-0.8c-0.3-0.4-0.4-0.9-0.2-1.4l0.4,0.1
		c-0.1,0.4-0.1,0.7,0.1,1c0.3,0.4,0.8,0.6,1.4,0.6c0.7,0,1.4-0.2,1.7-0.7c0.2-0.3,0.2-0.6,0.1-1l0.4-0.2c0.3,0.7,0.1,1.2-0.1,1.5
		C296,384.3,295.2,384.7,294.3,384.7z"/>
</g>
<path id="XMLID_2535_" class="st6" d="M346.4,438v56.1c0,2.9-2.4,5.3-5.3,5.3H246c-2.9,0-5.3-2.4-5.3-5.3v-56.2
	c0-2.9,2.4-5.3,5.3-5.3h95.1C344.1,432.7,346.4,435.1,346.4,438"/>
<path id="XMLID_2533_" class="st7" d="M346.4,488v6.1c0,2.9-2.4,5.3-5.3,5.3H246c-2.9,0-5.3-2.4-5.3-5.3v-6.2L346.4,488z"/>
<path id="XMLID_2524_" class="st8" d="M240.8,467.2c-0.6,0-1.1-0.5-1.1-1.1V455c0-0.6,0.6-1.1,1.1-1.1c0.6,0,1.1,0.5,1.1,1.1v11
	C241.9,466.7,241.4,467.2,240.8,467.2"/>
<path id="XMLID_2521_" class="st8" d="M341.2,500.6H246c-3.5,0-6.4-2.9-6.4-6.4v-21.3c0-0.6,0.6-1.1,1.1-1.1c0.6,0,1.1,0.5,1.1,1.1
	v21.3c0,2.3,1.9,4.2,4.2,4.2h95.2c2.3,0,4.2-1.9,4.2-4.2V438c0-2.3-1.9-4.2-4.2-4.2H246c-2.3,0-4.2,1.9-4.2,4.2v11
	c0,0.6-0.5,1.1-1.1,1.1s-1.1-0.5-1.1-1.1v-11c0-3.5,2.9-6.4,6.4-6.4h95.1c3.5,0,6.4,2.9,6.4,6.4v56.1
	C347.6,497.6,344.7,500.6,341.2,500.6"/>
<path id="XMLID_4505_" class="st9" d="M339.2,455.9c-0.5,0-0.9-0.4-0.9-0.9v-10.1c0-2.4-2-4.4-4.4-4.4h-11.4c-0.5,0-0.9-0.4-0.9-0.9
	s0.4-0.9,0.9-0.9H334c3.4,0,6.1,2.8,6.1,6.1V455C340.2,455.4,339.7,455.9,339.2,455.9 M316.3,440.5h-7.9c-0.5,0-0.9-0.4-0.9-0.9
	s0.4-0.9,0.9-0.9h7.9c0.5,0,0.9,0.4,0.9,0.9C317.2,440,316.8,440.5,316.3,440.5 M296.6,470.5c4.2,5,1,7.2-3,7.2s-7.2-3.2-7.2-7.2
	s3.2-7.2,7.2-7.2S299.5,466.9,296.6,470.5"/>
<path id="XMLID_4502_" class="st8" d="M293.6,464.4c-3.4,0-6.1,2.7-6.1,6.1s2.7,6.1,6.1,6.1c1.9,0,3.4-0.6,3.7-1.4
	c0.4-0.9-0.1-2.3-1.6-4c-0.3-0.4-0.4-1,0-1.4c1.1-1.4,1.4-2.8,0.9-3.8C296.2,465,295,464.4,293.6,464.4 M293.6,478.8
	c-4.6,0-8.3-3.7-8.3-8.3s3.7-8.3,8.3-8.3c2.3,0,4.2,1.1,5,2.8c0.8,1.6,0.6,3.6-0.6,5.5c1.6,2.2,2.1,4.1,1.4,5.6
	C298.6,477.8,296.4,478.8,293.6,478.8"/>
<path id="XMLID_2379_" class="st8" d="M292.5,460.1c-0.6,0-1.1-0.5-1.1-1.1c0-0.1,0-0.2,0.1-0.3c0.1-0.1,1-3.5,3.8-4.3
	c0.6-0.2,1.2,0.2,1.4,0.8c0.1,0.6-0.2,1.2-0.7,1.3c-1.6,0.5-2.3,2.7-2.3,2.8C293.4,459.8,293,460.1,292.5,460.1"/>
<g id="XMLID_2779_">
	<path id="XMLID_2306_" class="st5" d="M276.7,370.3c-0.2,0-0.5-0.1-0.6-0.3c-0.4-0.4-0.4-0.9,0-1.3c1.2-1.3,2.8-1.9,4.4-1.8
		c1.3,0.1,2.4,0.8,3.1,1.8c0.3,0.4,0.1,1-0.3,1.3s-1,0.1-1.3-0.3c-0.4-0.6-1-0.9-1.7-1c-1-0.1-2.1,0.3-2.9,1.2
		C277.2,370.2,277,370.3,276.7,370.3z"/>
</g>
<g id="XMLID_2661_">
	<path id="XMLID_2305_" class="st5" d="M312.1,370.3c-0.2,0-0.5-0.1-0.7-0.3c-0.8-0.8-1.9-1.3-3.1-1.2c-0.9,0.1-1.7,0.4-2.2,1.1
		c-0.3,0.4-0.9,0.5-1.3,0.2s-0.5-0.9-0.2-1.3c0.8-1.1,2.1-1.7,3.6-1.8c1.7-0.1,3.4,0.6,4.5,1.8c0.4,0.4,0.3,1,0,1.3
		C312.5,370.2,312.3,370.3,312.1,370.3z"/>
</g>
<path id="XMLID_4444_" class="st3" d="M102.9,450.2c0-19.7,21.2-35.6,47.4-35.6s47.4,16,47.4,35.6"/>
<path id="XMLID_2928_" class="st6" d="M202.6,440.1v56.1c0,2.9-2.4,5.3-5.3,5.3h-95.1c-2.9,0-5.3-2.4-5.3-5.3V440
	c0-2.9,2.4-5.3,5.3-5.3h95.1C200.2,434.8,202.6,437.2,202.6,440.1"/>
<path id="XMLID_2892_" class="st8" d="M96.9,469.3c-0.6,0-1.1-0.5-1.1-1.1V457c0-0.6,0.6-1.1,1.1-1.1s1.1,0.5,1.1,1.1v11.1
	C98.1,468.8,97.6,469.3,96.9,469.3"/>
<path id="XMLID_2891_" class="st8" d="M197.3,502.7h-95.1c-3.5,0-6.4-2.9-6.4-6.4V475c0-0.6,0.6-1.1,1.1-1.1s1.1,0.5,1.1,1.1v21.3
	c0,2.3,1.9,4.2,4.2,4.2h95.2c2.3,0,4.2-1.9,4.2-4.2v-56.2c0-2.3-1.9-4.2-4.2-4.2h-95.1c-2.3,0-4.2,1.9-4.2,4.2v11.1
	c0,0.6-0.5,1.1-1.1,1.1s-1.1-0.5-1.1-1.1v-11.1c0-3.5,2.9-6.4,6.4-6.4h95.1c3.5,0,6.4,2.9,6.4,6.4v56.1
	C203.7,499.8,200.9,502.7,197.3,502.7"/>
<path id="XMLID_2772_" class="st9" d="M195.4,458c-0.5,0-0.9-0.4-0.9-0.9V447c0-2.4-2-4.4-4.4-4.4h-11.4c-0.5,0-0.9-0.4-0.9-0.9
	s0.4-0.9,0.9-0.9h11.4c3.4,0,6.1,2.8,6.1,6.1V457C196.3,457.5,195.9,458,195.4,458 M172.5,442.6h-7.9c-0.5,0-0.9-0.4-0.9-0.9
	s0.4-0.9,0.9-0.9h7.9c0.5,0,0.9,0.4,0.9,0.9C173.4,442.1,173,442.6,172.5,442.6 M152.8,472.6c4.2,5,1,7.2-3,7.2s-7.2-3.2-7.2-7.2
	s3.2-7.2,7.2-7.2S155.7,469,152.8,472.6"/>
<path id="XMLID_2372_" class="st8" d="M149.8,466.5c-3.4,0-6.1,2.7-6.1,6.1s2.7,6.1,6.1,6.1c1.9,0,3.4-0.6,3.7-1.4
	c0.4-0.9-0.1-2.3-1.6-4c-0.3-0.4-0.4-1,0-1.4c1.1-1.4,1.4-2.8,0.9-3.8C152.4,467.1,151.2,466.5,149.8,466.5 M149.8,480.9
	c-4.6,0-8.3-3.7-8.3-8.3c0-4.6,3.7-8.3,8.3-8.3c2.3,0,4.2,1.1,5,2.8c0.8,1.6,0.6,3.6-0.6,5.5c1.6,2.2,2.1,4.1,1.4,5.6
	C154.7,480,152.6,480.9,149.8,480.9"/>
<path id="XMLID_2371_" class="st8" d="M148.7,462.2c-0.6,0-1.1-0.5-1.1-1.1c0-0.1,0-0.2,0.1-0.3c0.1-0.1,1-3.5,3.8-4.3
	c0.6-0.2,1.2,0.2,1.4,0.8c0.1,0.6-0.2,1.2-0.7,1.3c-1.6,0.5-2.3,2.7-2.3,2.8C149.6,461.9,149.2,462.2,148.7,462.2"/>
<path id="XMLID_4490_" class="st10" d="M149.9,428c7.2,0,10.5-6.4,10.5-10.9v-7.9c0-0.2,0.1-0.3,0.2-0.4c0.6-0.3,1.2-0.7,1.7-1.1
	c-3.8,0.9-7.8,1.4-12,1.4c-4,0-7.9-0.5-11.5-1.3c0.2,0.1,0.4,0.3,0.6,0.4c0.1,0.1,0.2,0.2,0.2,0.4v8.5
	C139.5,421.5,142.3,428,149.9,428z"/>
<path id="XMLID_4447_" class="st3" d="M-46.6,448.1c0-19.7,21.2-35.6,47.4-35.6s47.4,16,47.4,35.6"/>
<path id="XMLID_4443_" class="st6" d="M53.1,438v56.1c0,2.9-2.4,5.3-5.3,5.3h-95.1c-2.9,0-5.3-2.4-5.3-5.3v-56.2
	c0-2.9,2.4-5.3,5.3-5.3h95.1C50.8,432.7,53.1,435.1,53.1,438"/>
<path id="XMLID_4441_" class="st8" d="M-52.5,467.2c-0.6,0-1.1-0.5-1.1-1.1V455c0-0.6,0.6-1.1,1.1-1.1c0.6,0,1.1,0.5,1.1,1.1v11
	C-51.4,466.7-51.9,467.2-52.5,467.2"/>
<path id="XMLID_3245_" class="st8" d="M47.8,500.6h-95.1c-3.5,0-6.4-2.9-6.4-6.4v-21.3c0-0.6,0.6-1.1,1.1-1.1c0.6,0,1.1,0.5,1.1,1.1
	v21.3c0,2.3,1.9,4.2,4.2,4.2h95.2c2.3,0,4.2-1.9,4.2-4.2V438c0-2.3-1.9-4.2-4.2-4.2h-95.2c-2.3,0-4.2,1.9-4.2,4.2v11
	c0,0.6-0.5,1.1-1.1,1.1c-0.6,0-1.1-0.5-1.1-1.1v-11c0-3.5,2.9-6.4,6.4-6.4h95.1c3.5,0,6.4,2.9,6.4,6.4v56.1
	C54.2,497.6,51.4,500.6,47.8,500.6"/>
<path id="XMLID_3078_" class="st9" d="M45.9,455.9c-0.5,0-0.9-0.4-0.9-0.9v-10.1c0-2.4-2-4.4-4.4-4.4H29.2c-0.5,0-0.9-0.4-0.9-0.9
	s0.4-0.9,0.9-0.9h11.4c3.4,0,6.1,2.8,6.1,6.1V455C46.8,455.4,46.4,455.9,45.9,455.9 M23,440.5h-7.9c-0.5,0-0.9-0.4-0.9-0.9
	s0.4-0.9,0.9-0.9H23c0.5,0,0.9,0.4,0.9,0.9C23.9,440,23.5,440.5,23,440.5 M3.3,470.5c4.2,5,1,7.2-3,7.2s-7.2-3.2-7.2-7.2
	s3.2-7.2,7.2-7.2S6.2,466.9,3.3,470.5"/>
<path id="XMLID_2361_" class="st8" d="M0.3,464.4c-3.4,0-6.1,2.7-6.1,6.1s2.7,6.1,6.1,6.1c1.9,0,3.4-0.6,3.7-1.4
	c0.4-0.9-0.1-2.3-1.6-4c-0.3-0.4-0.4-1,0-1.4c1.1-1.4,1.4-2.8,0.9-3.8C2.9,465,1.7,464.4,0.3,464.4 M0.3,478.8
	c-4.6,0-8.3-3.7-8.3-8.3s3.7-8.3,8.3-8.3c2.3,0,4.2,1.1,5,2.8c0.8,1.6,0.6,3.6-0.6,5.5c1.6,2.2,2.1,4.1,1.4,5.6
	C5.2,477.8,3.1,478.8,0.3,478.8"/>
<path id="XMLID_2360_" class="st8" d="M-0.8,460.1c-0.6,0-1.1-0.5-1.1-1.1c0-0.1,0-0.2,0.1-0.3c0.1-0.1,1-3.5,3.8-4.3
	c0.6-0.2,1.2,0.2,1.4,0.8c0.1,0.6-0.2,1.2-0.7,1.3c-1.6,0.5-2.3,2.7-2.3,2.8C0.1,459.8-0.3,460.1-0.8,460.1"/>
<path id="XMLID_2358_" class="st11" d="M0.4,425.9c7.2,0,10.5-6.4,10.5-10.9v-7.9c0-0.2,0.1-0.3,0.2-0.4c0.6-0.3,1.2-0.7,1.7-1.1
	C9,406.5,5,407,0.8,407c-4,0-7.9-0.5-11.5-1.3c0.2,0.1,0.4,0.3,0.6,0.4c0.1,0.1,0.2,0.2,0.2,0.4v8.5C-10,419.4-7.2,425.9,0.4,425.9z
	"/>
<g id="XMLID_4567_">
	<g id="XMLID_4572_">
		<path id="XMLID_4518_" class="st12" d="M182.2,372.5c0,3.3-2.2,6-4.8,6s-4.8-2.7-4.8-6s2.2-4.9,4.8-4.9S182.2,369.2,182.2,372.5z"
			/>
	</g>
	<g id="XMLID_4568_">
		<path id="XMLID_4569_" class="st5" d="M177.4,379.3c-3.1,0-5.6-3-5.6-6.8c0-3.5,2.2-5.7,5.6-5.7c3.4,0,5.6,2.2,5.6,5.7
			C183,376.2,180.5,379.3,177.4,379.3z M177.4,368.3c-2.6,0-4.1,1.6-4.1,4.2c0,2.9,1.8,5.2,4.1,5.2c2.3,0,4.1-2.4,4.1-5.2
			C181.4,369.9,179.9,368.3,177.4,368.3z"/>
	</g>
</g>
<g id="XMLID_4560_">
	<g id="XMLID_4565_">
		<path id="XMLID_4512_" class="st12" d="M127.8,372.5c0,3.3-2.2,6-4.8,6s-4.8-2.7-4.8-6s2.2-4.9,4.8-4.9S127.8,369.2,127.8,372.5z"
			/>
	</g>
	<g id="XMLID_4561_">
		<path id="XMLID_4562_" class="st5" d="M122.9,379.3c-3.1,0-5.6-3-5.6-6.8c0-3.5,2.2-5.7,5.6-5.7c3.4,0,5.6,2.2,5.6,5.7
			C128.5,376.2,126,379.3,122.9,379.3z M122.9,368.3c-2.6,0-4.1,1.6-4.1,4.2c0,2.9,1.8,5.2,4.1,5.2c2.2,0,4.1-2.4,4.1-5.2
			C127,369.9,125.5,368.3,122.9,368.3z"/>
	</g>
</g>
<g id="XMLID_4558_">
	<path id="XMLID_4509_" class="st4" d="M177.6,362.8c0,32.5-11.3,46.4-27.4,46.4s-27.9-13-27.9-46.4c0-20.1,11.7-24.3,27.9-24.3
		S177.6,342.8,177.6,362.8z"/>
</g>
<g id="XMLID_4554_">
	<path id="XMLID_4555_" class="st5" d="M150.1,410c-8.8,0-15.8-3.7-20.6-11c-5.3-8-8-20.1-8-36.2c0-22.1,14.5-25.1,28.6-25.1
		c14.6,0,28.2,3,28.2,25.1C178.3,393.2,168.3,410,150.1,410z M150.1,339.3c-9.1,0-15.3,1.4-19.5,4.5c-5.1,3.7-7.6,9.9-7.6,19
		c0,37.7,14.7,45.6,27.1,45.6c17.2,0,26.6-16.2,26.6-45.6C176.8,343.3,166.1,339.3,150.1,339.3z"/>
</g>
<g id="XMLID_4552_">
	<path id="XMLID_4506_" class="st13" d="M149.6,378.9c10.8,0,13.3,6.7,18.3,6.7s8.5-7.2,8.5-7.2s3.2,37-25.8,37
		s-26.9-36.6-26.9-36.6s1.4,6.7,7.6,6.7S137.9,378.9,149.6,378.9z"/>
</g>
<g id="XMLID_4548_">
	<path id="XMLID_4549_" class="st5" d="M150.5,416.3c-7.7,0-13.9-2.5-18.5-7.4c-5.3-5.6-7.5-13.5-8.4-19.1c-1-6-0.7-10.7-0.7-10.9
		c0-0.4,0.3-0.7,0.7-0.7s0.7,0.2,0.8,0.6c0.1,0.2,1.3,6.1,6.8,6.1c2.4,0,3.8-1.1,5.6-2.4c2.6-1.9,5.8-4.3,12.7-4.3
		c6.7,0,10.3,2.5,13.2,4.4c1.9,1.3,3.3,2.3,5.1,2.3c4.5,0,7.8-6.7,7.8-6.8c0.2-0.3,0.5-0.5,0.8-0.4c0.3,0.1,0.6,0.3,0.6,0.7
		c0,0.2,0.4,4.9-0.4,11.1c-0.8,5.7-2.8,13.7-8,19.4C164.3,413.8,158.1,416.3,150.5,416.3z M124.4,382.7c0.2,5.9,1.7,17.7,8.7,25.1
		c4.3,4.6,10.2,6.9,17.4,6.9c7.1,0,12.9-2.3,17.1-6.9c7.4-8.1,8.2-21.2,8.1-26.7c-1.5,2.3-4.3,5.3-7.8,5.3c-2.3,0-4-1.2-6-2.6
		c-2.7-1.9-6.1-4.2-12.3-4.2c-6.5,0-9.3,2.1-11.8,4c-1.9,1.4-3.7,2.7-6.5,2.7C127.7,386.4,125.6,384.5,124.4,382.7z"/>
</g>
<g id="XMLID_4541_">
	<g id="XMLID_4546_">
		<path id="XMLID_4501_" class="st12" d="M159.7,391.3c-1.1,3.6-5.2,3.5-9.5,3.5s-9.5,0.5-10.5-3.2c-1.2-4.1,6.1-4.5,10.5-4.5
			S160.9,387.4,159.7,391.3z"/>
	</g>
	<g id="XMLID_4542_">
		<path id="XMLID_4543_" class="st5" d="M147.5,395.6c-3.6,0-7.6-0.3-8.6-3.8c-0.3-1.1-0.1-2.1,0.5-2.9c1.3-1.8,4.8-2.6,10.8-2.6
			c4.1,0,8.4,0.3,9.9,2.4c0.4,0.5,0.8,1.5,0.4,2.8c-1.3,4.1-5.7,4.1-10,4.1h-0.3c-0.4,0-0.9,0-1.3,0
			C148.4,395.6,147.9,395.6,147.5,395.6z M150.1,387.9c-6.7,0-8.9,1.1-9.6,2c-0.3,0.4-0.4,0.9-0.2,1.5c0.6,2.2,3.2,2.7,7.1,2.7
			c0.4,0,0.9,0,1.3,0c0.4,0,0.9,0,1.3,0h0.3c4.7,0,7.6-0.2,8.5-3c0.3-0.8,0-1.2-0.1-1.4C157.6,387.9,152,387.9,150.1,387.9z"/>
	</g>
</g>
<g id="XMLID_4539_">
	<path id="XMLID_4498_" class="st5" d="M132.9,370.3c-0.2,0-0.4-0.1-0.6-0.3c-0.3-0.3-0.3-0.8,0.1-1.1c1.1-1,2.7-1.5,4.2-1.4
		c1.2,0.1,2.2,0.6,2.8,1.5c0.3,0.3,0.2,0.8-0.2,1.1c-0.3,0.3-0.8,0.2-1.1-0.2c-0.4-0.5-1-0.8-1.7-0.8c-1.1-0.1-2.2,0.3-3,1
		C133.3,370.2,133.1,370.3,132.9,370.3z"/>
</g>
<g id="XMLID_4537_">
	<path id="XMLID_4497_" class="st5" d="M166.9,370.3c-0.2,0-0.4-0.1-0.5-0.2c-0.8-0.7-2-1.1-3.2-1c-0.9,0.1-1.7,0.4-2.2,0.9
		c-0.3,0.3-0.8,0.3-1.1,0.1c-0.3-0.3-0.3-0.8-0.1-1.1c0.8-0.9,1.9-1.4,3.3-1.4c1.6-0.1,3.1,0.4,4.3,1.4c0.3,0.3,0.3,0.8,0.1,1.1
		C167.3,370.2,167.1,370.3,166.9,370.3z"/>
</g>
<g id="XMLID_4535_">
	<path id="XMLID_4496_" class="st13" d="M142.8,323.1c10.2-2.8,21,4.2,25.9,10.6c4.1,5.3,9,3.8,12.8,9.6s1.3,16.6-1.5,21.2
		c-2.7,4.6-2.7,4.6-2.7,4.6s-3.6-14.2-9.1-16.6c-5.5-2.4-5.3,3.4-17.5,2.4s-16.3-8.2-19.3-7.2c-2.9,1-2.5,6.3-5.1,11.5
		c-2.5,5.3-4,9.9-4,9.9s-8.1-15.5-4.8-24.3c2.5-6.7,7.2-4.3,10.6-8.7C131.6,331.8,135.6,325.1,142.8,323.1z"/>
</g>
<g id="XMLID_4531_">
	<path id="XMLID_4532_" class="st5" d="M122.5,369.8c-0.3,0-0.5-0.2-0.7-0.4c-0.3-0.6-8.2-15.9-4.9-24.9c1.6-4.2,4-5.1,6.3-6
		c1.6-0.6,3.1-1.2,4.4-2.8c0.5-0.6,1-1.3,1.5-2c3.1-4.3,7.1-9.6,13.5-11.3c1.6-0.4,3.3-0.6,5-0.6c8.8,0,17.3,5.8,21.8,11.5
		c1.9,2.4,3.9,3.3,6,4.3c2.4,1.1,4.8,2.2,6.9,5.4c4.1,6.2,1.3,17.4-1.4,22l-2.7,4.6c-0.2,0.3-0.5,0.4-0.8,0.4s-0.6-0.3-0.6-0.6
		c-1-3.8-4.4-14.2-8.6-16.1c-0.8-0.4-1.5-0.5-2.1-0.5c-1,0-1.8,0.4-3,0.9c-1.9,0.9-4.5,2.2-9.5,2.2c-0.9,0-1.8,0-2.7-0.1
		c-7.6-0.6-12.2-3.6-15.2-5.6c-1.7-1.1-2.9-1.9-3.7-1.7c-1.4,0.4-1.9,2.3-2.5,5c-0.5,1.9-1,4-2.1,6.2c-2.5,5.2-4,9.7-4,9.8
		C123.1,369.6,122.8,369.8,122.5,369.8L122.5,369.8z M165.9,351.1c0.9,0,1.8,0.2,2.8,0.7c4.6,2,7.8,11.4,9,15.4l1.8-3
		c2.5-4.1,5.1-14.7,1.5-20.3c-1.9-2.8-4-3.8-6.2-4.8s-4.4-2-6.5-4.7c-4.1-5.3-12.3-10.9-20.6-10.9c-1.6,0-3.1,0.2-4.6,0.6
		c-5.9,1.6-9.6,6.6-12.6,10.7c-0.5,0.7-1,1.4-1.5,2c-1.5,2-3.4,2.7-5,3.3c-2.2,0.8-4.1,1.6-5.5,5.1c-2.5,6.8,2.1,17.9,4,22
		c0.7-1.8,1.9-4.9,3.4-8.2c1-2,1.5-4.1,2-5.9c0.7-2.9,1.4-5.3,3.5-6.1c0.3-0.1,0.5-0.1,0.8-0.1c1.3,0,2.5,0.8,4.2,2
		c2.9,1.9,7.3,4.8,14.5,5.3c0.9,0.1,1.8,0.1,2.6,0.1c4.6,0,6.9-1.1,8.8-2C163.4,351.6,164.5,351.1,165.9,351.1z"/>
</g>
<g id="XMLID_4529_">
	<path id="XMLID_4493_" class="st5" d="M149.8,380.9c-0.3,0-0.6,0-0.9-0.1c-2-0.3-2.8-1.8-2.9-1.9c-0.2-0.4-0.1-0.8,0.3-1
		c0.4-0.2,0.8-0.1,1,0.3c0,0,0.5,0.9,1.7,1.1s2.2-0.1,2.6-0.7c0.3-0.4,0.2-1-0.1-1.5c-1.1-1.7-2.9-7.5-2.4-9.4
		c0.1-0.4,0.5-0.7,0.9-0.5c0.4,0.1,0.7,0.5,0.5,0.9c-0.4,1.3,1.1,6.5,2.2,8.2c0.7,1,0.7,2.2,0.1,3.1
		C152.3,380.4,151.2,380.9,149.8,380.9z"/>
</g>
<g id="XMLID_4527_">
	<path id="XMLID_4492_" class="st5" d="M149.8,392.7c-2.2,0-4-0.8-4.9-2.1c-0.2-0.4-0.2-0.8,0.2-1.1c0.3-0.2,0.8-0.2,1.1,0.2
		c0.6,0.9,2,1.4,3.6,1.4l0,0c1.9,0,3.7-0.7,4.3-1.6c0.2-0.4,0.7-0.4,1.1-0.2c0.4,0.2,0.4,0.7,0.2,1.1
		C154.3,392,151.8,392.7,149.8,392.7L149.8,392.7z"/>
</g>
<g id="XMLID_4579_">
	<g id="XMLID_4584_">
		<path id="XMLID_4544_" class="st12" d="M-24.1,373.3c0,3.6-2.3,6.4-5.2,6.4s-5.2-2.9-5.2-6.4c0-3.6,2.3-5.3,5.2-5.3
			S-24.1,369.7-24.1,373.3z"/>
	</g>
	<g id="XMLID_4580_">
		<path id="XMLID_4581_" class="st5" d="M-29.3,380.5c-3.3,0-6-3.3-6-7.3c0-3.7,2.4-6.1,6-6.1s6,2.4,6,6.1
			C-23.3,377.3-26,380.5-29.3,380.5z M-29.3,368.8c-2.7,0-4.4,1.7-4.4,4.5c0,3.1,2,5.6,4.4,5.6s4.4-2.5,4.4-5.6
			C-25,370.5-26.6,368.8-29.3,368.8z"/>
	</g>
</g>
<g id="XMLID_4577_">
	<path id="XMLID_4536_" class="st4" d="M-10.2,409.4c-9.1-3.2-12.9-12.4-16.3-25.3c-2-7.5-2.8-12.6-2.8-21.9
		c0-22.5,11.6-30.7,30.1-30.7s30.9,4.7,30.9,27.2c0,33.7-11,53.4-30.9,53.4"/>
</g>
<g id="XMLID_4575_">
	<path id="XMLID_4534_" class="st5" d="M0.8,412.9c-0.5,0-0.8-0.4-0.8-0.8c0-0.5,0.4-0.8,0.8-0.8c19.1,0,30.1-19.2,30.1-52.6
		c0-21.9-12-26.4-30.1-26.4c-9.6,0-16.6,2.2-21.4,6.7c-5.2,4.9-7.9,12.7-7.9,23.2c0,9.5,0.9,14.5,2.8,21.7
		c4.6,17.6,9.5,22.5,15.8,24.7c0.4,0.2,0.7,0.6,0.5,1s-0.6,0.7-1,0.5c-9.2-3.2-13.3-12.3-16.8-25.8c-1.9-7.3-2.8-12.5-2.8-22.1
		c0-21.2,10.1-31.6,30.9-31.6c16.5,0,31.8,3.4,31.8,28C32.5,393.1,20.9,412.9,0.8,412.9z"/>
</g>
<g id="XMLID_4573_">
	<path id="XMLID_4533_" class="st5" d="M1.1,383.2c-0.3,0-0.7,0-1-0.1c-2.2-0.3-3.2-2.1-3.2-2.2c-0.2-0.4-0.1-0.9,0.3-1.1
		s0.9-0.1,1.1,0.3c0,0,0.6,1.1,2,1.3s2.5-0.1,3-0.8c0.3-0.5,0.3-1.2-0.1-1.9c-1.2-2-3.3-8.7-2.7-11c0.1-0.4,0.6-0.7,1-0.6
		c0.4,0.1,0.7,0.6,0.6,1c-0.4,1.6,1.3,7.8,2.5,9.8c0.7,1.2,0.8,2.6,0.1,3.6C4,382.6,2.7,383.2,1.1,383.2z"/>
</g>
<g id="XMLID_4570_">
	<path id="XMLID_4530_" class="st5" d="M-15.5,368.1c-0.2,0-0.4-0.1-0.6-0.2c-0.3-0.3-0.3-0.8,0-1.2c1.1-1.1,2.6-1.8,4-1.6
		c1.2,0.1,2.2,0.7,2.8,1.7c0.2,0.4,0.1,0.9-0.3,1.1c-0.4,0.2-0.9,0.1-1.1-0.3c-0.3-0.5-0.9-0.9-1.6-0.9c-0.9-0.1-2,0.3-2.7,1.1
		C-15.1,368-15.3,368.1-15.5,368.1z"/>
</g>
<g id="XMLID_4564_">
	<path id="XMLID_4528_" class="st5" d="M17,368.1c-0.2,0-0.4-0.1-0.6-0.3c-0.7-0.8-1.8-1.2-2.9-1.1c-0.9,0-1.6,0.4-2.1,1
		c-0.3,0.4-0.8,0.4-1.2,0.2c-0.4-0.3-0.4-0.8-0.2-1.2c0.7-1,1.9-1.6,3.3-1.7c1.5-0.1,3.1,0.5,4.1,1.6c0.3,0.3,0.3,0.8,0,1.2
		C17.5,368,17.3,368.1,17,368.1z"/>
</g>
<g id="XMLID_4559_">
	<path id="XMLID_4526_" class="st5" d="M0.4,393.6c-2.1,0-3.9-0.8-4.8-2.1c-0.3-0.4-0.2-0.9,0.2-1.1c0.4-0.3,0.9-0.2,1.1,0.2
		c0.6,0.9,2,1.4,3.7,1.3c1.8-0.1,3.5-0.8,4.1-1.8c0.2-0.4,0.7-0.5,1.1-0.3s0.5,0.7,0.3,1.1c-0.9,1.5-3,2.5-5.5,2.6
		C0.6,393.6,0.5,393.6,0.4,393.6z"/>
</g>
<g id="XMLID_4550_">
	<g id="XMLID_4556_">
		<path id="XMLID_4524_" class="st12" d="M28.9,381.5c4.4,0.3,7.4-3.9,7.6-7.7c0.2-3.7-3.5-5.2-6.5-4.9"/>
	</g>
	<g id="XMLID_4551_">
		<path id="XMLID_4520_" class="st5" d="M29.4,382.3c-0.2,0-0.4,0-0.5,0c-0.5,0-0.8-0.4-0.8-0.9s0.4-0.8,0.9-0.8
			c1.9,0.1,3.3-0.7,4.1-1.4c1.5-1.3,2.5-3.4,2.7-5.5c0.1-1.1-0.3-2.1-1-2.8c-1-1-2.8-1.5-4.5-1.2c-0.5,0.1-0.9-0.3-0.9-0.7
			c-0.1-0.5,0.3-0.9,0.7-0.9c2.2-0.3,4.5,0.4,5.9,1.7c1.1,1,1.6,2.4,1.6,4c-0.1,2.5-1.4,5-3.2,6.6C32.8,381.7,31.1,382.3,29.4,382.3
			z"/>
	</g>
</g>
<path id="XMLID_4519_" class="st14" d="M30.8,369c4.4-13.1,4.4-24.2,2.1-34.9c-1.2-5.6-3.7-10-3.7-10c-5.7,1.3-7.3-2.1-22.7-4.2
	c-11.1-1.5-16.2,2-18.1,4.1c0,0-3.6-1.8-10.9,1.4c-6.6,2.9-12.3,10.5-8.3,34.3c1.2,9.6,4.4,18.3,4.4,18.3s-1.5-18.9,1.5-26.4
	c0.1-0.4,0.3-0.7,0.5-1l1.5-2.2c4.1-4.7,11.7-5.4,14.6-2.6c3.4,3.3,9.2,2.9,9.2,2.9s5.8,0.4,9.2-2.9c3.4-3.3,13.6-1.7,16.5,5.8
	s1.5,26.4,1.5,26.4S29.5,374.3,30.8,369z"/>
</svg>
