<?xml version="1.0" encoding="utf-8"?>
<!-- Generator: Adobe Illustrator 19.0.0, SVG Export Plug-In . SVG Version: 6.00 Build 0)  -->
<svg version="1.1" id="Calque_1" xmlns="http://www.w3.org/2000/svg" xmlns:xlink="http://www.w3.org/1999/xlink" x="0px" y="0px"
	 viewBox="256 -224 480 480" style="enable-background:new 256 -224 480 480;" xml:space="preserve">
<style type="text/css">
	.st0{fill:#E44D26;}
	.st1{fill:#F16529;}
	.st2{fill:#EBEBEB;}
	.st3{fill:#FFFFFF;}
</style>
<g>
	<title>HTML5 Logo</title>
	<g>
		<path d="M406.4-139h13.9v13.8h12.8V-139h13.9v41.8h-13.9v-13.9h-12.7v13.9h-14 M465.5-125.1h-12.3V-139h38.6v13.9h-12.4v27.9
			h-13.9 M497.9-139h14.6l9,14.7l9-14.7H545v41.8h-13.9v-20.7l-9.7,15l-9.7-15v20.7h-13.7 M551.9-139h13.9v28h19.7v13.8h-33.7"/>
		<path class="st0" d="M405.9,146.2L386-78.1h219.7l-20,224.1l-90,24.9"/>
		<path class="st1" d="M495.8,151.9V-59.7h89.8l-17.1,191.3"/>
		<path class="st2" d="M426.8-32.3h69v27.5h-38.9l2.5,28.2h36.3v27.4h-61.5 M435.5,64.6h27.6l1.9,22l30.8,8.2v28.7l-56.4-15.7"/>
		<path class="st3" d="M564.6-32.3h-68.9v27.5H562 M559.5,23.4h-63.9v27.5h33.9l-3.2,35.7l-30.7,8.2v28.6l56.3-15.6"/>
	</g>
</g>
</svg>
