<?xml version="1.0" encoding="utf-8"?>
<!-- Generator: Adobe Illustrator 19.0.0, SVG Export Plug-In . SVG Version: 6.00 Build 0)  -->
<svg version="1.1" id="Calque_1" xmlns="http://www.w3.org/2000/svg" xmlns:xlink="http://www.w3.org/1999/xlink" x="0px" y="0px"
	 viewBox="-119 121 160 160" style="enable-background:new -119 121 160 160;" xml:space="preserve">
<style type="text/css">
	.st0{fill:#FFFFFF;}
	.st1{fill:#C6C6C6;fill-opacity:0.8;}
	.st2{fill:#00D1B2;}
	.st3{fill:#36A2EB;}
	.st4{fill:none;stroke:#E7E9ED;stroke-width:8;}
</style>
<path class="st0" d="M-39,127l64.1,37v74L-39,275l-64.1-37v-74L-39,127z"/>
<title>Artboard 6</title>
<path class="st1" d="M-103,213.1c7.2-20,10.3-36.1,24.1-36.1c21,0,26,59,44,53s16-38,44-38c5.3,0,10.8,3.3,16.1,8.5V238l-64.1,37
	l-64.1-37V213.1z"/>
<path class="st2" d="M-93.2,179.9L-93.2,179.9c-1.7,0-3.2,1.4-3.2,3.2V244h6.3v-60.9C-90,181.3-91.4,179.9-93.2,179.9z"/>
<path class="st3" d="M-84.2,202.8L-84.2,202.8c-1.7,0-3.2,1.4-3.2,3.2v43h6.3v-43C-81,204.2-82.4,202.8-84.2,202.8z"/>
<path class="st2" d="M-75.2,164.8L-75.2,164.8c-1.7,0-3.2,1.4-3.2,3.2V253h6.3v-85.1C-72,166.2-73.4,164.8-75.2,164.8z"/>
<path class="st3" d="M-66.2,175.8L-66.2,175.8c-1.7,0-3.2,1.4-3.2,3.2V259h6.3v-80.1C-63,177.2-64.4,175.8-66.2,175.8z"/>
<path class="st2" d="M-57.2,192.8L-57.2,192.8c-1.7,0-3.2,1.4-3.2,3.2v67.3h6.3v-67.3C-54,194.2-55.4,192.8-57.2,192.8z"/>
<path class="st3" d="M-48.2,160.8L-48.2,160.8c-1.7,0-3.2,1.4-3.2,3.2v105.8h6.3V163.9C-45,162.2-46.4,160.8-48.2,160.8z"/>
<path class="st2" d="M-39.2,215.2L-39.2,215.2c-1.7,0-3.2,1.4-3.2,3.2V272h6.3v-53.6C-36,216.6-37.4,215.2-39.2,215.2z"/>
<path class="st3" d="M-30.2,179.9L-30.2,179.9c-1.7,0-3.2,1.4-3.2,3.2v86.6h6.3v-86.6C-27,181.3-28.4,179.9-30.2,179.9z"/>
<path class="st2" d="M-21.2,201L-21.2,201c-1.7,0-3.2,1.4-3.2,3.2v59.1h6.3v-59.1C-18,202.4-19.4,201-21.2,201z"/>
<path class="st3" d="M-12.2,179.9L-12.2,179.9c-1.7,0-3.2,1.4-3.2,3.2v74.7H-9v-74.7C-9,181.3-10.4,179.9-12.2,179.9z"/>
<path class="st2" d="M-3.2,192.8L-3.2,192.8c-1.7,0-3.2,1.4-3.2,3.2v58.4H0l0-58.4C0,194.2-1.4,192.8-3.2,192.8z"/>
<path class="st3" d="M5.8,208.9L5.8,208.9c-1.7,0-3.2,1.4-3.2,3.2v36.9H9V212C9,210.3,7.6,208.9,5.8,208.9z"/>
<path class="st2" d="M14.8,179.9L14.8,179.9c-1.7,0-3.2,1.4-3.2,3.2V244H18v-60.9C18,181.3,16.6,179.9,14.8,179.9z"/>
<path class="st4" d="M-38.9,127l64.1,37v74l-64.1,37l-64.1-37v-74L-38.9,127z"/>
</svg>
