<?xml version="1.0" encoding="utf-8"?>
<!-- Generator: Adobe Illustrator 19.0.0, SVG Export Plug-In . SVG Version: 6.00 Build 0)  -->
<svg version="1.1" id="Calque_1" xmlns="http://www.w3.org/2000/svg" xmlns:xlink="http://www.w3.org/1999/xlink" x="0px" y="0px"
	 viewBox="267.8 -224.1 480 480" style="enable-background:new 267.8 -224.1 480 480;" xml:space="preserve">
<style type="text/css">
	.st0{fill:#131B28;}
	.st1{fill:#0868AC;}
</style>
<g>
	<path class="st0" d="M477.8,4.2L477.8,4.2l-2.2,7.7L477.8,4.2L477.8,4.2z"/>
	<path class="st0" d="M489,21l-2.4,0L489,21z"/>
	<path class="st0" d="M488.4,32.5L488.4,32.5l-14.4,0.1L488.4,32.5L488.4,32.5z"/>
	<path class="st0" d="M491.4,21l-2.4,0L491.4,21z"/>
	<path class="st0" d="M489.6,31.6l2.5-9.6L489.6,31.6L489.6,31.6L489.6,31.6z"/>
	<path class="st0" d="M542.7-12.6l-4.7,22C538.1,9.4,542.7-12.6,542.7-12.6z"/>
	<path class="st0" d="M530.7-12.6l-3.6,16.4L530.7-12.6L530.7-12.6z"/>
	<path class="st0" d="M541.9-13.6h-10c-0.6,0-1.1,0.4-1.2,1l-3.6,16.4l-3.6,16.4c-0.1,0.5-0.7,1-1.2,1h-6.1h-1
		c-7,0-6.2-4.8-4.8-11.5c0-0.1,0-0.1,0-0.2l0.2-0.8c0-0.1,0-0.1,0-0.2l0.3-1.7l0.3-1.8c0.1-0.6,0.3-1.4,0.4-1.9l1.6-7.9l1.6-7.9
		c0.1-0.5-0.3-1-0.8-1h-10.3c-0.6,0-1.1,0.4-1.2,1l-2.2,10.5l-2.2,10.5c0,0,0,0,0,0l-0.2,1c-2.5,11.6-1.9,22.7,12,23
		c0.2,0,0.4,0,0.4,0h21.7c0.6,0,1.1-0.4,1.2-1l4.7-22l4.7-22C542.9-13.1,542.5-13.6,541.9-13.6L541.9-13.6z"/>
	<path class="st0" d="M581.9,21.4c0.6,0,0.9,0.4,0.8,1l-1,4.8"/>
	<path class="st0" d="M580.7,31.9l1-4.8L580.7,31.9C580.7,31.9,580.7,31.9,580.7,31.9L580.7,31.9z"/>
	<path class="st0" d="M579.5,32.9C579.5,32.9,579.5,32.9,579.5,32.9c-2.9,0-11.8,0.1-18.4,0.1C569.2,33,579.5,32.9,579.5,32.9
		L579.5,32.9z"/>
	<path class="st0" d="M555.1,15.3c0-0.5,0.6-1.4,1.1-1.4l-1.3,0C554.4,19.5,555.1,15.3,555.1,15.3L555.1,15.3z"/>
	<path class="st0" d="M562,33c-0.1,0-0.1,0-0.2,0C561.9,33,561.9,33,562,33z"/>
	<path class="st0" d="M581.9,21.4c0.6,0,0.9,0.4,0.8,1l-1,4.8l-0.2,0.8"/>
	<path class="st0" d="M566.7,33L566.7,33L566.7,33z"/>
	<path class="st0" d="M564.3,33h-0.1H564.3z"/>
	<path class="st0" d="M563.5,33c-0.1,0-0.2,0-0.2,0C563.4,33,563.4,33,563.5,33z"/>
	<path class="st0" d="M562.8,33h-0.2H562.8z"/>
	<path class="st0" d="M564.1,33c-0.2,0-0.4,0-0.6,0C563.7,33,563.9,33,564.1,33z"/>
	<path class="st0" d="M566.7,33c-0.8,0-1.6,0-2.4,0C565.1,33,565.9,33,566.7,33z"/>
	<path class="st0" d="M579.5,32.9L579.5,32.9c-2.2,0-7.5,0.1-12.8,0.1C572,33,577.4,32.9,579.5,32.9z"/>
	<path class="st0" d="M580.7,31.9l0.8-4L580.7,31.9C580.7,31.9,580.7,31.9,580.7,31.9L580.7,31.9z"/>
	<path class="st0" d="M563.3,33h-0.5H563.3z"/>
	<path class="st0" d="M561.8,33h-0.7H561.8z"/>
	<path class="st0" d="M562.5,33H562H562.5z"/>
	<path class="st0" d="M416.1,15.4l1.6-6.9l-1.8,7.9l-1.7,8l1.5-7C415.8,16.8,416,16,416.1,15.4L416.1,15.4z"/>
	<path class="st0" d="M434.7-13.7h-11c-0.6,0-1.1,0.4-1.2,1l-1,4.6l-1,4.6c-0.1,0.5,0.2,1,0.8,1h11.1c0.6,0,1.1-0.4,1.2-1l1-4.6
		l1-4.6v0C435.6-13.2,435.3-13.7,434.7-13.7L434.7-13.7z"/>
	<path class="st0" d="M432.3,1.6L432.3,1.6l-3.2,14.9L432.3,1.6z"/>
	<path class="st0" d="M400.4,51.1c0,0,5.5,0.1,9.1,0.1C406.8,51.1,402.4,51.1,400.4,51.1C400.4,51.1,400.4,51.1,400.4,51.1
		L400.4,51.1z"/>
	<path class="st0" d="M419.2,1.6l-1.6,6.9L419.2,1.6z"/>
	<path class="st0" d="M431.5,0.6h-11.1c-0.6,0-1.1,0.4-1.2,1l-1.6,6.9l-1.6,6.9c-0.1,0.5-0.3,1.4-0.4,2l-1.5,7l-1.5,7
		c-0.1,0.5-0.4,1.4-0.5,1.9c0,0-2.1,6.2-5.5,6.1c-0.1,0-0.3,0-0.4,0c-1.7,0-3-0.1-3-0.1h0c-0.6,0-1.1,0.4-1.2,1l-1.1,4.8l-1.1,4.8
		c-0.1,0.5,0.2,1,0.8,1c2,0,6.4,0.1,9.1,0.1c8.7,0,13.3-4.8,16.2-18.7l3.4-15.9l3.2-14.9C432.5,1.1,432.1,0.6,431.5,0.6L431.5,0.6z"
		/>
	<path class="st0" d="M588.9,32.4c-0.6,0-0.9-0.4-0.8-1l8.3-39"/>
	<path class="st0" d="M600.5,31.4l3.4-16.7L600.5,31.4z"/>
	<path class="st0" d="M588.3,31.9c-0.1-0.3,0-0.9,0.1-1.5l4-18.5l-4.2,19.5c-0.1,0.5,0.2,1,0.8,1h1
		C589.4,32.4,588.3,32.2,588.3,31.9L588.3,31.9z"/>
	<path class="st0" d="M599.9,32.2c-0.3,0.1-1,0.2-1.6,0.2h1c0.6,0,1.1-0.4,1.2-1l0.2-1C600.6,31,600.2,32.1,599.9,32.2L599.9,32.2z"
		/>
	<path class="st0" d="M602.2,23.1l1.5-7.4c0,0,0,0,0,0L602.2,23.1L602.2,23.1z"/>
	<path class="st0" d="M635.1-5l0.5,1.9c0.1,0.5-0.2,1-0.8,1"/>
	<path class="st0" d="M600.7,30.5l1.5-7.3L600.7,30.5z"/>
	<path class="st0" d="M634.6-6.9l0.5,1.9L634.6-6.9z"/>
	<path class="st0" d="M603.7,15.8c0.1-0.5,0.3-1.4,0.4-2l1.6-7.4l-1.8,8.4L603.7,15.8L603.7,15.8z"/>
	<path class="st0" d="M596.6-8.2c-0.1,0.5-0.3,1.2-0.3,1.6l-4,18.5l4.2-19.5L596.6-8.2L596.6-8.2z"/>
	<path class="st0" d="M635.5-3.1L635.1-5l-0.5-1.9l-0.2-1c-0.9-3.5-3.5-5.5-9.3-5.5l-8.9,0l-8.2,0h-0.7h-8.5c-0.6,0-1.1,0.4-1.2,1h0
		l-0.4,1.9l-0.5,2.3l-0.1,0.6l-4.2,19.5l-4,18.5c-0.1,0.5-0.2,1.2-0.1,1.5c0.1,0.3,1.1,0.5,1.7,0.5h8.3c0.6,0,1.3-0.1,1.6-0.2
		c0.3-0.1,0.8-1.2,0.9-1.8l1.5-7.3l1.5-7.3c0,0,0,0,0,0l0.2-1l1.8-8.4l1.6-7.4c0.1-0.5,0.7-1,1.2-1l26.3,0
		C635.3-2.1,635.7-2.5,635.5-3.1L635.5-3.1z"/>
	<path class="st0" d="M669.4-20.2c-0.6,0-1.5,0-2,0h-8.4c-0.6,0-1.3,0.4-1.6,0.8L638.8,7.8c-0.3,0.5-0.7,0.4-0.8-0.1l-1.4-6
		c-0.1-0.5-0.7-1-1.2-1h-12c-0.6,0-0.9,0.4-0.7,1l5.4,18.8c0.2,0.5,0.2,1.4,0,2l-2.3,9.1c-0.1,0.5,0.2,1,0.8,1h11.8
		c0.6,0,1.1-0.4,1.3-1l2.3-9.1c0.1-0.5,0.5-1.3,0.9-1.8l30.2-40.1c0.3-0.4,0.2-0.8-0.4-0.8L669.4-20.2L669.4-20.2z"/>
	<path class="st0" d="M574.4,3.3L574.4,3.3c-0.1,0.6-0.6,1-1.2,1h-15.2c-0.5,0-0.8-0.4-0.7-0.8c0,0,0,0,0,0c0,0,0,0,0,0
		c0,0,0,0,0-0.1c0,0,0-0.1,0.1-0.3c1.4-3.8,4.4-6.4,9.9-6.4C573.6-3.2,574.8-0.2,574.4,3.3L574.4,3.3z M570-14.2
		c-19.5,0-24.1,11.8-26.6,23.7C540.7,21.6,541,33,561.1,33h0.7c0.1,0,0.1,0,0.2,0h0.6h0.2h0.5c0.1,0,0.2,0,0.2,0c0.2,0,0.4,0,0.6,0
		h0.1c0.8,0,1.6,0,2.4,0h0c5.3,0,10.6-0.1,12.8-0.1c0.6,0,1.1-0.5,1.2-1l0.8-4l0.2-0.8l1-4.8c0.1-0.5-0.3-1-0.8-1h-18.1
		c-7.2,0-9.3-1.9-8.5-7.5h28.9l0,0c0,0,0,0,0,0c0.5,0,0.9-0.3,1.1-0.7c0-0.1,0.1-0.2,0.1-0.3l0,0C589.6-3.3,588.4-14.2,570-14.2
		L570-14.2z"/>
	<path class="st0" d="M478,3.2l-0.3,1c0,0,0,0,0,0l-2.2,7.7l-2.2,7.7c-0.2,0.5-0.7,1-1.3,1h-11.6c-8.8,0-10.9-6.9-8.8-17
		c2.1-10.3,6.3-16.8,15-17.4C478.5-14.7,480.9-6.4,478,3.2L478,3.2z M486,20c0,0,5.5-13.2,6.7-20.9c1.7-10.2-3.4-25.1-23.2-25.1
		c-19.7,0-28.2,14.2-31.5,29.6c-3.3,15.5,1,29.1,20.6,29l15.4-0.1l14.4-0.1c0.6,0,1.1-0.4,1.3-1l2.5-9.6c0.1-0.5-0.2-1-0.8-1l-2.4,0
		l-2.4,0c-0.5,0-0.7-0.3-0.7-0.7C485.9,20.2,485.9,20.1,486,20L486,20z"/>
	<path class="st0" d="M583.4,11.2c0,0.4-0.3,0.7-0.7,0.7c-0.4,0-0.7-0.3-0.7-0.7c0-0.4,0.3-0.7,0.7-0.7
		C583.1,10.5,583.4,10.8,583.4,11.2z"/>
	<path class="st1" d="M335.7-6c-5.4,7.8-4.8,18-0.6,26.3c0.1,0.2,0.2,0.4,0.3,0.6c0.1,0.1,0.1,0.3,0.2,0.4c0,0.1,0.1,0.1,0.1,0.2
		c0.1,0.1,0.1,0.3,0.2,0.4c0.1,0.2,0.3,0.5,0.4,0.7c0.1,0.1,0.1,0.2,0.2,0.4c0.1,0.2,0.3,0.5,0.5,0.7c0.1,0.1,0.1,0.2,0.2,0.3
		c0.2,0.3,0.4,0.6,0.7,1c0,0,0,0,0,0c0,0.1,0.1,0.1,0.1,0.2c0.2,0.3,0.4,0.5,0.6,0.8c0.1,0.1,0.2,0.2,0.2,0.3
		c0.2,0.2,0.4,0.5,0.6,0.7c0.1,0.1,0.1,0.2,0.2,0.3c0.3,0.3,0.5,0.6,0.8,0.9c0,0,0,0,0,0c0,0,0,0,0,0c0.3,0.3,0.5,0.6,0.8,0.8
		c0.1,0.1,0.2,0.2,0.3,0.3c0.2,0.2,0.4,0.4,0.6,0.6c0.1,0.1,0.2,0.2,0.3,0.2c0.3,0.3,0.6,0.5,0.9,0.8c0,0,0,0,0,0
		c0.1,0,0.1,0.1,0.2,0.1c0.3,0.2,0.5,0.4,0.8,0.7c0.1,0.1,0.2,0.2,0.3,0.3c0.2,0.2,0.4,0.3,0.7,0.5c0.1,0.1,0.2,0.2,0.4,0.3
		c0.2,0.2,0.5,0.4,0.7,0.5c0.1,0.1,0.2,0.1,0.3,0.2c0,0,0,0,0.1,0.1c0.2,0.2,0.5,0.3,0.7,0.5c0.1,0.1,0.2,0.1,0.3,0.2
		c0.4,0.2,0.7,0.5,1.1,0.7c0.1,0.1,0.2,0.1,0.3,0.2c0.3,0.2,0.6,0.3,0.8,0.5c0.2,0.1,0.3,0.2,0.5,0.2c0.2,0.1,0.4,0.2,0.6,0.3
		c0,0,0.1,0,0.1,0.1c0.1,0,0.2,0.1,0.2,0.1c0.3,0.2,0.6,0.3,1,0.4c0.1,0,0.1,0.1,0.2,0.1c0.4,0.2,0.7,0.3,1.1,0.5
		c0.1,0,0.2,0.1,0.3,0.1c0.3,0.1,0.7,0.3,1.1,0.4c0,0,0.1,0,0.1,0c0.4,0.1,0.8,0.3,1.2,0.4c0.1,0,0.2,0.1,0.3,0.1
		c0.4,0.1,0.8,0.3,1.2,0.3c26.3,4.8,33.9-15.8,33.9-15.8c-6.4,8.4-17.8,10.6-28.6,8.1c-0.4-0.1-0.8-0.2-1.2-0.3
		c-0.1,0-0.2-0.1-0.3-0.1c-0.4-0.1-0.8-0.2-1.2-0.4c-0.1,0-0.1,0-0.2-0.1c-0.3-0.1-0.7-0.2-1-0.4c-0.1,0-0.2-0.1-0.3-0.1
		c-0.4-0.1-0.7-0.3-1.1-0.5c-0.1,0-0.1-0.1-0.2-0.1c-0.3-0.1-0.6-0.3-0.9-0.4c-0.1,0-0.2-0.1-0.3-0.1c-0.2-0.1-0.5-0.2-0.7-0.4
		c-0.2-0.1-0.3-0.2-0.5-0.3c-0.3-0.2-0.6-0.3-0.9-0.5c-0.1-0.1-0.2-0.1-0.3-0.2c-0.4-0.2-0.8-0.5-1.1-0.7c-0.1-0.1-0.2-0.1-0.3-0.2
		c-0.3-0.2-0.5-0.4-0.8-0.5c-0.1-0.1-0.2-0.1-0.3-0.2c-0.3-0.2-0.5-0.4-0.8-0.5c-0.1-0.1-0.2-0.2-0.3-0.3c-0.2-0.2-0.5-0.4-0.7-0.5
		c-0.1-0.1-0.2-0.2-0.3-0.2c-0.3-0.2-0.6-0.5-0.8-0.7c0,0-0.1-0.1-0.1-0.1c-0.3-0.3-0.6-0.5-0.9-0.8c-0.1-0.1-0.2-0.2-0.3-0.2
		c-0.2-0.2-0.4-0.4-0.6-0.6c-0.1-0.1-0.2-0.2-0.3-0.3c-0.3-0.3-0.5-0.6-0.8-0.8c0,0,0,0,0,0c-0.3-0.3-0.5-0.6-0.8-0.9
		c-0.1-0.1-0.1-0.2-0.2-0.2c-0.2-0.2-0.4-0.5-0.6-0.7c-0.1-0.1-0.1-0.2-0.2-0.3c-0.2-0.3-0.4-0.6-0.7-0.9c-6-8.2-8.1-19.4-3.4-28.7"
		/>
	<path class="st1" d="M352.6-12.6c-3.9,5.7-3.7,13.2-0.7,19.2c0.5,1,1.1,2,1.7,2.9c0.6,0.8,1.2,1.8,2,2.5c0.3,0.3,0.6,0.6,0.9,0.9
		c0.1,0.1,0.2,0.2,0.2,0.2c0.3,0.3,0.6,0.6,0.9,0.8c0,0,0,0,0,0c0,0,0,0,0,0c0.3,0.3,0.7,0.6,1.1,0.9c0.1,0.1,0.2,0.1,0.2,0.2
		c0.4,0.3,0.7,0.5,1.1,0.8c0,0,0,0,0,0c0.2,0.1,0.3,0.2,0.5,0.3c0.1,0.1,0.2,0.1,0.2,0.2c0.3,0.2,0.5,0.3,0.8,0.5c0,0,0.1,0,0.1,0.1
		c0.2,0.1,0.5,0.3,0.7,0.4c0.1,0,0.2,0.1,0.3,0.1c0.2,0.1,0.3,0.2,0.5,0.3c0,0,0.1,0,0.1,0c0.3,0.2,0.7,0.3,1.1,0.5
		c0.1,0,0.2,0.1,0.2,0.1c0.3,0.1,0.6,0.2,0.9,0.4c0.1,0,0.2,0.1,0.4,0.1c0.3,0.1,0.5,0.2,0.8,0.3c0.1,0,0.2,0.1,0.4,0.1
		c0.4,0.1,0.8,0.3,1.1,0.3c20.3,3.4,25-12.3,25-12.3c-4.2,6.1-12.4,9-21.1,6.7c-0.4-0.1-0.8-0.2-1.1-0.3c-0.1,0-0.2-0.1-0.3-0.1
		c-0.3-0.1-0.5-0.2-0.8-0.3c-0.1,0-0.2-0.1-0.4-0.1c-0.3-0.1-0.6-0.2-0.9-0.3c-0.1,0-0.2-0.1-0.2-0.1c-0.4-0.2-0.7-0.3-1.1-0.5
		c-0.2-0.1-0.4-0.2-0.5-0.3c-0.1-0.1-0.2-0.1-0.3-0.2c-0.2-0.1-0.5-0.2-0.7-0.4c-0.1,0-0.1-0.1-0.2-0.1c-0.3-0.2-0.5-0.3-0.8-0.5
		c-0.1-0.1-0.2-0.1-0.2-0.2c-0.2-0.1-0.4-0.2-0.5-0.3c-0.4-0.3-0.7-0.5-1.1-0.8c-0.1-0.1-0.2-0.1-0.2-0.2c-3.8-3-6.8-7.1-8.3-11.8
		c-1.5-4.8-1.2-10.3,1.4-14.7"/>
	<path class="st1" d="M366.7-17.5c-2.3,3.4-2.5,7.6-0.9,11.4c1.7,4,5.2,7.1,9.2,8.6c0.2,0.1,0.3,0.1,0.5,0.2c0.1,0,0.1,0,0.2,0.1
		c0.2,0.1,0.5,0.2,0.7,0.2c11.2,2.2,14.2-5.7,15-6.9c-2.7,3.8-7.1,4.8-12.6,3.4c-0.4-0.1-0.9-0.3-1.3-0.4c-0.5-0.2-1.1-0.4-1.6-0.7
		c-1-0.5-1.9-1-2.8-1.7c-4.9-3.7-8-10.8-4.8-16.6"/>
	<path class="st1" d="M492.9,48.9l-3.2,7.4h-3.6l0.3-6.7l-2.6,6.7h-3.5l-0.1-7.4l0.4-1.8h2.4l-0.5,7.3l2.7-7.3h3.4l-0.2,7.4l2.7-7.4
		h2.1L492.9,48.9L492.9,48.9z"/>
	<path class="st1" d="M498.5,51c0.3-1.4,0.2-1.7-0.5-1.7h-1.1l-0.7,3.4l-1.1,3.5H493l1.7-8l0.2-1.2h1.9l0.2,0.5c0,0,1.1-0.6,2.2-0.6
		c2.3,0,2.1,1.7,1.6,4.1L498.5,51L498.5,51z"/>
	<path class="st1" d="M505.3,45.9c-0.9,0-1.5-0.3-1.3-1.4c0.2-1.1,1-1.4,1.9-1.4c0.9,0,1.5,0.3,1.3,1.4
		C506.9,45.6,506.2,45.9,505.3,45.9L505.3,45.9z M504.3,56.2h-2.1l0.4-3.6l0.7-3.3l-1.4-0.3l0.4-1.9h3.9L504.3,56.2L504.3,56.2z"/>
	<path class="st1" d="M513.3,49l-2.6,0.3l-0.7,3.5c-0.2,1-0.2,1.2,0.7,1.2h1.7l-0.4,1.8c0,0-1.6,0.5-2.2,0.5c-2.6,0-2.6-1.5-2.2-3.6
		l0.7-3.4l-1.4-0.3l0.4-2h1.5l0.9-2.3h2l-0.5,2.3h2.5L513.3,49L513.3,49z"/>
	<path class="st1" d="M518.6,49.1c-1.2,0-1.8,0.6-2.1,1.7l3.5-0.3C520.2,49.8,520,49.1,518.6,49.1L518.6,49.1z M516.2,52.5
		c-0.2,1.1,0.3,1.5,1.7,1.5h3.6l-0.4,1.7c0,0-2.2,0.6-3.8,0.6c-4,0-4.1-2.3-3.5-4.7c0.5-2.4,1.4-4.7,5.3-4.7c3.7,0,3.9,2.3,3,5.6
		L516.2,52.5L516.2,52.5z"/>
	<path class="st1" d="M530.4,56.2h-2.1l0.4-3.6l1.5-6.8l-1.4-0.3l0.4-2h3.9L530.4,56.2L530.4,56.2z"/>
	<path class="st1" d="M537.8,49.1c-1.2,0-1.8,0.6-2.1,1.7l3.5-0.3C539.3,49.8,539.2,49.1,537.8,49.1L537.8,49.1z M535.4,52.5
		c-0.2,1.1,0.3,1.5,1.7,1.5h3.6l-0.4,1.7c0,0-2.2,0.6-3.8,0.6c-4,0-4.1-2.3-3.5-4.7c0.5-2.4,1.4-4.7,5.3-4.7c3.7,0,3.9,2.3,3,5.6
		L535.4,52.5L535.4,52.5z"/>
	<path class="st1" d="M550.8,49.2c0,0-2.6,0-3.3,0c-1.5,0-1.7,0.5-1.8,1l-0.1,0.4l4.8,0.4c0,0,0,1.5-0.2,2.4
		c-0.3,1.5-1.8,2.9-4.5,2.9c-1.3,0-3.5-0.5-3.5-0.5l0.4-1.8h3.3c1.5,0,1.7-0.4,1.8-0.8l0.1-0.6l-4.8-0.4c0,0-0.2-1.2,0.1-2.4
		c0.4-1.6,1.8-3,4.6-3c1.3,0,3.5,0.5,3.5,0.5L550.8,49.2L550.8,49.2z"/>
	<path class="st1" d="M559.8,49.2c0,0-2.6,0-3.3,0c-1.5,0-1.7,0.5-1.8,1l-0.1,0.4l4.8,0.4c0,0,0,1.5-0.2,2.4
		c-0.3,1.5-1.8,2.9-4.5,2.9c-1.3,0-3.5-0.5-3.5-0.5l0.4-1.8h3.3c1.5,0,1.7-0.4,1.8-0.8l0.1-0.6l-4.8-0.4c0,0-0.2-1.2,0.1-2.4
		c0.4-1.6,1.8-3,4.6-3c1.3,0,3.5,0.5,3.5,0.5L559.8,49.2L559.8,49.2z"/>
	<path class="st1" d="M562.6,57.7h-1.8l0.1-1.3c-0.7,0-1-0.5-0.8-1.3c0.2-1.1,0.9-1.4,1.9-1.4c0.9,0,1.5,0.3,1.3,1.4L562.6,57.7
		L562.6,57.7z"/>
	<path class="st1" d="M574.6,49.3c-1.3,0-1.8,0.8-2.1,2.3c-0.3,1.5-0.2,2.4,1.1,2.4h1.9l1-4.6H574.6z M577.7,55l-0.2,1.2l-1.9,0
		l-0.3-0.6c0,0-1.7,0.7-2.8,0.7c-2.9,0-3-2.4-2.5-4.7c0.5-2.4,1.6-4.7,4.5-4.7c1,0,2.4,0.5,2.4,0.5l1.1-3.9h2.1L577.7,55L577.7,55z"
		/>
	<path class="st1" d="M585.1,49.2c-1.7,0-2.3,1-2.6,2.4c-0.3,1.5-0.2,2.4,1.6,2.4c1.8,0,2.3-1,2.6-2.4
		C587,50.2,586.9,49.2,585.1,49.2L585.1,49.2z M583.6,56.4c-3.7,0-4-2.3-3.5-4.7c0.5-2.4,1.8-4.7,5.5-4.7c3.7,0,4,2.3,3.5,4.7
		C588.6,54.1,587.3,56.4,583.6,56.4z"/>
	<path class="st1" d="M604.6,56.2l0.4-3.5l0.2-1c0.3-1.3,0.5-2.3-0.9-2.3h-1.1c0,0.7-0.1,1.5-0.3,2.3l-1,4.6h-2.1l0.4-3.5l0.2-1
		c0.3-1.3,0.5-2.3-0.9-2.3h-0.9l-1.5,6.9h-2.4l2-9.2h1.9l0.3,0.6c0,0,1.3-0.7,2.3-0.7c0.8,0,1.4,0.4,1.6,0.8
		c0.4-0.2,1.7-0.8,2.6-0.8c2.9,0,2.8,2.3,2.3,4.7l-1,4.6L604.6,56.2L604.6,56.2z"/>
	<path class="st1" d="M614.1,49.2c-1.7,0-2.3,1-2.6,2.4c-0.3,1.5-0.2,2.4,1.6,2.4c1.8,0,2.3-1,2.6-2.4
		C616,50.2,615.9,49.2,614.1,49.2z M612.6,56.4c-3.7,0-4-2.3-3.5-4.7c0.5-2.4,1.8-4.7,5.5-4.7c3.7,0,4,2.3,3.5,4.7
		C617.6,54.1,616.3,56.4,612.6,56.4z"/>
	<path class="st1" d="M624.3,51c0.3-1.4,0.2-1.7-0.5-1.7h-1.1l-0.7,3.4l-1.1,3.5h-2.1l1.7-8l0.2-1.2h1.9l0.2,0.5
		c0,0,1.1-0.6,2.2-0.6c2.3,0,2.1,1.7,1.6,4.1L624.3,51L624.3,51z"/>
	<path class="st1" d="M632.4,49.1c-1.2,0-1.8,0.6-2.1,1.7l3.5-0.3C633.9,49.8,633.7,49.1,632.4,49.1L632.4,49.1z M630,52.5
		c-0.2,1.1,0.3,1.5,1.7,1.5h3.6l-0.4,1.7c0,0-2.2,0.6-3.8,0.6c-4,0-4.1-2.3-3.5-4.7c0.5-2.4,1.4-4.7,5.3-4.7c3.7,0,3.9,2.3,3,5.6
		L630,52.5L630,52.5z"/>
	<path class="st1" d="M637.9,56.4c-0.9,0-1.5-0.3-1.3-1.4c0.2-1.1,0.9-1.4,1.9-1.4c0.9,0,1.5,0.3,1.3,1.4
		C639.5,56.1,638.8,56.4,637.9,56.4z"/>
</g>
</svg>
