<?xml version="1.0" encoding="utf-8"?>
<!-- Generator: Adobe Illustrator 19.0.0, SVG Export Plug-In . SVG Version: 6.00 Build 0)  -->
<svg version="1.1" id="Layer_1" xmlns="http://www.w3.org/2000/svg" xmlns:xlink="http://www.w3.org/1999/xlink" x="0px" y="0px"
	 viewBox="-127.8 357 175.5 75.3" style="enable-background:new -127.8 357 175.5 75.3;" xml:space="preserve">
<style type="text/css">
	.st0{fill:#7E50FF;}
</style>
<g>
	<path class="st0" d="M-53.3,425.7h1.2v-9.4h-1.2V425.7z M-52.7,412.5c-0.5,0-0.8,0.3-0.8,0.8c0,0.4,0.4,0.8,0.8,0.8
		c0.5,0,0.8-0.4,0.8-0.8C-51.9,412.8-52.3,412.5-52.7,412.5z M-68.5,374.3c5,0,10.2,1.6,11.1,1.6c3-0.1,3.3-2.5,3.3-3.3
		c0-1.4-0.7-2.4-2.2-3c-0.9-0.3-5.6-1.8-12-1.8c-8.9,0-12.8,2-14.5,3.2c-2.6,1.9-3.9,4.6-3.9,8.1v13c0,3.4,1.3,6.1,3.9,8.2
		c1.7,1.3,4.9,3.1,14.5,3.1c4.7,0,10.8-1.2,12-1.7c1.5-0.6,2.6-2,2-4.1c-0.2-0.8-0.7-1.5-1.5-1.9c-0.8-0.4-1.6-0.5-2.4-0.3
		c-2.1,0.5-3.9,0.9-5.4,1.1c-1.5,0.2-3.1,0.3-5,0.3c-4.8,0-5.2-3.2-5.2-4.8v-13C-73.6,373.9-69,374.3-68.5,374.3z M-0.6,416.3
		l3.2,9.4h2.6l1.9-5.6l1.9,5.6h2.6l3.2-9.4H12l-1.9,6.2l-1.9-6.2H5.7l-1.9,6.2l-1.9-6.2H-0.6z M-50.1,420.7v0.5
		c0,3.3,1.7,4.6,4.1,4.6c0.8,0,1.4-0.1,2-0.4v0.7c0,2.1-1,3-2.5,3c-1.2,0-2.1-0.3-2.9-0.8c-0.2,0.3-0.3,0.7-0.5,1
		c0.9,0.6,2,0.9,3.3,0.9c2.1,0,3.7-1.4,3.7-4.1v-9.4c-0.9-0.5-2-0.8-3.4-0.8C-48.3,416.1-50.1,417.4-50.1,420.7z M-43.9,417.6v6.7
		c-0.5,0.3-1.2,0.4-1.9,0.4c-1.8,0-3-0.8-3-3.5v-0.5c0-2.6,1.1-3.4,2.7-3.5c0.4,0,0.7,0,0.9,0C-44.7,417.3-44.3,417.5-43.9,417.6z
		 M-94.8,371c-1.7-1.3-4.3-3.2-14.5-3.2c-1.9,0-6.5,0.2-11.9,1.8c-1.4,0.4-2.3,1.4-2.3,3c0,1.9,1.5,2.9,2.1,3.2
		c0.5,0.3,1.3,0.2,2.2,0c1.9-0.5,3.4-0.8,5.1-1.1c1.7-0.3,3.4-0.4,5-0.4c5.5,0.3,5.2,3.9,5.2,4.8v1.8c-4.7,0-8.1,0.3-10.3,0.8
		c-2.3,0.5-4.1,1.3-5.3,2.3c-2.6,1.9-3.9,4.6-3.9,8.1c0,3.4,1.3,6.1,3.9,8.2c1.6,1.2,3.4,2.1,5.5,2.5c2.1,0.5,4.5,0.7,7.2,0.7
		c1.9,0,4.1-0.2,6.6-0.5c2.5-0.3,4.8-0.7,6.9-1.2c0.7-0.2,2.5-1.1,2.5-3.2v-19.6C-90.9,375.6-92.2,372.9-94.8,371z M-103.9,396.4
		c-1.1,0.4-2.2,0.6-3.2,0.6c-1.3,0-2.2-0.4-2.6-1.2c-0.5-0.8-0.7-1.8-0.7-3.7c0-1.6,0.2-2.7,0.7-3.6c0.5-0.9,1.2-1.2,2.4-1.2
		c1.2,0,2.3,0.2,3.5,0.5V396.4z M-59.3,416.9v8.8h1.2v-8.1c0.4-0.1,1-0.4,1.7-0.4c0.6,0,1,0.1,1.4,0.3l0.5-1.1
		c-0.5-0.3-1.1-0.4-1.9-0.4C-57.7,416.1-58.7,416.5-59.3,416.9z M34.4,395.6c-2.1,0.5-4.7,1.3-9.8,1.3c-5.2,0-5.2-3.8-5.2-4.8v-1.7
		c4.6,0,8-0.3,10.3-0.8c2.3-0.6,9.2-2.6,9.2-10.6c0-8.8-8.3-11.3-16.6-11.3c-5.7,0-11.5,1.2-13.5,1.7c-2,0.6-2.5,2-2.5,3.2v19.1
		c0,8.7,5.5,11.7,18.4,11.7c5.9,0,10.5-1.3,11.5-1.6c2.2-0.6,3.4-2.8,2.2-4.8C38.2,396.5,37.2,394.8,34.4,395.6z M19.5,374.9
		c1.1-0.4,2.2-0.6,3.2-0.6c2.3,0,2.9,1.4,3,2.1c0.2,0.7,0.3,1.6,0.3,2.7c0,0.9-0.1,1.8-0.3,2.7c-0.2,0.9-0.6,1.5-1.1,1.8
		c-0.8,0.4-1.7,0.8-5.1-0.2V374.9z M41.4,364.8c-0.1-0.1-0.2-0.1-0.4-0.2c0.4-0.1,0.7-0.3,0.9-0.5c0.2-0.2,0.3-0.5,0.3-0.8
		c0-0.4-0.1-0.7-0.4-0.9c-0.3-0.2-0.7-0.3-1.2-0.3h-2v4.4h1.1v-1.7c0.1,0,0.1,0,0.1,0c0.1,0,0.3,0.1,0.4,0.2
		c0.1,0.2,0.4,0.7,0.9,1.5h1.3c-0.5-0.8-0.7-1.3-0.7-1.3C41.6,365.1,41.5,364.9,41.4,364.8z M40.2,364h-0.5v-1.1h0.5
		c0.3,0,0.5,0,0.6,0.2c0.1,0.1,0.2,0.2,0.2,0.4c0,0.2-0.1,0.3-0.2,0.4C40.8,364,40.6,364,40.2,364z M23.5,412.5v17.9l15.5-8.9
		l-7.8-4.5L23.5,412.5z M-37,416.1c-0.9,0-1.6,0.1-2.1,0.3v-3.9h-1.2v13.2h1.2v-8.1c0.5-0.2,1.1-0.4,2-0.4c1.8,0,3,0.9,3,3.4v5h1.2
		v-5C-32.9,417.4-34.7,416.1-37,416.1z M44.1,362.3c-0.4-0.6-0.9-1.1-1.5-1.5c-0.6-0.4-1.3-0.6-2.1-0.6c-0.7,0-1.4,0.2-2.1,0.6
		c-0.6,0.4-1.1,0.9-1.5,1.5c-0.4,0.6-0.6,1.3-0.6,2.1c0,0.7,0.2,1.4,0.6,2.1c0.4,0.6,0.9,1.1,1.5,1.5c0.6,0.4,1.3,0.6,2.1,0.6
		c0.7,0,1.4-0.2,2.1-0.6c0.6-0.4,1.1-0.9,1.5-1.5c0.4-0.6,0.6-1.3,0.6-2.1C44.7,363.6,44.5,362.9,44.1,362.3z M42.9,366.7
		c-0.7,0.7-1.4,1-2.4,1c-0.9,0-1.7-0.3-2.4-1c-0.7-0.7-1-1.4-1-2.4c0-0.9,0.3-1.7,1-2.4c0.7-0.7,1.4-1,2.4-1c0.9,0,1.7,0.3,2.4,1
		c0.7,0.7,1,1.4,1,2.4C43.9,365.3,43.5,366.1,42.9,366.7z M-27.5,424.7c-0.3,0-0.6,0-0.9-0.1c-0.8-0.2-1.2-0.8-1.2-2.1v-5.1h3.8
		v-1.1h-3.8v-2.8h-1.2v9.1c0,2.4,1.3,3.3,3,3.3c1,0,2-0.3,2.7-0.9c-0.1-0.4-0.3-0.7-0.5-1C-26.1,424.4-26.7,424.7-27.5,424.7z
		 M-15.9,416c-1.5,0-3.2,0.3-4.2,0.9v8.8h2.4v-7.2c0.3-0.1,0.8-0.2,1.6-0.2c1.2,0,1.9,0.6,1.9,2.4v5h2.4v-4.8
		C-11.7,417.5-13.5,416-15.9,416z M-1.6,421v-0.1c0-3.5-1.8-4.9-4.2-4.9c-2.4,0-4.2,1.4-4.2,4.9v0.1c0,3.5,1.8,4.9,4.2,4.9
		C-3.5,425.9-1.6,424.5-1.6,421z M-4.1,421c0,2-0.6,2.6-1.7,2.6c-1.1,0-1.7-0.6-1.7-2.6v-0.1c0-2,0.6-2.6,1.7-2.6
		c1.1,0,1.7,0.6,1.7,2.6V421z M-7.5,402h6.4c1.4,0,3.3-0.9,3.3-3.3v-19.3c0-9.3-8.4-11.6-16.5-11.6c-2,0-3.9,0.1-5.6,0.3
		c-1.7,0.2-3.5,0.5-5.3,0.8c-1.5-0.5-2.8-0.7-3.9-0.9c-1.1-0.1-2.7-0.2-4.7-0.2c-5.6,0-12.3,1.3-13.6,1.7c-0.7,0.2-1.3,0.6-1.8,1.2
		c-0.5,0.6-0.7,1.2-0.7,2v26c0,2.6,2,3.3,3.2,3.3h6.5c1.2,0,3.3-0.9,3.3-3.3v-23.8c1.1-0.4,2.2-0.6,3.2-0.6c2.2,0,3.3,1.2,3.3,4.8
		v19.6c0,2.5,2,3.3,3.2,3.3h6.5c1.4,0,3.2-1,3.2-3.3v-23.8c1.5-0.4,2.9-0.6,3.3-0.6c1.3,0,2.2,0.4,2.6,1.2c0.4,0.8,0.6,2,0.6,3.6
		v19.6C-10.8,401.1-8.8,402-7.5,402z"/>
</g>
</svg>
