<?xml version="1.0" encoding="UTF-8"?>
<svg width="500px" height="124px" viewBox="0 0 500 124" version="1.1" xmlns="http://www.w3.org/2000/svg" xmlns:xlink="http://www.w3.org/1999/xlink">
    <!-- Generator: Sketch 45.2 (43514) - http://www.bohemiancoding.com/sketch -->
    <title>bluekiri</title>
    <desc>Created with Sketch.</desc>
    <defs></defs>
    <g id="Page-1" stroke="none" stroke-width="1" fill="none" fill-rule="evenodd">
        <g id="bluekiri">
            <path d="M157.838914,73.9462763 C157.838914,64.0226125 151.531523,57.5885888 142.940422,57.4795375 C135.219306,57.4795375 129.455656,62.7139975 128.259427,70.8928413 L128.259427,76.9997113 C129.455656,85.178555 135.219306,90.413015 142.940422,90.413015 C151.857768,90.413015 157.838914,83.86994 157.838914,73.9462763 Z M110.859729,11.3508587 L128.368175,11.3508587 L128.259427,44.2843363 C133.696832,42.5395162 139.569231,41.558055 144.462896,41.558055 C145.767873,41.558055 147.072851,41.558055 148.26908,41.7761575 C163.058823,42.86667 174.586124,55.8437687 175.782353,70.8928412 C175.999849,72.6376612 175.999849,74.3824812 175.891101,76.1273013 C175.021116,91.9397325 163.493816,105.134934 148.26908,106.116395 C146.202866,106.225446 144.245399,106.225446 142.396682,106.225446 C133.80558,105.68019 127.389442,103.172011 122.495777,99.57332 C122.060785,100.772884 122.060785,104.371575 122.060785,105.243985 L110.859729,105.243985 L110.859729,11.3508587 Z M204.282805,105.243985 C206.240271,103.06296 209.828959,90.84922 207.871493,88.5591437 C205.261538,88.4500925 198.845399,87.795785 197.540422,82.12512 C196.779185,80.0531462 196.235445,77.326865 196.235445,73.837225 L195.9092,12.768525 L178.400754,12.768525 L178.618251,74.27343 C178.618251,76.2363525 178.726999,78.0902237 178.726999,79.944095 C179.379487,95.3203212 186.774359,104.80778 204.282805,105.243985 Z M227.672097,42.5395162 L210.054902,42.5395162 L210.054902,79.1807362 C210.054902,96.1927312 221.582202,106.225446 239.960633,106.334497 C257.034087,106.334497 268.452639,97.0651412 269.540121,82.561325 C269.757617,80.5984025 269.757617,78.63548 269.757617,76.454455 L269.866365,42.5395162 L252.24917,42.5395162 L252.24917,71.1109437 C252.24917,74.1643787 252.140422,77.1087625 252.031674,79.8350437 C251.487933,87.0324263 247.464253,90.84922 239.960633,90.84922 C232.457013,90.84922 228.433334,87.0324263 227.780845,79.8350437 C227.672097,77.1087625 227.563349,74.1643787 227.672097,71.1109437 L227.672097,42.5395162 Z M291.29819,66.9669962 L317.83273,66.9669962 C317.288989,61.2963313 312.06908,55.2985125 304.347964,55.2985125 C297.06184,55.2985125 292.385671,60.4239212 291.29819,66.9669962 Z M319.463952,85.3966575 L334.036199,88.668195 C330.447511,96.95609 322.073906,106.334497 305.217948,106.334497 C289.123227,106.334497 272.919759,93.902655 272.919759,73.9462762 C272.919759,54.644205 288.035746,41.558055 304.021719,41.558055 C324.248869,41.558055 335.12368,55.8437687 335.12368,78.9626337 L290.971945,78.9626337 C292.059427,85.8328625 298.040573,90.7401687 305.1092,91.3944762 C310.655354,91.9397325 316.310256,89.6496562 319.463952,85.3966575 Z M402.555957,42.5395162 L373.411463,73.0738662 L405.927149,105.243985 L382.437557,105.243985 L357.534238,80.5984025 L357.534238,105.243985 L339.917043,105.243985 L339.917043,10.5875 L357.534238,10.5875 L357.534238,65.3312275 L378.957617,42.5395162 L402.555957,42.5395162 Z M405.500603,105.243985 L405.500603,42.2123625 L423.226546,42.2123625 L423.226546,105.243985 L405.500603,105.243985 Z M447.59457,42.3214137 L429.977375,42.3214137 L429.977375,105.243985 L447.59457,105.243985 L447.59457,72.6376612 C447.59457,67.8394062 449.87828,59.6605625 458.469381,58.4609987 C462.384313,57.8066912 465.864253,58.3519475 468.9092,58.8972037 C470.431674,59.1153062 471.736651,59.3334087 472.824133,59.3334087 L477.391553,43.4119263 C476.304072,43.4119263 473.694117,42.3214137 469.561689,41.6671062 C468.039215,41.558055 466.299246,41.4490037 464.34178,41.4490037 C456.946908,41.7761575 449.87828,46.0291562 447.59457,49.84595 L447.59457,42.3214137 Z M482.184916,105.243985 L482.184916,42.2123625 L499.910859,42.2123625 L499.910859,105.243985 L482.184916,105.243985 Z M414.228955,36.7471522 C409.647407,36.7471522 405.933329,33.022721 405.933329,28.4284022 C405.933329,23.8340835 409.647407,20.1096522 414.228955,20.1096522 C418.810502,20.1096522 422.52458,23.8340835 422.52458,28.4284022 C422.52458,33.022721 418.810502,36.7471522 414.228955,36.7471522 Z M491.152031,36.7471522 C486.570484,36.7471522 482.856406,33.022721 482.856406,28.4284022 C482.856406,23.8340835 486.570484,20.1096522 491.152031,20.1096522 C495.733579,20.1096522 499.447658,23.8340835 499.447658,28.4284022 C499.447658,33.022721 495.733579,36.7471522 491.152031,36.7471522 Z" id="Combined-Shape-Copy" fill="#0152D4" fill-rule="nonzero"></path>
            <g id="Group-Copy-5">
                <path d="M38.1417962,95.5198773 C33.5950089,92.0321494 31.9856751,91.4958156 26.4802766,91.6335086 C23.7234785,91.7026141 21.2171007,91.9681984 20.9112405,92.223475 C19.4846009,93.412184 10.2945662,94.9567276 7.29451564,94.5116675 C4.96981254,94.1656346 2.30537575,92.2863906 0.930056118,90.0203668 C-0.216388656,88.1297797 -0.322108097,84.4306067 0.719647211,82.6008756 C1.68031837,80.9103802 1.65774303,78.7882488 0.648831269,75.9564978 C-0.414479919,72.9767348 -0.0285656008,71.4569376 2.48806996,68.7128592 C3.98039671,67.0868323 5.21921331,66.3194503 7.45257456,65.6402697 C10.3766803,64.7501546 10.4772604,64.7532477 13.2864085,65.8089084 C16.8222241,67.138912 17.652551,67.1461361 20.1425018,65.8702718 C24.0375364,63.8729342 29.5768084,65.0038822 32.3972546,68.3714521 C33.9275538,70.1986164 34.0784239,71.7379947 33.2368094,76.9543886 C32.4413859,81.8732169 34.1759351,85.8611784 38.0124714,87.9379367 C41.4015157,89.7712795 42.3334527,87.2664869 42.3385815,76.3221333 C42.341661,67.4643283 41.8839008,65.5288753 39.0901497,62.5707712 C36.0623844,59.3656449 32.4413859,58.1000972 27.3732112,58.4739857 C15.1143595,59.3806002 13.4526757,59.3460486 11.0920496,58.1403225 C7.58291878,56.3497832 6.82341834,54.9336489 6.91680961,50.3520981 C6.9753184,47.4538178 6.74541357,45.9314476 6.00026967,44.2899476 C4.59005705,41.1771337 4.69063713,37.6739276 6.25993864,35.3542723 C7.7286706,33.1805628 11.8176871,31.3946654 15.3257879,31.3946654 C16.8047776,31.3946654 18.5495845,30.8717375 20.6166786,29.8088626 C23.0132276,28.5763203 24.1278588,28.2803032 25.6212155,28.4814297 C28.108087,28.8166402 31.5207366,30.9965389 32.7575037,33.0413216 C34.1790145,35.3903722 35.2761888,40.8713186 35.2895364,45.6900957 C35.300824,50.4634903 36.2071063,53.0492519 38.6878188,55.3895353 C39.7767848,56.4173411 40.6132705,56.7757589 41.6468176,56.6571457 C42.8876837,56.5132636 43.1340155,56.2126057 43.4398651,54.4628082 C44.0228408,51.139584 43.8380971,37.8961987 43.1843055,36.1345393 C42.4114575,34.0459212 39.113755,30.3880031 36.3980087,28.602621 C35.0863162,27.7408727 33.2552858,25.7064045 31.7311455,23.4166599 C29.4474837,19.9851382 29.2237376,19.3884632 29.2237376,16.7243147 C29.2237376,12.8673338 30.5539066,10.8483364 34.4243164,8.83397985 C36.0305709,7.99698598 37.957042,6.51380913 38.7042354,5.53808939 C40.8688302,2.7135551 42.9554202,0.992637484 44.8613759,0.46042586 C48.7933635,-0.637000606 50.553578,0.0798338226 54.0965718,4.22200186 C55.4554749,5.81038277 57.1171482,7.20176364 57.8807687,7.39102832 C63.1049422,8.68700316 67.372554,15.7712858 65.6390245,20.2739342 C64.8836225,22.2367191 60.31632,27.0281647 57.2495524,29.0734629 C50.6592869,33.4693589 48.3941121,38.7208153 48.3941121,49.6068992 C48.3941121,57.3719174 49.0612407,58.1836424 52.8002764,54.9687169 C55.556055,52.5964601 56.8708269,49.6796144 57.4989532,44.5359413 C58.1866183,38.9105964 59.3074083,34.9891511 60.682728,33.3935502 C61.2975171,32.6803258 62.8863254,31.5689747 64.2134146,30.9233082 C67.2298819,29.4561186 69.2189711,29.665496 73.9340747,31.9444105 C76.4455817,33.1594183 78.3094554,33.6792527 80.683419,33.8293239 C83.3653021,33.9979606 84.2223134,34.2800531 85.394424,35.3769642 C88.573059,38.3526005 88.9887374,41.0951358 86.9103555,45.3631371 C85.5719786,48.1092834 85.5709592,48.1175343 86.4813405,50.1473616 C87.3557984,52.0957075 87.3568178,52.2648596 86.5059648,54.1636965 C85.9814981,55.3307446 84.6626275,56.8345495 83.2985955,57.8185211 C81.2859008,59.2717862 80.6146627,59.4796173 78.1606244,59.4115429 C76.6097996,59.368224 74.7202707,59.0964461 73.9617896,58.8061017 C73.2033084,58.5167891 69.8081055,58.1305244 66.4159818,57.9484797 C60.7586832,57.6442118 60.0515222,57.7081587 57.8438157,58.7189476 C54.8365764,60.095372 51.0072288,64.1163484 49.6955364,67.2724853 C48.8457135,69.3188159 48.7071505,70.7679554 48.7533416,77.1132263 C48.8159494,85.5656832 49.2890961,87.3160005 51.5819857,87.5800433 C54.5512526,87.9234992 56.3596972,84.3676905 57.0042505,76.9208659 C57.3101107,73.3686689 57.8048133,71.0680978 58.6690138,69.1728634 C59.7795356,66.7340813 60.2075212,66.3277098 63.1737085,64.9064135 C67.9401219,62.6197638 68.9552029,62.7703504 74.8803788,66.6407374 C77.0213687,68.0383145 77.9851187,68.322984 81.2376602,68.5194634 C85.5688995,68.7798939 86.9544868,69.5302502 88.6859567,72.5543616 C90.1577575,75.1231052 90.0417808,77.0064791 88.1850955,80.7030751 C86.6784014,83.7039721 86.6332406,83.9587414 87.2275038,86.2871639 C88.0578304,89.5397353 87.5692764,91.7407732 85.5576118,93.8144372 C83.5038649,95.9314141 80.0593913,97.0169883 75.6049862,96.9514844 C72.8071263,96.9107484 71.7099516,96.6013218 68.5426043,94.9593045 C65.1217356,93.1873358 64.4351005,93.0150847 60.7545739,93.004777 C56.5711256,92.9934232 55.7746722,93.2842921 52.3414967,96.0768492 C51.9400707,96.4035769 48.520858,99.8110075 48.520858,102.300305 C48.520858,106.702728 43.4398651,105.148945 43.4398651,102.300305 C43.4398651,98.0175505 40.2017015,97.098979 38.1417962,95.5198773 Z" id="Combined-Shape" fill="#0152D4" fill-rule="nonzero"></path>
                <rect id="Rectangle-5" fill="#0152D4" fill-rule="nonzero" x="43.4607322" y="97.140845" width="5.07982584" height="12.1355047"></rect>
                <ellipse id="Oval-4" stroke="#0152D4" stroke-width="4.52261307" cx="46.000645" cy="115.035211" rx="5.92646347" ry="5.96478873"></ellipse>
            </g>
        </g>
    </g>
</svg>