<?xml version="1.0" encoding="utf-8"?>
<!-- Generator: Adobe Illustrator 19.0.0, SVG Export Plug-In . SVG Version: 6.00 Build 0)  -->
<svg version="1.1" id="Calque_1" xmlns="http://www.w3.org/2000/svg" xmlns:xlink="http://www.w3.org/1999/xlink" x="0px" y="0px"
	 viewBox="349 -177 798 454" style="enable-background:new 349 -177 798 454;" xml:space="preserve">
<style type="text/css">
	.st0{opacity:0.2;enable-background:new    ;}
	.st1{fill:#FFFFFF;}
	.st2{opacity:0.2;}
</style>
<g>
	<path class="st0" d="M579.7,136.9H398.3c-10.1,0-18.3-8.2-18.3-18.3V-18.6c0-10.1,8.2-18.3,18.3-18.3h181.3
		c10.1,0,18.3,8.2,18.3,18.3v137.3C598,128.8,589.8,136.9,579.7,136.9z"/>
	<g>
		<path class="st1" d="M462.4,63.4h-27.7v39.5h-15.9V-3.7h46.6c23.1,0,34.8,9.5,34.8,28.4v7.8C500.2,54.2,485.3,63.4,462.4,63.4z
			 M484.3,24.7c0-10.3-3.2-14-18.9-14h-30.7v38.4h27.7c16.1,0,21.9-4.1,21.9-16.6V24.7L484.3,24.7z"/>
	</g>
	<g class="st2">
		<path d="M658.6,89.9c-6.1,0-10.9-1.4-15.5-3.7v35.2h-12.3V21.7h12.3v3.5c5.4-2.7,11.2-4,17.8-4c13.9,0,25.4,8.6,25.4,24.6v17
			C686.3,81.3,674.8,89.9,658.6,89.9z M674,45.9c0-9.1-5.3-12.8-13-12.8c-6.7,0-11.7,1-17.9,3.5v37.8c4.2,1.8,10.7,3.7,15.4,3.7
			c10.2,0,15.5-3.7,15.5-15.2V45.9z"/>
		<path d="M743.7,88.4V45.8c0-9.4-3.2-12.8-13-12.8c-6.2,0-11.5,1-17.9,3.4v52h-12.3V-8.1h12.3v33.3c6.2-2.9,11.5-4,17.8-4
			c16.6,0,25.4,9,25.4,24.6v42.6H743.7z"/>
		<path d="M809.8,88.4v-3.8c-5.6,2.9-12.2,4.5-18.2,4.5c-13.6,0-26.1-8.3-26.1-21.9v-2.1c0-11.4,10.1-18.9,23.5-18.9h20.8v-3.7
			c0-6.6-2.7-9.9-13-9.9c-8.2,0-16.8,1.6-24.5,4.5v-12c5.8-2.4,15.4-4,24.3-4c16.2,0,25.4,8,25.4,21.4v45.9L809.8,88.4L809.8,88.4z
			 M809.8,57.6h-20.6c-8.3,0-11.4,3.4-11.4,7.5v2.1c0,6.4,4.3,10.6,13.6,10.6c6.1,0,12.3-1.4,18.4-4V57.6z"/>
		<path d="M859.4,89.3c-10.4,0-18.1-1.3-25.4-3.7V73.7c8.3,2.9,16.8,4.2,25.3,4.2c13.3,0,13.9-4,13.9-7v-2.6
			c0-11.7-39.5-1.4-39.5-27v-2.1c0-12,10.1-18.4,23.2-18.4c9.6,0,17.6,1.4,24,4.3v11.7c-9.4-3.5-15.4-4.5-23.8-4.5
			c-8.6,0-11,2.7-11,6.9v2.9c0,13.3,39.5,1.9,39.5,25.8v3C885.5,81.4,877.5,89.3,859.4,89.3z"/>
		<path d="M907.2,59.8v5.3c0,8.5,5,12.6,15.4,12.6c8.6,0,13.9-1.3,23-4.3v11.5c-6.2,2.6-14.1,4.2-22.9,4.2c-16,0-27.8-8.3-27.8-24
			v-20c0-15.2,9-23.4,25.3-23.4h9.6c11.7,0,20.6,8.2,20.6,19v19L907.2,59.8L907.2,59.8z M938.3,40.8c0-4.6-3-7.5-8.2-7.5h-9.8
			c-10.1,0-13.1,2.9-13.1,11.8v3.7h31L938.3,40.8L938.3,40.8z"/>
		<path d="M1004.8,88.4L981,54.2l-4,3.5v30.7h-12.3V-8.1H977v51l24.8-21.3h18.7l-29.9,25.3l29.9,41.4h-15.7V88.4z"/>
		<path d="M1032,14.5v-11h12.3v11H1032z M1032,88.4V21.7h12.3v66.7L1032,88.4L1032,88.4z"/>
		<path d="M1088.5,89.1c-13,0-20.3-6.4-20.3-18.9V32.8h-9.6V21.6h9.6V1.9h12.2v19.7h17v11.2h-17v36.6c0,5.9,2.1,8,8.2,8
			c6.1,0,10.4-0.6,16-1.9v12C1099.7,88.4,1094.4,89.1,1088.5,89.1z"/>
	</g>
	<polygon class="st1" points="506,49.1 548,-3.7 573.7,-3.7 530.3,49.1 576.7,102.9 551.3,102.9 	"/>
</g>
</svg>
