<?xml version="1.0" encoding="utf-8"?>
<!-- Generator: Adobe Illustrator 19.0.0, SVG Export Plug-In . SVG Version: 6.00 Build 0)  -->
<svg version="1.1" id="Calque_1" xmlns="http://www.w3.org/2000/svg" xmlns:xlink="http://www.w3.org/1999/xlink" x="0px" y="0px"
	 viewBox="-80 172 450 450" style="enable-background:new -80 172 450 450;" xml:space="preserve">
<style type="text/css">
	.st0{fill:#7E50FF;stroke:#696992;stroke-linecap:round;stroke-linejoin:round;stroke-miterlimit:10;}
	.st1{fill:#FFD255;stroke:#FFFFFF;stroke-linecap:round;stroke-linejoin:round;stroke-miterlimit:10;}
	.st2{fill:#F1BD19;stroke:#231F20;stroke-linecap:round;stroke-linejoin:round;stroke-miterlimit:10;}
	.st3{fill:#FFD255;stroke:#231F20;stroke-linecap:round;stroke-linejoin:round;stroke-miterlimit:10;}
	.st4{fill:#ECECEC;stroke:#696992;stroke-linecap:round;stroke-linejoin:round;stroke-miterlimit:10;}
	.st5{fill:#F6D1A7;stroke:#696992;stroke-linecap:round;stroke-linejoin:round;stroke-miterlimit:10;}
	.st6{fill:none;stroke:#696992;stroke-linecap:round;stroke-linejoin:round;stroke-miterlimit:10;}
	.st7{fill:#ECECEC;stroke:#231F20;stroke-linecap:round;stroke-linejoin:round;stroke-miterlimit:10;}
	.st8{fill:#F6D1A7;stroke:#231F20;stroke-linecap:round;stroke-linejoin:round;stroke-miterlimit:10;}
	.st9{fill:#D6A500;stroke:#231F20;stroke-linecap:round;stroke-linejoin:round;stroke-miterlimit:10;}
	.st10{fill:none;stroke:#231F20;stroke-linecap:round;stroke-linejoin:round;stroke-miterlimit:10;}
	.st11{fill:#424242;stroke:#231F20;stroke-linecap:round;stroke-linejoin:round;stroke-miterlimit:10;}
	.st12{fill:#FF8C56;stroke:#231F20;stroke-linecap:round;stroke-linejoin:round;stroke-miterlimit:10;}
	.st13{fill:#ADD676;stroke:#231F20;stroke-linecap:round;stroke-linejoin:round;stroke-miterlimit:10;}
	.st14{fill:#0082C8;stroke:#696992;stroke-linecap:round;stroke-linejoin:round;stroke-miterlimit:10;}
	.st15{fill:#EC6F39;stroke:#231F20;stroke-linecap:round;stroke-linejoin:round;stroke-miterlimit:10;}
	.st16{fill:none;stroke:#ECECEC;stroke-linecap:round;stroke-linejoin:round;stroke-miterlimit:10;}
	.st17{fill:none;stroke:#ECECEC;stroke-linecap:round;stroke-linejoin:round;}
	.st18{fill:none;stroke:#ECECEC;stroke-linecap:round;stroke-linejoin:round;stroke-dasharray:4.4484,1.7794;}
	.st19{fill:none;stroke:#ECECEC;stroke-linecap:round;stroke-linejoin:round;stroke-dasharray:5.0284,2.0114;}
	.st20{fill:none;stroke:#ECECEC;stroke-linecap:round;stroke-linejoin:round;stroke-dasharray:5.0585,2.0234;}
	.st21{fill:none;stroke:#ECECEC;stroke-linecap:round;stroke-linejoin:round;stroke-dasharray:5.0623,2.0249;}
	.st22{fill:none;stroke:#ECECEC;stroke-linecap:round;stroke-linejoin:round;stroke-dasharray:4.84,1.936;}
	.st23{fill:none;stroke:#ECECEC;stroke-linecap:round;stroke-linejoin:round;stroke-dasharray:4.206,1.6824;}
	.st24{fill:#F2F2F4;stroke:#6E6E6E;stroke-width:2;stroke-linecap:round;stroke-linejoin:round;stroke-miterlimit:10;}
	.st25{fill:#FFFFFF;stroke:#6E6E6E;stroke-width:2;stroke-miterlimit:10;}
	.st26{fill:#7E50FF;}
	.st27{fill:none;stroke:#7E50FF;stroke-width:2;stroke-miterlimit:10;}
	.st28{fill:none;stroke:#FFFFFF;stroke-miterlimit:10;}
	.st29{fill:#0082C8;}
	.st30{fill:none;stroke:#0082C8;stroke-width:2;stroke-miterlimit:10;}
	.st31{fill:#F2F2F4;enable-background:new    ;}
	.st32{fill:none;stroke:#696992;stroke-width:3;stroke-miterlimit:10;}
	.st33{clip-path:url(#SVGID_2_);}
	.st34{fill:none;stroke:#5C5C74;stroke-miterlimit:10;}
	.st35{fill:#FFFFFF;stroke:#5D5C74;stroke-miterlimit:10;}
	.st36{fill:#FBD7CE;}
	.st37{fill:#5C5C74;}
	.st38{fill:none;stroke:#7F7FBC;stroke-width:2;stroke-miterlimit:10;}
	.st39{fill:#FFFFFF;stroke:#696992;stroke-width:2;stroke-miterlimit:10;}
	.st40{fill:#FACAB8;}
	.st41{fill:#0082C8;stroke:#5C5C74;stroke-miterlimit:10;}
	.st42{fill:#EDEFF0;}
</style>
<g>
	<g>
		<g id="XMLID_442_">
			<path id="XMLID_446_" class="st0" d="M285.4,513.4h-19.7c-1.4,0-2.6,1.2-2.6,2.6v10.5c0,1.4,1.2,2.6,2.6,2.6h1.6
				c0,1.5-0.6,2.9-1.6,4c-0.5,0.5-0.1,1.3,0.5,1.4c4.1,0.4,6.8-2.5,6.8-5.3h12.3c1.4,0,2.6-1.2,2.6-2.6V516
				C288,514.6,286.8,513.4,285.4,513.4z"/>
			<line id="XMLID_445_" class="st1" x1="266.5" y1="517.9" x2="284.5" y2="517.9"/>
			<line id="XMLID_444_" class="st1" x1="266.5" y1="521.5" x2="284.5" y2="521.5"/>
			<line id="XMLID_443_" class="st1" x1="266.5" y1="525.1" x2="284.5" y2="525.1"/>
		</g>
		<g id="XMLID_469_">
			<path id="XMLID_473_" class="st2" d="M269.5,358h-19.7c-1.4,0-2.6,1.2-2.6,2.6v10.5c0,1.4,1.2,2.6,2.6,2.6h1.6
				c0,1.5-0.6,2.9-1.6,4c-0.5,0.5-0.1,1.3,0.5,1.4c4.1,0.4,6.8-2.5,6.8-5.3h12.3c1.4,0,2.6-1.2,2.6-2.6v-10.5
				C272.1,359.1,270.9,358,269.5,358z"/>
			<line id="XMLID_472_" class="st3" x1="250.6" y1="362.4" x2="268.6" y2="362.4"/>
			<line id="XMLID_471_" class="st3" x1="250.6" y1="366.1" x2="268.6" y2="366.1"/>
			<line id="XMLID_470_" class="st3" x1="250.6" y1="369.7" x2="268.6" y2="369.7"/>
		</g>
		<g>
			<path class="st4" d="M232,540.5c0,3.8-1.4,7.3-3.8,9.9c-2.7,3-6.6,4.9-11,4.9c-4.4,0-8.3-1.9-11-4.9c-2.4-2.6-3.8-6.1-3.8-9.9
				c0-8.2,6.6-14.8,14.8-14.8C225.4,525.7,232,532.3,232,540.5z"/>
			<g>
				<g id="XMLID_433_">
					<g id="XMLID_435_">
						<circle id="XMLID_441_" class="st5" cx="217.2" cy="537.4" r="8.3"/>
						<path id="XMLID_440_" class="st0" d="M217.2,529.1c-4.3,0-7.9,3.3-8.3,7.5h9.6c0.9,0,1.7-0.5,2.1-1.3l0.3-0.6l0.7,1
							c0.4,0.6,1.1,0.9,1.9,0.9h1.9C225.1,532.4,221.5,529.1,217.2,529.1z"/>
						<g id="XMLID_437_">
							<path id="XMLID_439_" class="st6" d="M220.1,539.9c0-0.8,0.7-1.5,1.5-1.5s1.5,0.7,1.5,1.5"/>
							<path id="XMLID_438_" class="st6" d="M211.3,539.9c0-0.8,0.7-1.5,1.5-1.5c0.8,0,1.5,0.7,1.5,1.5"/>
						</g>
						<path id="XMLID_436_" class="st6" d="M213.3,542.8c1.1,0.8,2.4,1.3,3.9,1.3c1.5,0,2.8-0.5,3.9-1.3"/>
					</g>
				</g>
				<path class="st0" d="M228.2,550.4c-2.7,3-6.6,4.9-11,4.9c-4.4,0-8.3-1.9-11-4.9c0.8-0.9,1.9-1.6,3.1-2l4.5-1.5
					c0.6-0.2,1.3,0,1.7,0.4l0.5,0.5c0.7,0.7,1.7,0.7,2.4,0l0.5-0.5c0.5-0.5,1.1-0.6,1.7-0.4l4.5,1.5
					C226.3,548.8,227.4,549.5,228.2,550.4z"/>
			</g>
		</g>
		<g>
			<path class="st7" d="M269.9,459.7c0,3.6-1.4,6.9-3.6,9.4c-2.6,2.9-6.3,4.7-10.4,4.7c-4.1,0-7.9-1.8-10.4-4.7
				c-2.2-2.5-3.6-5.8-3.6-9.4c0-7.8,6.3-14.1,14.1-14.1C263.6,445.6,269.9,451.9,269.9,459.7z"/>
			<g>
				<g id="XMLID_425_">
					<g id="XMLID_426_">
						<circle id="XMLID_432_" class="st8" cx="255.9" cy="456.7" r="7.9"/>
						<path id="XMLID_431_" class="st9" d="M255.9,448.8c-4.1,0-7.5,3.1-7.8,7.2h9.1c0.9,0,1.6-0.5,2-1.3l0.3-0.6l0.7,0.9
							c0.4,0.6,1.1,0.9,1.8,0.9h1.9C263.4,452,260,448.8,255.9,448.8z"/>
						<g id="XMLID_428_">
							<path id="XMLID_430_" class="st10" d="M258.7,459c0-0.8,0.6-1.4,1.4-1.4c0.8,0,1.4,0.6,1.4,1.4"/>
							<path id="XMLID_429_" class="st10" d="M250.2,459c0-0.8,0.6-1.4,1.4-1.4c0.8,0,1.4,0.6,1.4,1.4"/>
						</g>
						<path id="XMLID_427_" class="st10" d="M252.2,461.8c1,0.8,2.3,1.2,3.7,1.2c1.4,0,2.7-0.5,3.7-1.2"/>
					</g>
				</g>
				<path class="st11" d="M266.3,469.1c-2.6,2.9-6.3,4.7-10.4,4.7c-4.1,0-7.9-1.8-10.4-4.7c0.8-0.8,1.8-1.5,2.9-1.9l4.3-1.4
					c0.6-0.2,1.2,0,1.7,0.4l0.5,0.5c0.6,0.6,1.7,0.6,2.3,0l0.5-0.5c0.4-0.4,1.1-0.6,1.7-0.4l4.3,1.4
					C264.6,467.6,265.6,468.2,266.3,469.1z"/>
			</g>
		</g>
		<g>
			<path class="st7" d="M194.1,440.9c0,3.7-1.4,7.1-3.7,9.6c-2.6,2.9-6.4,4.8-10.7,4.8c-4.2,0-8.1-1.8-10.7-4.8
				c-2.3-2.5-3.7-5.9-3.7-9.6c0-7.9,6.4-14.4,14.4-14.4C187.7,426.5,194.1,433,194.1,440.9z"/>
			<g>
				<g id="XMLID_417_">
					<g id="XMLID_418_">
						<circle id="XMLID_424_" class="st8" cx="179.7" cy="437.9" r="8.1"/>
						<path id="XMLID_423_" class="st12" d="M179.7,429.8c-4.2,0-7.7,3.2-8,7.3h9.3c0.9,0,1.7-0.5,2-1.3l0.3-0.6l0.7,0.9
							c0.4,0.6,1.1,0.9,1.8,0.9h1.9C187.4,433.1,183.9,429.8,179.7,429.8z"/>
						<g id="XMLID_420_">
							<path id="XMLID_422_" class="st10" d="M182.6,440.3c0-0.8,0.7-1.5,1.5-1.5c0.8,0,1.5,0.7,1.5,1.5"/>
							<path id="XMLID_421_" class="st10" d="M174,440.3c0-0.8,0.7-1.5,1.5-1.5c0.8,0,1.5,0.7,1.5,1.5"/>
						</g>
						<path id="XMLID_419_" class="st10" d="M175.9,443.1c1.1,0.8,2.4,1.2,3.8,1.2c1.4,0,2.7-0.5,3.8-1.2"/>
					</g>
				</g>
				<path class="st13" d="M190.4,450.6c-2.6,2.9-6.4,4.8-10.7,4.8c-4.2,0-8.1-1.8-10.7-4.8c0.8-0.9,1.8-1.5,3-1.9l4.4-1.5
					c0.6-0.2,1.2,0,1.7,0.4l0.5,0.5c0.6,0.6,1.7,0.6,2.3,0l0.5-0.5c0.4-0.4,1.1-0.6,1.7-0.4l4.4,1.5
					C188.6,449,189.6,449.7,190.4,450.6z"/>
			</g>
		</g>
		<path id="XMLID_468_" class="st0" d="M313.5,394.8l1.1,2.2c0.3,0.7,1,1.2,1.8,1.3l2.5,0.4c1.9,0.3,2.7,2.6,1.3,4l-1.8,1.7
			c-0.6,0.5-0.8,1.3-0.7,2.1l0.4,2.5c0.3,1.9-1.7,3.4-3.4,2.5l-2.2-1.2c-0.7-0.4-1.5-0.4-2.2,0l-2.2,1.2c-1.7,0.9-3.7-0.6-3.4-2.5
			l0.4-2.5c0.1-0.8-0.1-1.5-0.7-2.1l-1.8-1.7c-1.4-1.4-0.6-3.7,1.3-4l2.5-0.4c0.8-0.1,1.4-0.6,1.8-1.3l1.1-2.2
			C310.1,393.1,312.6,393.1,313.5,394.8z"/>
		<path class="st14" d="M336,362.9c0-2.7-2.2-4.9-4.9-4.9c-1.6,0-3,0.8-3.9,2c-0.9-1.2-2.3-2-3.9-2c-2.7,0-4.9,2.2-4.9,4.9
			c0,0-0.7,5.2,8.9,11.1C336.7,368.1,336,362.9,336,362.9z"/>
		<path class="st15" d="M224.9,455c0-2.7-2.2-4.9-4.9-4.9c-1.6,0-3,0.8-3.9,2c-0.9-1.2-2.3-2-3.9-2c-2.7,0-4.9,2.2-4.9,4.9
			c0,0-0.7,5.2,8.9,11.1C225.6,460.2,224.9,455,224.9,455z"/>
		<g id="XMLID_479_">
			<line id="XMLID_481_" class="st16" x1="332.4" y1="382.7" x2="339.7" y2="390.1"/>
			<line id="XMLID_416_" class="st16" x1="339.7" y1="382.7" x2="332.4" y2="390.1"/>
		</g>
		<g id="XMLID_488_">
			<line id="XMLID_491_" class="st16" x1="202.5" y1="412.5" x2="209.9" y2="419.8"/>
			<line id="XMLID_490_" class="st16" x1="209.9" y1="412.5" x2="202.5" y2="419.8"/>
		</g>
		<circle id="XMLID_415_" class="st16" cx="190.2" cy="541.6" r="3.8"/>
		<circle id="XMLID_499_" class="st16" cx="336" cy="429.1" r="3.8"/>
		<circle id="XMLID_493_" class="st16" cx="259.6" cy="502.9" r="3.8"/>
		
			<rect id="XMLID_492_" x="244.6" y="528.3" transform="matrix(0.7071 0.7071 -0.7071 0.7071 448.6699 -19.6299)" class="st16" width="6.9" height="6.9"/>
		
			<rect id="XMLID_414_" x="190.3" y="509.5" transform="matrix(0.7071 0.7071 -0.7071 0.7071 419.4824 13.2309)" class="st16" width="6.9" height="6.9"/>
		
			<rect id="XMLID_498_" x="191.4" y="457.8" transform="matrix(0.7071 0.7071 -0.7071 0.7071 383.2805 -2.7137)" class="st16" width="6.9" height="6.9"/>
		
			<rect id="XMLID_484_" x="238.3" y="480.6" transform="matrix(0.7071 0.7071 -0.7071 0.7071 413.1397 -29.201)" class="st16" width="6.9" height="6.9"/>
		<circle id="XMLID_478_" class="st16" cx="297.1" cy="425.3" r="3.8"/>
		<circle id="XMLID_483_" class="st16" cx="250.2" cy="391.4" r="3.8"/>
		
			<rect id="XMLID_477_" x="281.7" y="457.8" transform="matrix(0.7071 0.7071 -0.7071 0.7071 409.73 -66.5684)" class="st16" width="6.9" height="6.9"/>
		
			<rect id="XMLID_476_" x="281.7" y="400.5" transform="matrix(0.7071 0.7071 -0.7071 0.7071 369.2036 -83.3562)" class="st16" width="6.9" height="6.9"/>
		<polyline id="XMLID_413_" class="st16" points="261.3,541.3 261.7,548.2 254.8,547.8 255.3,554.6 248.4,554.2 248.9,561 
			242,560.6 242.4,567.4 235.6,567 236,573.9 229.2,573.4 		"/>
		<polyline id="XMLID_502_" class="st16" points="341.7,480.6 342.1,487.4 335.3,487 335.7,493.8 328.8,493.4 329.3,500.3 
			322.4,499.8 322.8,506.7 316,506.2 316.4,513.1 309.6,512.7 		"/>
		<polyline id="XMLID_482_" class="st16" points="231.9,413.1 232.3,419.9 225.5,419.5 225.9,426.4 219.1,425.9 219.5,432.8 
			212.6,432.4 213.1,439.2 206.2,438.8 206.6,445.6 199.8,445.2 		"/>
		<polyline id="XMLID_412_" class="st16" points="185.1,472.2 185.5,479.1 178.7,478.6 179.1,485.5 172.3,485.1 172.7,491.9 
			165.8,491.5 166.3,498.3 159.4,497.9 159.9,504.7 153,504.3 		"/>
		<g id="XMLID_410_">
			<g>
				<line class="st17" x1="142.5" y1="495.5" x2="144.3" y2="493.8"/>
				<line class="st18" x1="145.5" y1="492.5" x2="162.5" y2="475.5"/>
				<line class="st17" x1="163.1" y1="474.9" x2="164.9" y2="473.1"/>
			</g>
		</g>
		<g id="XMLID_463_">
			<g>
				<line class="st17" x1="217" y1="400.1" x2="218.8" y2="398.3"/>
				<line class="st18" x1="220.1" y1="397.1" x2="237" y2="380.1"/>
				<line class="st17" x1="237.7" y1="379.5" x2="239.4" y2="377.7"/>
			</g>
		</g>
		<g id="XMLID_461_">
			<g>
				<line class="st17" x1="221.9" y1="405" x2="223.7" y2="403.3"/>
				<line class="st19" x1="225.1" y1="401.8" x2="234.4" y2="392.6"/>
				<line class="st17" x1="235.1" y1="391.9" x2="236.9" y2="390.1"/>
			</g>
		</g>
		<g id="XMLID_474_">
			<g>
				<line class="st17" x1="300.4" y1="444.4" x2="302.2" y2="442.6"/>
				<line class="st20" x1="303.6" y1="441.2" x2="327.9" y2="416.8"/>
				<line class="st17" x1="328.6" y1="416.1" x2="330.4" y2="414.4"/>
			</g>
		</g>
		<g id="XMLID_406_">
			<g>
				<line class="st17" x1="305.8" y1="452.6" x2="307.6" y2="450.9"/>
				<line class="st21" x1="309" y1="449.4" x2="323.4" y2="435.1"/>
				<line class="st17" x1="324.1" y1="434.4" x2="325.8" y2="432.6"/>
			</g>
		</g>
		<g id="XMLID_400_">
			<g>
				<line class="st17" x1="180.2" y1="501.7" x2="181.9" y2="499.9"/>
				<line class="st21" x1="183.4" y1="498.5" x2="197.7" y2="484.2"/>
				<line class="st17" x1="198.4" y1="483.4" x2="200.2" y2="481.7"/>
			</g>
		</g>
		<g id="XMLID_500_">
			<g>
				<line class="st17" x1="256.3" y1="490" x2="258.1" y2="488.2"/>
				<line class="st21" x1="259.5" y1="486.8" x2="273.8" y2="472.4"/>
				<line class="st17" x1="274.6" y1="471.7" x2="276.3" y2="470"/>
			</g>
		</g>
		<g id="XMLID_485_">
			<g>
				<line class="st17" x1="235.1" y1="446.8" x2="236.8" y2="445"/>
				<line class="st21" x1="238.3" y1="443.6" x2="252.6" y2="429.3"/>
				<line class="st17" x1="253.3" y1="428.6" x2="255.1" y2="426.8"/>
			</g>
		</g>
		<g id="XMLID_487_">
			<g>
				<line class="st17" x1="227.5" y1="441.3" x2="229.3" y2="439.5"/>
				<line class="st22" x1="230.6" y1="438.1" x2="239.5" y2="429.2"/>
				<line class="st17" x1="240.2" y1="428.6" x2="242" y2="426.8"/>
			</g>
		</g>
		<polyline id="XMLID_460_" class="st16" points="295.4,361.9 295.9,368.7 289,368.3 289.4,375.2 282.6,374.7 283,381.6 
			276.2,381.1 276.6,388 269.7,387.6 270.2,394.4 263.3,394 		"/>
		<g id="XMLID_455_">
			<g>
				<line class="st17" x1="290.5" y1="391.4" x2="292.2" y2="389.6"/>
				<line class="st21" x1="293.7" y1="388.2" x2="308" y2="373.8"/>
				<line class="st17" x1="308.7" y1="373.1" x2="310.5" y2="371.4"/>
			</g>
		</g>
		<g id="XMLID_372_">
			<g>
				<line class="st17" x1="117.3" y1="570.3" x2="119" y2="568.5"/>
				<line class="st20" x1="120.5" y1="567.1" x2="144.8" y2="542.8"/>
				<line class="st17" x1="145.5" y1="542.1" x2="147.3" y2="540.3"/>
			</g>
		</g>
		<g id="XMLID_494_">
			<g>
				<line class="st17" x1="294.9" y1="510.3" x2="296.6" y2="508.5"/>
				<line class="st23" x1="297.8" y1="507.3" x2="309.7" y2="495.4"/>
				<line class="st17" x1="310.3" y1="494.8" x2="312.1" y2="493"/>
			</g>
		</g>
		<g id="XMLID_451_">
			<path id="XMLID_295_" class="st7" d="M270.1,420.6h-28.4c-1.1,0-2-0.9-2-2V403c0-1.1,0.9-2,2-2h28.4c1.1,0,2,0.9,2,2v15.7
				C272.1,419.8,271.2,420.6,270.1,420.6z"/>
			<rect id="XMLID_454_" x="239.7" y="405.5" class="st2" width="32.4" height="2.9"/>
			<g id="XMLID_453_">
				<rect x="241.4" y="415.2" class="st7" width="10.1" height="1.4"/>
			</g>
			<g id="XMLID_452_">
				<rect x="253.9" y="415.2" class="st7" width="10.1" height="1.4"/>
			</g>
		</g>
	</g>
	<g>
		<path id="XMLID_299_" class="st24" d="M289.6,505H1c-5.5,0-10.8-2.3-14.5-6.3l-0.5-0.5v-8.3h318.5v8.3l-0.5,0.5
			C300.3,502.7,295.1,505,289.6,505z"/>
		<rect id="XMLID_298_" x="-13.9" y="489.9" class="st24" width="318.5" height="8.3"/>
		<path id="XMLID_297_" class="st24" d="M145.3,494.4h25.3c3.1,0,6-0.8,8.2-2.3l3.2-2.2h-36.7h-36.7l3.2,2.2
			c2.1,1.5,5.1,2.3,8.2,2.3H145.3z"/>
		<path id="XMLID_296_" class="st24" d="M280.3,489.9h-270V331.3c0-2.3,1.8-4.1,4.1-4.1h261.8c2.3,0,4.1,1.8,4.1,4.1V489.9z"/>
		<rect id="XMLID_294_" x="20.2" y="337.1" class="st25" width="250.3" height="142.8"/>
		<g>
			<g>
				<path class="st26" d="M220.4,384.5h-57.9v-18.4c0-4.4,3.6-8,8-8h49.9c4.4,0,8,3.6,8,8v10.4C228.4,380.9,224.8,384.5,220.4,384.5
					z"/>
				<circle class="st27" cx="248" cy="371.3" r="8.2"/>
				<line class="st28" x1="174.9" y1="367.9" x2="212.8" y2="367.9"/>
				<line class="st28" x1="174.9" y1="372.2" x2="205.7" y2="372.2"/>
				<line class="st28" x1="174.9" y1="376.4" x2="190.9" y2="376.4"/>
			</g>
			<g>
				<path class="st26" d="M220.4,458.5h-57.9v-18.4c0-4.4,3.6-8,8-8h49.9c4.4,0,8,3.6,8,8v10.4C228.4,454.9,224.8,458.5,220.4,458.5
					z"/>
				<circle class="st27" cx="248" cy="445.3" r="8.2"/>
				<line class="st28" x1="174.9" y1="441.9" x2="212.8" y2="441.9"/>
				<line class="st28" x1="174.9" y1="446.2" x2="205.7" y2="446.2"/>
				<line class="st28" x1="174.9" y1="450.4" x2="190.9" y2="450.4"/>
			</g>
			<g>
				<path class="st29" d="M106.8,422.8h57.9v-18.4c0-4.4-3.6-8-8-8h-49.9c-4.4,0-8,3.6-8,8v10.4C98.7,419.2,102.3,422.8,106.8,422.8
					z"/>
				<circle class="st30" cx="79.1" cy="409.6" r="8.2"/>
				<line class="st28" x1="152.2" y1="406.2" x2="114.4" y2="406.2"/>
				<line class="st28" x1="152.2" y1="410.5" x2="121.4" y2="410.5"/>
				<line class="st28" x1="152.2" y1="414.7" x2="136.3" y2="414.7"/>
			</g>
		</g>
		<rect x="21.1" y="338.1" class="st26" width="43" height="140.8"/>
		<g>
			<circle id="XMLID_1138_" class="st31" cx="34.1" cy="327.6" r="57"/>
			<circle id="XMLID_382_" class="st32" cx="34.1" cy="327.6" r="57"/>
			<g id="XMLID_1137_">
				<g>
					<g>
						<g>
							<defs>
								<circle id="SVGID_1_" cx="34.5" cy="335" r="49"/>
							</defs>
							<clipPath id="SVGID_2_">
								<use xlink:href="#SVGID_1_"  style="overflow:visible;"/>
							</clipPath>
							<g id="XMLID_1120_" class="st33">
								<path id="XMLID_1068_" class="st26" d="M67.1,342.3c7.6,23.8-3.6,41.8-32.9,41.8c-30.9,0-39.9-18-32.6-41.8
									c4.6-15,2.8-31.4,7.5-38.8c6.7-10.6,12.8-14.7,25-14.7c11.6,0,18.9,3.7,23.7,14C61.7,311,62.1,326.9,67.1,342.3z"/>
								<path id="XMLID_1065_" class="st34" d="M33.9,288.7c-11.6,0-17.8,3.7-24.7,14.5c-2.5,3.9-3.1,10.3-3.9,17.8
									c-0.7,6.5-1.4,14-3.6,21c-3.9,12.5-3,22.9,2.3,30c5.5,7.5,15.6,11.2,29.9,11.2c14,0,24.3-4.1,30-11.9
									c5.4-7.4,6.3-17.6,2.5-29.4c-2.4-7.6-3.8-15.4-5-22.2c-1.2-7.1-2.3-13.2-4.3-17.4C52.8,292.8,45.8,288.7,33.9,288.7z"/>
								<path id="XMLID_1064_" class="st35" d="M-7.7,397.9c0-17.5,18.9-31.7,42.1-31.7s42.1,14.2,42.1,31.7"/>
								<path id="XMLID_1063_" class="st36" d="M43.9,318c-9,0-16.8-3.7-20.6-9c-1.5,6.1-5.7,10.5-10.8,11.2c0,5.6,0,14.6,0,19.5
									c0,7.5,4.7,16.9,12.1,21.6v7.5c0,4.2,2.6,10.1,9.6,10.1c6.7,0,9.8-5.9,9.8-10.1v-7c7.9-4.5,12.1-14.3,12.1-22.1
									c0-7.5,0-24.6,0-24.6c0-0.1,0-0.1,0-0.2C54.8,317.3,51.6,318,43.9,318z"/>
								<path id="XMLID_1060_" class="st37" d="M34.1,379c-7.4,0-10-6.3-10-10.5v-7.4c-7-4.6-12.1-13.7-12.1-21.8v-19.5
									c0-0.2,0.2-0.3,0.3-0.4c4.9-0.6,9-4.8,10.5-10.8c0.1-0.2,0.2-0.3,0.3-0.3c0.2,0,0.3,0.1,0.4,0.2c3.9,5.5,11.6,8.8,20.2,8.8
									c7.9,0,10.6-0.7,11.8-2.9c0.1-0.2,0.3-0.2,0.5-0.2c0.2,0.1,0.3,0.2,0.3,0.4v0.2v24.6c0,7.4-3.8,17.5-12.1,22.4v6.7
									C44.3,372.8,41.2,379,34.1,379z M12.8,320.1v19.2c0,7.9,5,16.8,11.9,21.3c0.1,0.1,0.2,0.2,0.2,0.3v7.5
									c0,3.9,2.5,9.6,9.2,9.6c6.4,0,9.4-5.6,9.4-9.6v-7c0-0.1,0.1-0.3,0.2-0.3c7.9-4.5,11.9-14.4,11.9-21.8v-23.5
									c-1.9,1.9-5.5,2.3-11.7,2.3c-8.6,0-16.3-3.2-20.5-8.5C21.7,315.3,17.7,319.4,12.8,320.1z"/>
								<g id="XMLID_1058_">
									<path id="XMLID_1059_" class="st37" d="M38.7,347.3c0,0-1.9,2.2-4.3,2.2c-2.3,0-4.3-2.2-4.3-2.2s1.9,0.3,4.3,0.3
										C36.9,347.6,38.7,347.3,38.7,347.3z"/>
								</g>
								<g id="XMLID_1035_">
									<path id="XMLID_1057_" class="st37" d="M34.7,341.5L34.7,341.5c-0.7,0-1.3-0.3-1.7-0.8c-0.2-0.3-0.3-0.8-0.2-1.2l0.4,0.1
										c-0.1,0.3-0.1,0.6,0.1,0.9c0.2,0.3,0.7,0.6,1.2,0.6c0.6,0,1.2-0.2,1.4-0.6c0.2-0.3,0.2-0.6,0.1-1l0.3-0.2
										c0.2,0.6,0.1,1-0.1,1.3C36.1,341.1,35.4,341.5,34.7,341.5z"/>
								</g>
								<g id="XMLID_1033_">
									<path id="XMLID_1034_" class="st37" d="M19.1,328.7c-0.2,0-0.4-0.1-0.6-0.2c-0.3-0.3-0.3-0.8-0.1-1.2
										c1-1.1,2.5-1.7,3.9-1.6c1.2,0.1,2.2,0.7,2.8,1.7c0.2,0.4,0.1,0.9-0.2,1.2c-0.4,0.2-0.9,0.1-1.2-0.2
										c-0.3-0.5-0.8-0.8-1.5-0.9c-0.9-0.1-1.9,0.3-2.5,1C19.5,328.6,19.3,328.7,19.1,328.7z"/>
								</g>
								<g id="XMLID_1029_">
									<path id="XMLID_1031_" class="st37" d="M50.5,328.7c-0.2,0-0.4-0.1-0.6-0.2c-0.7-0.7-1.7-1.1-2.7-1c-0.8,0.1-1.5,0.4-1.9,1
										c-0.3,0.3-0.8,0.4-1.2,0.2c-0.3-0.3-0.4-0.8-0.2-1.2c0.7-1,1.9-1.5,3.2-1.6c1.5-0.1,3,0.5,4,1.6c0.3,0.3,0.3,0.9,0,1.2
										C50.9,328.6,50.7,328.7,50.5,328.7z"/>
								</g>
							</g>
						</g>
					</g>
				</g>
			</g>
			<g id="XMLID_1140_">
				<line id="XMLID_1141_" class="st38" x1="-3.1" y1="281.1" x2="-5.3" y2="278.1"/>
				<line id="XMLID_1142_" class="st38" x1="-6.4" y1="276.7" x2="-8.6" y2="273.6"/>
				<line id="XMLID_1143_" class="st38" x1="-9.6" y1="272.3" x2="-11.8" y2="269.2"/>
				<line id="XMLID_1144_" class="st38" x1="-12.8" y1="267.9" x2="-15.1" y2="264.8"/>
				<line id="XMLID_1145_" class="st38" x1="-16.1" y1="263.4" x2="-18.4" y2="260.4"/>
				<line id="XMLID_1146_" class="st38" x1="-19.4" y1="259" x2="-21.6" y2="255.9"/>
				<line id="XMLID_1147_" class="st38" x1="-22.6" y1="254.6" x2="-24.9" y2="251.5"/>
				<path id="XMLID_371_" class="st38" d="M-25.9,250.2"/>
			</g>
			<g id="XMLID_361_">
				<path id="XMLID_370_" class="st38" d="M-24.1,396.5"/>
				<line id="XMLID_369_" class="st38" x1="-23" y1="395.3" x2="-20.3" y2="392.5"/>
				<line id="XMLID_368_" class="st38" x1="-19.1" y1="391.3" x2="-16.5" y2="388.5"/>
				<line id="XMLID_366_" class="st38" x1="-15.4" y1="387.4" x2="-12.7" y2="384.5"/>
				<line id="XMLID_364_" class="st38" x1="-11.5" y1="383.4" x2="-8.9" y2="380.5"/>
				<line id="XMLID_363_" class="st38" x1="-7.7" y1="379.4" x2="-5.1" y2="376.6"/>
				<path id="XMLID_362_" class="st38" d="M-4,375.4"/>
			</g>
			<g id="XMLID_353_">
				<path id="XMLID_360_" class="st38" d="M81.8,288.8"/>
				<line id="XMLID_359_" class="st38" x1="83.1" y1="287.7" x2="86.1" y2="285.3"/>
				<line id="XMLID_358_" class="st38" x1="87.3" y1="284.3" x2="90.3" y2="281.8"/>
				<line id="XMLID_357_" class="st38" x1="91.6" y1="280.7" x2="94.5" y2="278.3"/>
				<line id="XMLID_356_" class="st38" x1="95.8" y1="277.2" x2="98.7" y2="274.8"/>
				<line id="XMLID_355_" class="st38" x1="100" y1="273.8" x2="103" y2="271.4"/>
				<path id="XMLID_354_" class="st38" d="M104.3,270.3"/>
			</g>
			<circle id="XMLID_352_" class="st39" cx="118.6" cy="256.8" r="17.6"/>
			<g id="XMLID_347_">
				<g id="XMLID_350_">
					<path id="XMLID_351_" class="st40" d="M112.4,257.7c0,0.9-0.6,1.6-1.3,1.6s-1.3-0.7-1.3-1.6c0-0.9,0.6-1.3,1.3-1.3
						S112.4,256.8,112.4,257.7z"/>
				</g>
				<g id="XMLID_348_">
					<path id="XMLID_349_" class="st37" d="M111.1,259.5c-0.8,0-1.4-0.8-1.4-1.8c0-1,0.6-1.5,1.4-1.5c0.8,0,1.4,0.6,1.4,1.5
						C112.6,258.6,112,259.5,111.1,259.5z M111.1,256.6c-0.6,0-1,0.4-1,1.1c0,0.8,0.5,1.4,1,1.4s1-0.6,1-1.4
						C112.2,257,111.8,256.6,111.1,256.6z"/>
				</g>
			</g>
			<g id="XMLID_345_">
				<path id="XMLID_346_" class="st36" d="M115.8,266.6c-2.2-0.8-3.2-3-4-6.3c-0.5-1.9-0.7-3.1-0.7-5.4c0-5.5,2.9-7.6,7.4-7.6
					s7.6,1.2,7.6,6.7c0,8.3-2.7,13.2-7.6,13.2"/>
			</g>
			<g id="XMLID_343_">
				<path id="XMLID_344_" class="st37" d="M118.5,267.5c-0.1,0-0.2-0.1-0.2-0.2c0-0.1,0.1-0.2,0.2-0.2c4.7,0,7.4-4.7,7.4-12.9
					c0-5.4-3-6.5-7.4-6.5c-2.3,0-4.1,0.6-5.3,1.7c-1.3,1.2-1.9,3.1-1.9,5.7c0,2.3,0.2,3.6,0.7,5.4c1.1,4.3,2.3,5.5,3.9,6.1
					c0.1,0.1,0.2,0.2,0.1,0.2c-0.1,0.1-0.2,0.2-0.2,0.1c-2.3-0.8-3.3-3-4.1-6.3c-0.5-1.9-0.7-3-0.7-5.5c0-5.2,2.5-7.8,7.6-7.8
					c4.1,0,7.9,0.8,7.9,6.9C126.4,262.6,123.5,267.5,118.5,267.5z"/>
			</g>
			<g id="XMLID_341_">
				<path id="XMLID_342_" class="st37" d="M118.6,260.1c-0.1,0-0.2,0-0.2,0c-0.6-0.1-0.8-0.6-0.8-0.6c-0.1-0.1,0-0.2,0.1-0.3
					c0.1-0.1,0.2,0,0.3,0.1c0,0,0.2,0.3,0.5,0.3c0.3,0.1,0.6,0,0.7-0.2c0.1-0.1,0.1-0.3,0-0.5c-0.3-0.5-0.8-2.2-0.6-2.7
					c0-0.1,0.1-0.2,0.2-0.1c0.1,0,0.2,0.1,0.1,0.2c-0.1,0.4,0.3,1.9,0.6,2.4c0.2,0.3,0.2,0.6,0,0.9C119.3,260,119,260.1,118.6,260.1
					z"/>
			</g>
			<g id="XMLID_339_">
				<path id="XMLID_340_" class="st37" d="M114.5,256.4c-0.1,0-0.1,0-0.1-0.1c-0.1-0.1-0.1-0.2,0-0.3c0.3-0.3,0.6-0.4,1-0.4
					c0.3,0,0.6,0.2,0.7,0.4c0.1,0.1,0.1,0.2-0.1,0.3c-0.1,0.1-0.2,0.1-0.3-0.1c-0.1-0.1-0.2-0.2-0.4-0.2c-0.2,0-0.5,0.1-0.6,0.3
					C114.6,256.4,114.6,256.4,114.5,256.4z"/>
			</g>
			<g id="XMLID_337_">
				<path id="XMLID_338_" class="st37" d="M122.6,256.4c-0.1,0-0.1,0-0.1-0.1c-0.2-0.2-0.5-0.3-0.7-0.3s-0.4,0.1-0.6,0.2
					c-0.1,0.1-0.2,0.1-0.3,0.1c-0.1-0.1-0.1-0.2-0.1-0.3c0.2-0.2,0.5-0.4,0.8-0.4c0.3,0,0.8,0.1,1,0.4c0.1,0.1,0.1,0.2,0,0.3
					C122.6,256.4,122.6,256.4,122.6,256.4z"/>
			</g>
			<g id="XMLID_335_">
				<path id="XMLID_336_" class="st37" d="M118.5,262.8c-0.6,0-1-0.2-1.2-0.6c-0.1-0.1-0.1-0.2,0.1-0.3c0.1-0.1,0.2-0.1,0.3,0.1
					c0.2,0.2,0.6,0.3,1,0.3c0.5,0,0.9-0.2,1-0.5c0.1-0.1,0.2-0.1,0.3-0.1c0.1,0.1,0.1,0.2,0.1,0.3c-0.2,0.3-0.8,0.6-1.4,0.6
					C118.5,262.8,118.5,262.8,118.5,262.8z"/>
			</g>
			<g id="XMLID_330_">
				<g id="XMLID_333_">
					<path id="XMLID_334_" class="st40" d="M125.5,259.7c1,0.1,1.9-1,1.9-1.9c0.1-1-0.9-1.3-1.6-1.2"/>
				</g>
				<g id="XMLID_331_">
					<path id="XMLID_332_" class="st37" d="M125.6,259.9c-0.1,0-0.1,0-0.1,0c-0.1,0-0.2-0.1-0.2-0.2c0-0.1,0.1-0.2,0.2-0.2
						c0.5,0.1,0.8-0.2,1-0.3c0.3-0.3,0.6-0.8,0.6-1.4c0-0.3-0.1-0.6-0.2-0.7c-0.2-0.2-0.7-0.3-1.1-0.3c-0.1,0-0.2-0.1-0.2-0.2
						s0.1-0.2,0.2-0.2c0.6-0.1,1.1,0.1,1.4,0.4c0.3,0.2,0.4,0.6,0.4,1c-0.1,0.6-0.3,1.2-0.8,1.7C126.4,259.8,126,259.9,125.6,259.9z
						"/>
				</g>
			</g>
			<path id="XMLID_329_" class="st41" d="M125.9,256.7c1-3.2,1-5.9,0.6-8.6c-0.3-1.4-0.9-2.5-0.9-2.5c-1.4,0.3-1.8-0.6-5.6-1
				c-2.7-0.3-4,0.5-4.5,1c0,0-0.9-0.4-2.6,0.3c-1.7,0.7-3,2.6-2.1,8.5c0.3,2.3,1,4.5,1,4.5s-0.3-4.7,0.3-6.5
				c0.1-0.1,0.1-0.2,0.1-0.2l0.3-0.6c1-1.2,2.9-1.4,3.6-0.6c0.8,0.8,2.3,0.7,2.3,0.7s1.4,0.1,2.3-0.7c0.8-0.8,3.4-0.4,4.1,1.4
				s0.3,6.5,0.3,6.5S125.7,258,125.9,256.7z"/>
			<circle id="XMLID_328_" class="st39" cx="-34.1" cy="238.2" r="18"/>
			<circle id="XMLID_588_" class="st39" cx="-34.1" cy="404.8" r="18"/>
			<g id="XMLID_9_">
				<g id="XMLID_326_">
					<path id="XMLID_327_" class="st36" d="M-37.2,250.8c-2.8-1-3.9-3.8-5-7.6c-0.6-2.3-0.8-3.9-0.8-6.7c0-6.7,3.5-9.3,9.2-9.3
						c5.6,0,9.4,1.4,9.4,8.3c0,10.2-3.4,16.2-9.4,16.2"/>
				</g>
				<g id="XMLID_324_">
					<path id="XMLID_325_" class="st37" d="M-33.9,251.9c-0.1,0-0.2-0.1-0.2-0.2c0-0.1,0.1-0.2,0.2-0.2c5.8,0,9.2-5.9,9.2-15.9
						c0-6.7-3.7-8-9.2-8c-2.9,0-5,0.6-6.5,2.1c-1.6,1.4-2.3,3.9-2.3,7c0,2.9,0.3,4.4,0.8,6.6c1.4,5.4,2.9,6.8,4.8,7.5
						c0.1,0.1,0.2,0.2,0.2,0.3c-0.1,0.1-0.2,0.2-0.3,0.2c-2.8-1-4-3.7-5.1-7.9c-0.6-2.2-0.9-3.8-0.9-6.7c0-6.4,3-9.5,9.4-9.5
						c5,0,9.6,1,9.6,8.5C-24.3,245.8-27.8,251.9-33.9,251.9z"/>
				</g>
				<g id="XMLID_322_">
					<path id="XMLID_323_" class="st37" d="M-33.8,242.9c-0.1,0-0.2,0-0.3,0c-0.6-0.1-1-0.6-1-0.6c-0.1-0.1,0-0.3,0.1-0.3
						c0.1-0.1,0.3,0,0.3,0.1c0,0,0.2,0.3,0.6,0.4c0.4,0.1,0.8-0.1,0.9-0.2c0.1-0.2,0.1-0.3-0.1-0.6c-0.3-0.6-1-2.6-0.8-3.4
						c0.1-0.1,0.2-0.2,0.3-0.2c0.1,0.1,0.2,0.2,0.2,0.3c-0.1,0.5,0.4,2.3,0.8,3c0.2,0.3,0.2,0.8,0,1.1
						C-32.9,242.7-33.2,242.9-33.8,242.9z"/>
				</g>
				<g id="XMLID_320_">
					<path id="XMLID_321_" class="st37" d="M-38.8,238.2c-0.1,0-0.1,0-0.2-0.1c-0.1-0.1-0.1-0.2,0-0.3c0.3-0.3,0.8-0.6,1.2-0.5
						c0.3,0.1,0.6,0.2,0.9,0.6c0.1,0.1,0.1,0.3-0.1,0.3c-0.1,0.1-0.3,0.1-0.3-0.1c-0.1-0.2-0.3-0.2-0.5-0.3c-0.3,0-0.6,0.1-0.8,0.3
						C-38.7,238.2-38.7,238.2-38.8,238.2z"/>
				</g>
				<g id="XMLID_318_">
					<path id="XMLID_319_" class="st37" d="M-29,238.2c-0.1,0-0.1,0-0.2-0.1c-0.2-0.2-0.6-0.3-0.9-0.3c-0.2,0-0.5,0.1-0.6,0.3
						c-0.1,0.1-0.2,0.1-0.3,0.1c-0.1-0.1-0.1-0.2-0.1-0.3c0.2-0.3,0.6-0.5,1-0.5c0.5,0,1,0.2,1.2,0.5c0.1,0.1,0.1,0.2,0,0.3
						C-28.8,238.2-28.9,238.2-29,238.2z"/>
				</g>
				<g id="XMLID_316_">
					<path id="XMLID_317_" class="st37" d="M-34,246c-0.6,0-1.2-0.2-1.4-0.6c-0.1-0.1-0.1-0.3,0.1-0.3c0.1-0.1,0.3-0.1,0.3,0.1
						c0.2,0.3,0.6,0.4,1.1,0.4c0.6,0,1-0.2,1.2-0.6c0.1-0.1,0.2-0.2,0.3-0.1c0.1,0.1,0.2,0.2,0.1,0.3c-0.2,0.5-1,0.8-1.7,0.8
						C-33.9,246-34,246-34,246z"/>
				</g>
				<g id="XMLID_311_">
					<g id="XMLID_314_">
						<path id="XMLID_315_" class="st40" d="M-42.2,242.4c-1.3-0.1-2.1-1.4-1.9-2.5s1.3-1.4,2.2-1.2"/>
					</g>
					<g id="XMLID_312_">
						<path id="XMLID_313_" class="st37" d="M-42.2,242.6L-42.2,242.6c-0.6-0.1-1.2-0.3-1.6-0.8c-0.5-0.6-0.7-1.3-0.6-2
							c0.1-0.5,0.3-0.9,0.6-1.1c0.5-0.3,1.2-0.4,1.9-0.2c0.1,0.1,0.2,0.2,0.2,0.3c-0.1,0.1-0.2,0.2-0.3,0.2c-0.5-0.1-1-0.1-1.4,0.2
							c-0.2,0.2-0.4,0.4-0.5,0.8c-0.1,0.6,0.1,1.2,0.5,1.7c0.2,0.3,0.6,0.6,1.2,0.6c0.1,0,0.2,0.1,0.2,0.3
							C-41.9,242.6-42,242.6-42.2,242.6z"/>
					</g>
				</g>
				<g id="XMLID_306_">
					<g id="XMLID_309_">
						<path id="XMLID_310_" class="st40" d="M-25.4,242.3c1.4,0.1,2.2-1.2,2.3-2.3c0.1-1.1-1-1.6-1.9-1.4"/>
					</g>
					<g id="XMLID_307_">
						<path id="XMLID_308_" class="st37" d="M-25.2,242.6c-0.1,0-0.1,0-0.2,0c-0.1,0-0.2-0.1-0.2-0.3s0.1-0.2,0.3-0.2
							c0.6,0.1,1-0.2,1.2-0.4c0.5-0.4,0.8-1,0.8-1.7c0-0.3-0.1-0.6-0.3-0.8c-0.3-0.3-0.8-0.4-1.4-0.3c-0.1,0-0.2-0.1-0.3-0.2
							c0-0.1,0.1-0.2,0.2-0.3c0.6-0.1,1.4,0.1,1.8,0.6c0.3,0.3,0.5,0.8,0.5,1.2c-0.1,0.8-0.4,1.5-1,2
							C-24.2,242.4-24.7,242.6-25.2,242.6z"/>
					</g>
				</g>
				<g id="XMLID_304_">
					<path id="XMLID_305_" class="st26" d="M-40.2,230.8c1.3,1.4,3.6,3.2,9,3.6c2.4,0.2,4.1-0.2,4.9,0.8c1.1,1.4,1.3,3.4,1.2,4.7
						c-0.1,0.6,1.9-1.8,1.9-1.8c-0.8-1.2,0.8-3.9,0.3-7.5c-0.2-1.5-3.3-4.8-7.7-5.9c-5.5-1.4-8.5,1.3-9.9,2.6c-1.1,1-2.6,0.6-3.8,3
						c-1,2.2,0.7,6.3,0.4,7.6c-0.1,0.6,0.4,0.4,1.6,1.9c0.5,0.6,0.6-1.8,0.6-3.1C-41.6,235.3-40.2,230.8-40.2,230.8z"/>
				</g>
				<g id="XMLID_302_">
					<path id="XMLID_303_" class="st37" d="M-25.1,240.2c-0.1,0-0.2-0.1-0.2-0.1c-0.1-0.1-0.1-0.1-0.1-0.2c0.1-1,0-3.1-1.1-4.5
						c-0.6-0.6-1.4-0.6-2.9-0.6c-0.6,0-1.1,0-1.9-0.1c-5.1-0.3-7.5-2-8.8-3.4c-0.3,1.1-1.3,4.3-1.4,5.4c0,0.2-0.1,0.6-0.1,0.8
						c-0.1,2-0.2,2.7-0.7,2.7l0,0c-0.1,0-0.2-0.1-0.3-0.2c-0.6-0.6-0.9-1-1.2-1.2c-0.3-0.2-0.6-0.5-0.5-0.9c0.1-0.4-0.1-1.3-0.3-2.2
						c-0.3-1.8-0.8-3.9-0.1-5.4c0.8-1.7,1.8-2.1,2.6-2.3c0.4-0.2,0.9-0.3,1.2-0.7c1-1,3.4-3,7.1-3c1,0,2,0.1,3,0.4
						c1.9,0.6,3.9,1.5,5.5,2.9c1.4,1.2,2.2,2.4,2.3,3.3c0.2,1.9-0.1,3.5-0.3,4.9c-0.2,1.1-0.4,2.1-0.1,2.5c0.1,0.1,0.1,0.2,0,0.3
						C-24.7,240.2-25,240.2-25.1,240.2z M-33.6,224.6c-3.6,0-5.8,2-6.8,3c-0.4,0.4-1,0.6-1.4,0.8c-0.8,0.3-1.7,0.6-2.3,2.1
						c-0.6,1.3-0.2,3.4,0.2,5.1c0.2,1,0.4,1.9,0.3,2.5c-0.1,0.2-0.1,0.2,0.3,0.4c0.2,0.2,0.6,0.6,1.1,1.1c0.1-0.4,0.2-1.4,0.2-2.1
						c0-0.3,0.1-0.6,0.1-0.8c0.1-1.4,1.4-5.7,1.5-5.9c0-0.1,0.1-0.2,0.2-0.2s0.2,0,0.2,0.1c1.2,1.4,3.4,3.2,8.7,3.5
						c0.6,0.1,1.2,0.1,1.8,0.1c1.5,0,2.6,0,3.3,0.8c1.1,1.3,1.3,3.2,1.2,4.4c0.3-0.3,0.8-0.9,1.3-1.4c-0.3-0.6-0.1-1.6,0.1-2.7
						c0.2-1.3,0.6-2.9,0.3-4.7c-0.2-1.4-3.2-4.7-7.5-5.7C-31.7,224.7-32.7,224.6-33.6,224.6z"/>
				</g>
				<g id="XMLID_300_">
					<path id="XMLID_301_" class="st37" d="M-39.4,229.6c0,0,0.1,0.1,0.1,0.1s0.1,0.1,0.2,0.1c0.1,0.1,0.1,0.1,0.2,0.2
						c0.1,0.1,0.2,0.1,0.2,0.2c0.1,0.1,0.2,0.1,0.3,0.2s0.2,0.1,0.3,0.2c0.1,0.1,0.2,0.2,0.3,0.2c0.1,0.1,0.2,0.1,0.3,0.2
						c0.1,0.1,0.2,0.1,0.3,0.2c0.1,0.1,0.2,0.1,0.3,0.2c0.1,0.1,0.2,0.1,0.2,0.2c0.1,0.1,0.2,0.1,0.2,0.1c0.1,0.1,0.1,0.1,0.2,0.1
						c0.1,0.1,0.2,0.1,0.2,0.1s-0.1,0-0.2,0c-0.1,0-0.1,0-0.2,0c-0.1,0-0.2,0-0.3-0.1c-0.1,0-0.2-0.1-0.3-0.1
						c-0.1-0.1-0.2-0.1-0.3-0.1c-0.1-0.1-0.2-0.1-0.3-0.2s-0.2-0.2-0.3-0.2c-0.1-0.1-0.2-0.2-0.3-0.2c-0.1-0.1-0.2-0.2-0.3-0.3
						c-0.1-0.1-0.2-0.2-0.2-0.3s-0.1-0.2-0.2-0.3c-0.1-0.1-0.1-0.2-0.1-0.2c-0.1-0.1-0.1-0.1-0.1-0.2
						C-39.4,229.6-39.4,229.6-39.4,229.6z"/>
				</g>
			</g>
			<g id="XMLID_402_">
				<g id="XMLID_408_">
					<path id="XMLID_409_" class="st42" d="M-23.8,405.9c0,1-0.6,1.9-1.4,1.9c-0.8,0-1.8-0.8-1.8-1.9c0-1,1-1.9,1.8-1.9
						C-24.5,404-23.8,404.9-23.8,405.9z"/>
				</g>
				<g id="XMLID_403_">
					<path id="XMLID_404_" class="st37" d="M-25.3,408c-1,0-2-0.9-2-2.1c0-1.2,1-2.1,2-2.1s1.7,1,1.7,2.1
						C-23.5,407-24.3,408-25.3,408z M-25.3,404.3c-0.7,0-1.5,0.7-1.5,1.6c0,0.9,0.8,1.6,1.5,1.6s1.2-0.7,1.2-1.6
						C-24,405-24.6,404.3-25.3,404.3z"/>
				</g>
			</g>
			<g id="XMLID_394_">
				<g id="XMLID_399_">
					<path id="XMLID_401_" class="st42" d="M-40.3,407.5c0,1-0.7,1.9-1.7,1.9c-0.9,0-1.9-0.9-1.9-1.9s1-1.9,1.9-1.9
						C-41,405.6-40.3,406.4-40.3,407.5z"/>
				</g>
				<g id="XMLID_395_">
					<path id="XMLID_396_" class="st37" d="M-41.9,409.7c-1,0-2.2-1-2.2-2.2c0-1.2,1.2-2.2,2.2-2.2c1,0,1.9,1,1.9,2.2
						C-40,408.8-40.9,409.7-41.9,409.7z M-41.9,405.8c-0.8,0-1.7,0.8-1.7,1.7s1,1.7,1.7,1.7c0.8,0,1.4-0.8,1.4-1.7
						S-41.2,405.8-41.9,405.8z"/>
				</g>
			</g>
			<g id="XMLID_392_">
				<path id="XMLID_393_" class="st36" d="M-36.5,417c-2-1-3.4-3.4-4.4-6.8c-0.6-2-2.3-1.9-2.3-4.5c0-6.1,4.7-9.8,9.6-9.8
					c5,0,8.3,1.3,8.3,7.4c0,9.2-4.1,14.4-8.3,14.4"/>
			</g>
			<g id="XMLID_390_">
				<path id="XMLID_391_" class="st37" d="M-33.6,417.9c-0.1,0-0.2-0.1-0.2-0.2c0-0.1,0.1-0.2,0.2-0.2c3.9,0,8.1-5,8.1-14.2
					c0-5.9-3.2-7.1-8.1-7.1c-4.6,0-9.4,3.4-9.4,9.5c0,1.4,0.6,1.9,1.1,2.5c0.5,0.5,1,1,1.2,1.9c0.9,3.4,2.3,5.6,4.3,6.7
					c0.1,0.1,0.2,0.2,0.1,0.3c-0.1,0.1-0.2,0.2-0.3,0.1c-2.1-1.1-3.6-3.4-4.5-7c-0.2-0.8-0.6-1.2-1-1.7c-0.6-0.6-1.2-1.3-1.2-2.8
					c0-3,1-5.5,3-7.3c1.9-1.7,4.3-2.6,6.9-2.6c4.5,0,8.6,1,8.6,7.6c0,4.3-0.9,8-2.6,10.7C-29.2,416.5-31.4,417.9-33.6,417.9z"/>
			</g>
			<g id="XMLID_388_">
				<path id="XMLID_389_" class="st37" d="M-33.5,409.9c-0.1,0-0.2,0-0.3,0c-0.6-0.1-0.9-0.6-0.9-0.6c-0.1-0.1,0-0.2,0.1-0.3
					s0.2,0,0.3,0.1c0,0,0.2,0.3,0.6,0.3c0.3,0.1,0.6,0,0.8-0.2c0.1-0.1,0.1-0.3,0-0.5c-0.3-0.6-0.9-2.3-0.8-3
					c0.1-0.1,0.2-0.2,0.3-0.2c0.1,0.1,0.2,0.2,0.2,0.3c-0.1,0.4,0.3,2.1,0.7,2.6c0.2,0.3,0.2,0.7,0,1
					C-32.7,409.7-33,409.9-33.5,409.9z"/>
			</g>
			<g id="XMLID_386_">
				<path id="XMLID_387_" class="st29" d="M-40.5,406.4c-0.1-1,0.2-1.9,0.5-2.8c0.3-1.1,1.9-4.3,1.9-4.3c2.9,2.6,5.9,3.2,8.5,3.9
					c2.5,0.6,2.9,1.5,2.9,4.1s-0.8,6.1-1.3,6.7c-0.5,0.7,0.2,3.1,1.8,2.9c2.2-0.3,1.6-3.6,1.9-5c0.2-1.2,3.9-3.8,3.4-6.3
					c-0.3-2.2-1.3-2.7-3-5.9c-1.5-3-1.9-5.6-5.4-7c-5.8-2.2-9.3-0.1-10.3,1.2c-0.9,1.1-2.6,1.4-3.2,2.8c-0.8,1.7,0.2,3-0.6,4.9
					c-0.8,1.9-3,3.6-3.2,5.3c-0.3,2.9,3.8,4.5,4,5.1c0.2,0.8-0.3,4.2,1.9,4.6c1.9,0.3,1.6-2.2,1.6-2.2s-1-1.9-1.4-5.6
					c0,0-1.3-0.5-1.4-1.9c-0.1-1.4,0.7-1.7,0.7-1.7"/>
			</g>
			<g id="XMLID_384_">
				<path id="XMLID_385_" class="st37" d="M-26.4,417.3c-0.6,0-1.1-0.3-1.5-1c-0.5-0.8-0.6-1.9-0.2-2.3c0.5-0.7,1.2-4.1,1.2-6.7
					c0-2.6-0.3-3.3-2.7-3.9c-0.2-0.1-0.5-0.1-0.7-0.2c-2.3-0.6-5-1.2-7.6-3.4c-0.3,0.8-1.4,3-1.8,3.9c-0.3,1-0.5,1.9-0.4,2.7
					c0,0.1-0.1,0.2-0.2,0.2c-0.1,0-0.2-0.1-0.2-0.2c-0.1-0.9,0.1-1.9,0.5-2.9c0.3-1.1,1.9-4.2,1.9-4.3c0.1-0.1,0.1-0.1,0.2-0.1
					c0.1,0,0.1,0,0.2,0.1c2.6,2.3,5.3,3,7.6,3.6c0.2,0.1,0.5,0.1,0.7,0.2c2.6,0.7,3,1.7,3,4.3s-0.8,6.2-1.4,6.9
					c-0.2,0.3-0.1,1.1,0.3,1.9c0.2,0.3,0.6,0.8,1.2,0.7c1.4-0.2,1.5-2.1,1.5-3.6c0-0.4,0-0.8,0.1-1.2c0.1-0.5,0.6-1.1,1.2-1.9
					c1-1.2,2.4-2.8,2.2-4.3c-0.2-1.3-0.6-2-1.4-3.1c-0.4-0.6-1-1.5-1.6-2.7c-0.3-0.6-0.6-1.3-0.9-1.9c-1-2.1-1.7-3.9-4.4-5
					c-5.9-2.2-9.2,0-9.9,1c-0.4,0.6-1,0.9-1.5,1.2c-0.7,0.4-1.4,0.8-1.7,1.5c-0.3,0.8-0.3,1.4-0.3,2.2c0.1,0.8,0.1,1.7-0.3,2.7
					c-0.3,0.9-1,1.7-1.6,2.5c-0.8,1-1.4,1.9-1.5,2.7c-0.2,1.9,1.7,3.2,3,4.1c0.6,0.5,1,0.7,1,1c0.1,0.2,0.1,0.6,0.1,1
					c0.1,1.3,0.1,3.2,1.7,3.4c0.3,0.1,0.6,0,0.8-0.2c0.5-0.4,0.5-1.4,0.5-1.8c-0.1-0.3-1-2.1-1.4-5.5c-0.3-0.2-1.3-0.8-1.4-2.1
					c-0.1-1.7,0.8-1.9,0.9-1.9c0.1-0.1,0.2,0.1,0.3,0.2c0.1,0.1-0.1,0.2-0.2,0.3c0,0-0.6,0.2-0.6,1.4c0.1,1.3,1.2,1.7,1.2,1.8
					c0.1,0.1,0.1,0.1,0.2,0.2c0.4,3.7,1.3,5.5,1.4,5.5v0.1c0,0.1,0.1,1.5-0.6,2.2c-0.3,0.3-0.8,0.4-1.2,0.3c-1.9-0.3-2-2.6-2.1-3.9
					c0-0.3-0.1-0.7-0.1-0.8c-0.1-0.1-0.6-0.4-0.9-0.7c-1.3-0.9-3.4-2.3-3.1-4.5c0.1-1,0.9-1.9,1.7-3c0.6-0.8,1.2-1.6,1.5-2.3
					c0.3-1,0.3-1.8,0.3-2.5s-0.1-1.5,0.3-2.4c0.4-0.8,1.1-1.3,1.9-1.8c0.6-0.3,1-0.6,1.4-1.1c0.9-1.1,4.4-3.6,10.5-1.2
					c2.8,1.1,3.7,3,4.7,5.2c0.2,0.6,0.6,1.2,0.9,1.9c0.6,1.2,1.1,2,1.5,2.7c0.7,1.2,1.2,1.9,1.4,3.3c0.3,1.8-1.1,3.4-2.3,4.7
					c-0.6,0.6-1.1,1.3-1.1,1.7c-0.1,0.3-0.1,0.6-0.1,1.1c0,1.6-0.1,3.9-1.9,4.1C-26.3,417.3-26.3,417.3-26.4,417.3z"/>
			</g>
			<g id="XMLID_381_">
				<path id="XMLID_383_" class="st37" d="M-38,405.8c-0.1,0-0.1,0-0.2-0.1c-0.1-0.1-0.1-0.2,0-0.3c0.3-0.3,0.7-0.5,1.1-0.4
					c0.3,0.1,0.6,0.2,0.8,0.5c0.1,0.1,0.1,0.2-0.1,0.3s-0.2,0.1-0.3-0.1c-0.1-0.1-0.2-0.2-0.4-0.2c-0.2,0-0.6,0.1-0.7,0.3
					C-37.8,405.8-37.9,405.8-38,405.8z"/>
			</g>
			<g id="XMLID_379_">
				<path id="XMLID_380_" class="st37" d="M-29.2,405.8c-0.1,0-0.1,0-0.2-0.1c-0.2-0.2-0.5-0.3-0.8-0.3c-0.2,0-0.4,0.1-0.6,0.3
					c-0.1,0.1-0.2,0.1-0.3,0.1s-0.1-0.2-0.1-0.3c0.2-0.3,0.6-0.4,0.9-0.5c0.4,0,0.8,0.1,1.1,0.5C-29,405.6-29,405.7-29.2,405.8
					C-29,405.8-29.1,405.8-29.2,405.8z"/>
			</g>
			<g id="XMLID_377_">
				<path id="XMLID_378_" class="st37" d="M-33.6,412.7c-0.6,0-1-0.2-1.3-0.6c-0.1-0.1-0.1-0.2,0.1-0.3c0.1-0.1,0.2-0.1,0.3,0.1
					c0.2,0.2,0.6,0.3,1,0.3c0.5,0,1-0.2,1.1-0.5c0.1-0.1,0.2-0.2,0.3-0.1c0.1,0.1,0.2,0.2,0.1,0.3c-0.2,0.4-0.8,0.7-1.4,0.7
					C-33.6,412.7-33.6,412.7-33.6,412.7z"/>
			</g>
			<g id="XMLID_375_">
				<path id="XMLID_376_" class="st37" d="M-37.5,397.3c0,0,0.1,0.1,0.2,0.2c0.1,0.1,0.1,0.1,0.2,0.2c0.1,0.1,0.1,0.1,0.2,0.2
					c0.1,0.1,0.2,0.2,0.2,0.2c0.1,0.1,0.2,0.2,0.3,0.3c0.1,0.1,0.2,0.2,0.3,0.3c0.1,0.1,0.2,0.2,0.3,0.3c0.1,0.1,0.2,0.2,0.3,0.3
					s0.2,0.2,0.3,0.2c0.1,0.1,0.2,0.2,0.3,0.2c0.1,0.1,0.2,0.1,0.3,0.2c0.1,0.1,0.2,0.1,0.2,0.2c0.1,0.1,0.1,0.1,0.2,0.1
					c0.1,0.1,0.2,0.1,0.2,0.1s-0.1,0-0.2,0c-0.1,0-0.2,0-0.2-0.1c-0.1,0-0.2-0.1-0.3-0.1s-0.1-0.1-0.2-0.1c-0.1,0-0.1-0.1-0.2-0.1
					c-0.1-0.1-0.2-0.1-0.3-0.2c-0.1-0.1-0.2-0.1-0.4-0.2c-0.1-0.1-0.1-0.1-0.2-0.1h-0.1c-0.2-0.2-0.5-0.4-0.6-0.6
					c-0.1-0.1-0.2-0.2-0.2-0.3c0-0.1-0.1-0.2-0.2-0.3c-0.1-0.1-0.1-0.2-0.2-0.3c-0.1-0.1-0.1-0.2-0.1-0.2
					C-37.5,397.5-37.5,397.3-37.5,397.3z"/>
			</g>
			<g id="XMLID_373_">
				<path id="XMLID_374_" class="st37" d="M-25.9,405.6c0,0,0-0.1-0.1-0.1c0-0.1-0.1-0.1-0.1-0.1s-0.1-0.1-0.1-0.2
					c0-0.1-0.1-0.1-0.1-0.2s-0.1-0.1-0.1-0.2c0-0.1-0.1-0.1-0.1-0.2c0-0.1-0.1-0.1-0.1-0.2c0-0.1-0.1-0.1-0.1-0.2
					c0-0.1-0.1-0.1-0.1-0.2s-0.1-0.1-0.1-0.2c0-0.1-0.1-0.1-0.1-0.2s-0.1-0.1-0.1-0.2c0-0.1-0.1-0.1-0.1-0.1s-0.1-0.1-0.1-0.1
					s0.1,0,0.1,0.1c0.1,0,0.1,0.1,0.1,0.1l0.1,0.1l0.1,0.1c0.1,0.1,0.1,0.1,0.1,0.1c0.1,0.1,0.1,0.1,0.1,0.2
					c0.1,0.1,0.1,0.1,0.1,0.2c0.1,0.1,0.1,0.2,0.1,0.2c0.1,0.2,0.1,0.3,0.1,0.5c0,0.1,0,0.2,0,0.2c0,0.1,0,0.1,0,0.2
					C-25.9,405.3-25.9,405.5-25.9,405.6L-25.9,405.6z"/>
			</g>
		</g>
	</g>
</g>
</svg>
