<?xml version="1.0" encoding="utf-8"?>
<!-- Generator: Adobe Illustrator 19.0.0, SVG Export Plug-In . SVG Version: 6.00 Build 0)  -->
<svg version="1.1" id="Calque_1" xmlns="http://www.w3.org/2000/svg" xmlns:xlink="http://www.w3.org/1999/xlink" x="0px" y="0px"
	 viewBox="-80 172 450 450" style="enable-background:new -80 172 450 450;" xml:space="preserve">
<style type="text/css">
	.st0{fill:none;stroke:#5D5C74;stroke-width:4;stroke-miterlimit:10;}
	.st1{fill:#7E50FF;stroke:#5D5C74;stroke-width:3;stroke-miterlimit:10;}
	.st2{fill:#5C5C74;}
	.st3{fill:#344258;stroke:#5D5C74;stroke-width:4;stroke-miterlimit:10;}
	.st4{fill:#FBD7CE;}
	.st5{fill:#E4E6E9;}
	.st6{fill:#CDCFD2;}
	.st7{fill:#5D5C74;}
	.st8{fill:#FFFFFF;}
	.st9{fill:#DFE1E2;}
	.st10{fill:#EDEEEF;}
	.st11{fill:none;stroke:#5D5C74;stroke-width:3;stroke-miterlimit:10;}
	.st12{fill:none;stroke:#7E50FF;stroke-width:2;stroke-miterlimit:10;}
</style>
<line id="XMLID_2254_" class="st0" x1="-41.9" y1="533.8" x2="349" y2="533.8"/>
<path id="XMLID_2253_" class="st1" d="M275.6,378.6c13.2,41.1-6.3,72.3-56.9,72.3c-53.5,0-69-31.1-56.3-72.3
	c8-26,4.9-54.3,13.1-67.2c11.5-18.3,22.1-25.4,43.2-25.4c19.9,0,32.8,6.3,41,24.1C266.4,324.6,267.1,351.9,275.6,378.6z"/>
<path id="XMLID_2249_" class="st2" d="M218.4,450.9c-25.2,0-43-6.7-52.9-20.1c-9.5-12.8-10.9-31.2-4.1-53.2
	c3.7-12.1,5-24.8,6.2-36.1c1.4-13,2.5-24.3,7-31.4c12.1-19.2,23.1-25.7,43.8-25.7c21.3,0,33.7,7.3,41.6,24.5
	c3.4,7.4,5.3,18.1,7.4,30.4c2,11.8,4.4,25.1,8.6,38.2c6.7,20.9,5.1,38.9-4.5,52.1C261.3,443.5,243,450.9,218.4,450.9z M218.4,285.9
	c-20.1,0-30.9,6.3-42.6,25c-4.2,6.8-5.4,17.9-6.8,30.7c-1.2,11.3-2.5,24.1-6.3,36.3c-6.6,21.6-5.2,39.5,3.9,51.9
	c9.6,12.9,27,19.5,51.7,19.5c24.1,0,42.1-7.1,51.9-20.6c9.4-12.8,10.8-30.4,4.3-50.8c-4.2-13.2-6.5-26.6-8.6-38.4
	c-2.1-12.2-4-22.8-7.3-30.1C251,293,239,285.9,218.4,285.9z"/>
<path id="XMLID_2248_" class="st3" d="M146.4,474.8c0-30.3,32.6-54.8,72.9-54.8s72.9,24.5,72.9,54.8"/>
<path id="XMLID_2243_" class="st4" d="M235.6,336.5c-15.6,0-29.2-6.4-35.6-15.6c-2.6,10.4-9.9,18.2-18.7,19.3c0,9.8,0,25.3,0,33.8
	c0,13,8.1,29.2,20.9,37.4v13c0,7.3,4.6,17.5,16.6,17.5c11.7,0,16.9-10.2,16.9-17.5v-12.1c13.6-7.8,20.9-24.8,20.9-38.3
	c0-13,0-42.6,0-42.6c0-0.1,0-0.2,0-0.3C254.4,335.4,248.9,336.5,235.6,336.5z"/>
<path id="XMLID_2240_" class="st2" d="M218.7,442.1c-12.7,0-17.3-10.9-17.3-18.2v-12.7c-12.1-8-20.9-23.8-20.9-37.8v-33.8
	c0-0.4,0.3-0.7,0.6-0.7c8.4-1,15.5-8.4,18.1-18.8c0.1-0.3,0.3-0.5,0.6-0.5c0.3,0,0.5,0.1,0.7,0.3c6.6,9.5,20,15.3,35,15.3
	c13.6,0,18.3-1.2,20.3-5c0.1-0.3,0.5-0.4,0.8-0.4c0.3,0.1,0.5,0.4,0.5,0.7v0.3v42.6c0,12.7-6.6,30.2-20.9,38.7v11.7
	C236.3,431.5,230.8,442.1,218.7,442.1z M181.9,340.4v33.1c0,13.7,8.7,29.1,20.6,36.8c0.2,0.1,0.3,0.4,0.3,0.6v13
	c0,6.7,4.2,16.8,15.9,16.8c11.1,0,16.2-9.8,16.2-16.8v-12.1c0-0.3,0.1-0.5,0.4-0.6c13.5-7.8,20.6-24.8,20.6-37.7v-40.7
	c-3.2,3.3-9.5,3.9-20.3,3.9c-14.8,0-28.2-5.6-35.3-14.7C197.3,332,190.2,339.1,181.9,340.4z"/>
<g id="XMLID_2238_">
	<path id="XMLID_2239_" class="st2" d="M226.7,387.4c0,0-3.3,3.7-7.3,3.7s-7.3-3.7-7.3-3.7s3.3,0.5,7.3,0.5
		C223.4,387.8,226.7,387.4,226.7,387.4z"/>
</g>
<g id="XMLID_2236_">
	<path id="XMLID_2237_" class="st2" d="M219.7,377.2h-0.1c-1.1,0-2.2-0.5-2.7-1.3c-0.4-0.6-0.5-1.4-0.3-2.1l0.7,0.2
		c-0.2,0.5-0.1,1.1,0.2,1.5c0.4,0.6,1.2,1,2.2,1c1.1,0,2.1-0.4,2.6-1.1c0.3-0.5,0.3-1,0.1-1.6l0.7-0.3c0.4,1,0.2,1.8-0.2,2.3
		C222.2,376.7,221,377.2,219.7,377.2z"/>
</g>
<path id="XMLID_2235_" class="st5" d="M299.9,459.3v86.3c0,4.5-3.6,8.1-8.1,8.1H145.4c-4.5,0-8.1-3.6-8.1-8.1v-86.4
	c0-4.5,3.6-8.1,8.1-8.1h146.3C296.2,451.1,299.9,454.8,299.9,459.3"/>
<path id="XMLID_2234_" class="st6" d="M299.9,536.1v9.5c0,4.5-3.6,8.1-8.1,8.1H145.4c-4.5,0-8.1-3.6-8.1-8.1V536L299.9,536.1z"/>
<path id="XMLID_2233_" class="st7" d="M137.3,504.1c-1,0-1.7-0.8-1.7-1.7v-17.1c0-1,0.9-1.6,1.7-1.6c0.9,0,1.6,0.8,1.6,1.6v17.1
	C139,503.4,138.3,504.1,137.3,504.1"/>
<path id="XMLID_2232_" class="st7" d="M291.7,555.5H145.4c-5.4,0-9.8-4.4-9.8-9.8v-32.8c0-1,0.9-1.6,1.7-1.6c0.9,0,1.6,0.8,1.6,1.6
	v32.8c0,3.5,2.9,6.5,6.4,6.5h146.4c3.5,0,6.4-2.9,6.4-6.5v-86.4c0-3.5-2.9-6.5-6.4-6.5H145.4c-3.5,0-6.4,2.9-6.4,6.5v17
	c0,1-0.8,1.7-1.7,1.7s-1.7-0.8-1.7-1.7v-17c0-5.4,4.4-9.8,9.8-9.8h146.3c5.4,0,9.8,4.4,9.8,9.8v86.3
	C301.6,551,297.2,555.5,291.7,555.5"/>
<path id="XMLID_2228_" class="st8" d="M288.8,486.8c-0.8,0-1.3-0.6-1.3-1.3v-15.6c0-3.7-3.1-6.8-6.8-6.8h-17.5
	c-0.8,0-1.3-0.6-1.3-1.3c0-0.8,0.6-1.3,1.3-1.3h17.5c5.3,0,9.5,4.3,9.5,9.5v15.6C290.2,486.1,289.6,486.8,288.8,486.8 M253.5,463.1
	h-12.2c-0.8,0-1.3-0.6-1.3-1.3c0-0.8,0.6-1.3,1.3-1.3h12.2c0.8,0,1.3,0.6,1.3,1.3C254.9,462.4,254.3,463.1,253.5,463.1 M223.3,509.3
	c6.4,7.6,1.5,11.1-4.6,11.1s-11.1-5-11.1-11.1c0-6.1,5-11.1,11.1-11.1C224.8,498.2,227.7,503.8,223.3,509.3"/>
<path id="XMLID_2224_" class="st7" d="M218.6,499.8c-5.2,0-9.4,4.2-9.4,9.4c0,5.2,4.2,9.4,9.4,9.4c2.9,0,5.2-0.9,5.7-2.2
	c0.7-1.3-0.2-3.5-2.4-6.1c-0.5-0.6-0.6-1.5,0-2.2c1.7-2.1,2.2-4.3,1.3-5.9C222.6,500.8,220.8,499.8,218.6,499.8 M218.6,522.1
	c-7.1,0-12.8-5.7-12.8-12.8s5.7-12.8,12.8-12.8c3.5,0,6.4,1.6,7.7,4.3c1.2,2.5,0.9,5.5-1,8.4c2.5,3.3,3.2,6.3,2.1,8.7
	C226.2,520.6,222.9,522.1,218.6,522.1"/>
<path id="XMLID_2222_" class="st7" d="M216.9,493.3c-1,0-1.7-0.8-1.7-1.7c0-0.2,0-0.3,0.1-0.5s1.5-5.3,5.8-6.6
	c0.9-0.3,1.8,0.3,2.1,1.2c0.2,0.9-0.3,1.8-1.1,2c-2.4,0.8-3.5,4.2-3.5,4.3C218.3,492.8,217.6,493.3,216.9,493.3"/>
<path id="XMLID_2217_" class="st9" d="M54.4,543.1H78v-35.3H54.3L54.4,543.1L54.4,543.1z"/>
<path id="XMLID_2213_" class="st7" d="M56.1,541.3h20.3v-31.9H56.1V541.3z M78.1,544.8H54.4c-1,0-1.7-0.8-1.7-1.7v-35.3
	c0-1,0.8-1.7,1.7-1.7h23.7c1,0,1.7,0.8,1.7,1.7v35.3C79.8,544,79.1,544.8,78.1,544.8z"/>
<path id="XMLID_2208_" class="st7" d="M78.1,538.4c-1,0-1.7-0.8-1.7-1.7c0-1,0.8-1.7,1.7-1.7c5.3,0,9.6-4.3,9.6-9.6
	s-4.3-9.6-9.6-9.6c-1,0-1.7-0.8-1.7-1.7c0-1,0.8-1.7,1.7-1.7c7.2,0,12.9,5.8,12.9,13C91,532.6,85.2,538.4,78.1,538.4 M66.3,503.3
	c-0.3,0-0.6-0.1-0.8-0.4c-0.3-0.4-3.1-4.2-2.5-6.8c0.3-1.1,1-2,1.7-2.9c0.9-1.1,1.7-2,1.8-3.6c0.1-0.6,0.6-1,1.1-1
	c0.6,0.1,1,0.6,1,1.1c-0.2,2.3-1.3,3.6-2.3,4.8c-0.6,0.7-1.1,1.3-1.2,2c-0.3,1.3,1.3,4,2.1,5.1c0.4,0.5,0.3,1.1-0.2,1.4
	C66.7,503.2,66.5,503.3,66.3,503.3 M60.5,502.6c-0.1,0-0.2,0-0.3-0.1c-0.2-0.2-2.1-1.4-2.3-2.8c-0.1-0.6,0.1-1.1,0.4-1.6
	c0.3-0.7,0.5-1.2,0.3-2c-0.1-0.3,0.1-0.6,0.4-0.6c0.3-0.1,0.6,0.1,0.6,0.4c0.3,1.1-0.1,1.9-0.3,2.6c-0.2,0.4-0.3,0.8-0.3,1.1
	c0.1,0.6,1.1,1.5,1.8,2.1c0.2,0.2,0.3,0.5,0.1,0.7C60.8,502.5,60.7,502.6,60.5,502.6 M72.1,502.8c-0.2,0-0.4-0.1-0.5-0.4
	s-0.9-2.5-0.2-3.6c0.3-0.5,0.8-0.9,1.2-1.1c0.6-0.4,1.1-0.7,1.4-1.4c0.1-0.3,0.4-0.4,0.7-0.2c0.2,0.1,0.4,0.4,0.3,0.7
	c-0.5,1.1-1.2,1.5-1.8,1.9c-0.4,0.3-0.8,0.5-0.9,0.8c-0.3,0.6,0,1.9,0.3,2.8c0.1,0.3,0,0.6-0.3,0.7h-0.2"/>
<path id="XMLID_2205_" class="st8" d="M62.3,527.3c-0.8,0-1.5-0.6-1.5-1.5v-11c0-0.8,0.6-1.5,1.5-1.5s1.5,0.6,1.5,1.5v11
	C63.8,526.6,63.2,527.3,62.3,527.3C62.3,527.4,62.3,527.4,62.3,527.3 M62.3,539.8c-0.8,0-1.5-0.6-1.5-1.5v-5.6
	c0-0.8,0.6-1.5,1.5-1.5s1.5,0.6,1.5,1.5v5.6C63.8,539.1,63.2,539.8,62.3,539.8"/>
<path id="XMLID_2204_" class="st6" d="M56.6,398.6L29,426.3c0,0-6.4-5.9-7.3-11c0,0-4.6-11.7,5.9-20.9c0,0,6.1-7.2,18.8-4.1
	C46.3,390.4,53.3,392.6,56.6,398.6z"/>
<path id="XMLID_2203_" class="st7" d="M-9.1,379.1c0.1-0.3,0.3-0.5,0.5-0.6s0.5-0.1,0.8,0l33,14.5c0.1,0.1,0.2,0.1,0.3,0.2
	c8.5-7.8,21.8-7.6,30.1,0.6c1.3,1.3,2.3,2.7,3.2,4.2l0,0c0.4,0.4,0.4,1.1,0,1.5l-2.3,2.3h-3.1l3.2-3.2c-0.7-1.1-1.6-2.2-2.6-3.2
	c-7.6-7.6-20-7.6-27.7,0c-5.4,5.4-6.9,13.1-4.7,19.9l0,0c0.1,0.4,0,0.8-0.3,1.1c-0.4,0.4-1.1,0.4-1.5,0c-0.1-0.1-0.1-0.1-0.1-0.2
	c0,0,0,0-0.1,0v-0.1c0-0.1,0-0.1-0.1-0.2c-2.3-7.2-0.8-15.4,4.6-21.3l-31.8-13.9l-12.8,40.9h-2L-9.1,379.1z"/>
<path id="XMLID_2202_" class="st7" d="M-7.5,544c-0.3,0-0.5-0.1-0.7-0.3L-29.9,517h2.4L-7,542.1h35.4c0.5,0,0.9,0.4,0.9,0.9v5
	c0,0.5-0.4,0.9-0.9,0.9l-75.8,0.8l0,0c-0.5,0-0.9-0.4-0.9-0.9s0.4-0.9,0.9-0.9l74.8-0.8V544H-7.5z"/>
<path id="XMLID_2201_" class="st7" d="M30.6,427.9c-0.4,0.4-1.1,0.4-1.6,0c-0.4-0.4-0.4-1.1,0-1.6l5.7-5.7v3.1L30.6,427.9z"/>
<path id="XMLID_2200_" class="st10" d="M51.8,420.8c-4.1,4.1-10.5,4.3-14.9,0.6l15.5-15.5C56.1,410.3,55.9,416.8,51.8,420.8z"/>
<path id="XMLID_2197_" class="st7" d="M56.5,401.9h-3.1l-18.7,18.7v3.1l0.7-0.7c5.2,4.5,13.1,4.3,18-0.6s5.1-12.8,0.6-18L56.5,401.9
	z M52.4,406c3.7,4.3,3.5,10.8-0.6,14.9c-4.1,4.1-10.5,4.3-14.9,0.6L52.4,406z"/>
<path id="XMLID_2196_" class="st5" d="M-42,511.7c-6.2,0-11.2-5-11.2-11.2s5-11.2,11.2-11.2s11.2,5,11.2,11.2
	C-30.9,506.7-35.9,511.7-42,511.7z"/>
<path id="XMLID_2123_" class="st7" d="M-29.9,517h2.4l-5.6-6.9c2.5-2.4,4.1-5.7,4.1-9.5c0-5.6-3.5-10.3-8.4-12.2l1.5-4.9h-2
	l-1.4,4.4c-0.9-0.2-1.9-0.3-2.8-0.3c-7.2,0-13,5.8-13,13s5.8,13,13,13c2.8,0,5.3-0.9,7.5-2.4L-29.9,517z M-42,511.7
	c-6.2,0-11.2-5-11.2-11.2s5-11.2,11.2-11.2s11.2,5,11.2,11.2C-30.9,506.7-35.9,511.7-42,511.7z"/>
<rect id="XMLID_2119_" x="-47.4" y="544" class="st6" width="74.8" height="3.9"/>
<line id="XMLID_2118_" class="st11" x1="-38.5" y1="488.9" x2="-21" y2="420.2"/>
<g id="XMLID_2109_">
	<path id="XMLID_2113_" class="st2" d="M192.6,355.1c-0.4,0-0.7-0.1-1-0.4c-0.6-0.5-0.6-1.5-0.1-2c1.8-1.9,4.4-2.9,6.8-2.7
		c2,0.2,3.8,1.2,4.8,2.8c0.4,0.7,0.2,1.6-0.4,2c-0.7,0.4-1.6,0.2-2-0.4c-0.5-0.9-1.5-1.4-2.6-1.5c-1.6-0.1-3.2,0.5-4.4,1.8
		C193.4,355,193,355.1,192.6,355.1z"/>
</g>
<g id="XMLID_1696_">
	<path id="XMLID_2072_" class="st2" d="M247,355.1c-0.4,0-0.8-0.1-1-0.4c-1.2-1.3-3-2-4.7-1.9c-1.4,0.1-2.7,0.7-3.4,1.7
		c-0.5,0.6-1.4,0.8-2,0.3s-0.8-1.4-0.3-2c1.3-1.6,3.3-2.7,5.5-2.8c2.6-0.1,5.2,0.9,7,2.8c0.6,0.6,0.5,1.5,0,2
		C247.7,355,247.3,355.1,247,355.1z"/>
</g>
<path id="XMLID_2363_" class="st12" d="M200.6,254.1c-0.6,0.5-1.3,0.8-2.2,0.8c-1.8,0-3.3-1.5-3.3-3.3c0-1.8,1.5-3.3,3.3-3.3
	s3.3,1.5,3.3,3.3c0,0.6-0.1,1.1-0.4,1.5"/>
<path id="XMLID_2366_" class="st12" d="M348.2,259.4c-0.5,0.5-1.2,0.7-2,0.7c-1.7,0-3.1-1.4-3.1-3.1c0-1.7,1.4-3.1,3.1-3.1
	s3.1,1.4,3.1,3.1c0,0.5-0.1,1-0.4,1.4"/>
<path id="XMLID_958_" class="st12" d="M258.2,232.2c-1.2,1.1-2.9,1.7-4.7,1.7c-3.9,0-7.1-3.2-7.1-7.1s3.2-7.1,7.1-7.1
	s7.1,3.2,7.1,7.1c0,1.2-0.3,2.3-0.8,3.3"/>
<path id="XMLID_956_" class="st12" d="M263.7,191.5c-0.8,0.7-1.9,1.2-3.1,1.2c-2.6,0-4.7-2.1-4.7-4.7s2.1-4.7,4.7-4.7
	s4.7,2.1,4.7,4.7c0,0.8-0.2,1.6-0.6,2.2"/>
<path id="XMLID_955_" class="st12" d="M264.5,300.2c-0.4,0.4-1,0.6-1.6,0.6c-1.3,0-2.4-1.1-2.4-2.4c0-1.3,1.1-2.4,2.4-2.4
	s2.4,1.1,2.4,2.4c0,0.4-0.1,0.8-0.3,1.1"/>
<path id="XMLID_954_" class="st12" d="M213.7,206.6c-0.8,0.7-1.9,1.2-3.1,1.2c-2.6,0-4.7-2.1-4.7-4.7c0-2.6,2.1-4.7,4.7-4.7
	s4.7,2.1,4.7,4.7c0,0.8-0.2,1.6-0.6,2.2"/>
<path id="XMLID_953_" class="st12" d="M281.5,275.5c-0.8,0.7-1.9,1.2-3.1,1.2c-2.6,0-4.7-2.1-4.7-4.7s2.1-4.7,4.7-4.7
	s4.7,2.1,4.7,4.7c0,0.8-0.2,1.6-0.6,2.2"/>
<path id="XMLID_952_" class="st12" d="M333.2,187.3c-0.4,0.4-1,0.6-1.6,0.6c-1.3,0-2.4-1.1-2.4-2.4s1.1-2.4,2.4-2.4s2.4,1.1,2.4,2.4
	c0,0.4-0.1,0.8-0.3,1.1"/>
<path id="XMLID_951_" class="st12" d="M125.2,221.4c-0.4,0.4-1,0.6-1.6,0.6c-1.3,0-2.4-1.1-2.4-2.4c0-1.3,1.1-2.4,2.4-2.4
	s2.4,1.1,2.4,2.4c0,0.4-0.1,0.8-0.3,1.1"/>
<path id="XMLID_950_" class="st12" d="M158.7,196.8c-0.4,0.4-1,0.6-1.6,0.6c-1.3,0-2.4-1.1-2.4-2.4s1.1-2.4,2.4-2.4s2.4,1.1,2.4,2.4
	c0,0.4-0.1,0.8-0.3,1.1"/>
<path id="XMLID_949_" class="st12" d="M333.2,321.5c-0.4,0.4-1,0.6-1.6,0.6c-1.3,0-2.4-1.1-2.4-2.4s1.1-2.4,2.4-2.4s2.4,1.1,2.4,2.4
	c0,0.4-0.1,0.8-0.3,1.1"/>
</svg>
