<?xml version="1.0" encoding="utf-8"?>
<!-- Generator: Adobe Illustrator 19.0.0, SVG Export Plug-In . SVG Version: 6.00 Build 0)  -->
<svg version="1.1" id="Calque_1" xmlns="http://www.w3.org/2000/svg" xmlns:xlink="http://www.w3.org/1999/xlink" x="0px" y="0px"
	 viewBox="-387 404 1144.4 273" style="enable-background:new -387 404 1144.4 273;" xml:space="preserve">
<style type="text/css">
	.st0{fill:#334258;}
	.st1{fill:#00D1B2;}
</style>
<rect id="XMLID_25_" x="-242.2" y="407.5" class="st0" width="120.4" height="125.8"/>
<rect id="XMLID_24_" x="-242.2" y="545.2" class="st1" width="120.4" height="128.3"/>
<rect id="XMLID_23_" x="-372.5" y="407.5" class="st0" width="120.4" height="125.8"/>
<rect id="XMLID_22_" x="-372.5" y="545.2" class="st0" width="120.4" height="128.3"/>
<g>
	<path class="st0" d="M34.1,407.5c21.5,0,37.1,5,46.7,15s14.4,25.1,14.4,45.4v9.4c0,13.5-2.1,24.6-6.4,33.4
		c-4.3,8.8-11,15.3-20.3,19.5c11.3,4.3,19.2,11.2,23.8,20.8c4.6,9.6,6.9,21.5,6.9,35.5v21.4c0,20.3-5.3,35.7-15.8,46.3
		c-10.5,10.6-26.1,15.9-46.9,15.9h-64.9V407.5H34.1z M13.1,445v69.4h16.1c7.8,0,13.8-2,18.2-6c4.4-4,6.6-11.3,6.6-21.8V472
		c0-9.5-1.7-16.4-5.1-20.6c-3.4-4.3-8.7-6.4-15.9-6.4H13.1z M13.1,551.9v80.7h23.6c7,0,12.3-1.9,15.9-5.6c3.6-3.8,5.4-10.5,5.4-20.3
		v-22.9c0-12.3-2.1-20.6-6.2-25.1s-10.9-6.8-20.4-6.8L13.1,551.9L13.1,551.9z"/>
	<path class="st0" d="M163.5,407.5v202.6c0,9.5,1.9,16.1,5.8,19.9c3.9,3.8,9.1,5.6,15.6,5.6s11.7-1.9,15.6-5.6
		c3.9-3.8,5.8-10.4,5.8-19.9V407.5h39v200c0,21.3-5.2,37.6-15.6,49c-10.4,11.4-25.7,17.1-46,17.1s-35.6-5.7-46-17.1
		s-15.6-27.7-15.6-49v-200H163.5z"/>
	<path class="st0" d="M273.5,407.5h41.3v225.1h67.9v37.5H273.5V407.5z"/>
	<path class="st1" d="M454.7,565.4l-12.8,24v80.7h-41.3V407.5h41.3v114.4L496,407.5h41.3l-57.4,117.1l57.4,145.6h-42.4L454.7,565.4z
		"/>
	<path class="st1" d="M556,407.5h41.3v262.7H556V407.5z"/>
	<path class="st1" d="M615.3,407.5h127.6V445h-43.2v225.1h-41.3V445h-43.2L615.3,407.5L615.3,407.5z"/>
</g>
</svg>
