<?xml version="1.0" encoding="utf-8"?>
<!-- Generator: Adobe Illustrator 19.0.0, SVG Export Plug-In . SVG Version: 6.00 Build 0)  -->
<svg version="1.1" xmlns="http://www.w3.org/2000/svg" xmlns:xlink="http://www.w3.org/1999/xlink" x="0px" y="0px"
	 viewBox="0 0 1144 273" style="enable-background:new 0 0 1144 273;" xml:space="preserve">
<style type="text/css">
	.st0{fill:#334258;}
	.st1{fill:#7C4DFF;}
	.st2{opacity:0.1;fill:#DDE2E8;}
	.st3{opacity:0.1;}
	.st4{fill:#C2CAD3;}
</style>
<g id="Calque_1">
</g>
<g id="favicon">
</g>
<g id="main">
</g>
<g id="greyscale">
</g>
<g id="light-main">
</g>
<g id="green">
</g>
<g id="light-green">
</g>
<g id="orange">
</g>
<g id="deep_blue">
</g>
<g id="violet">
	<g>
		<rect x="143.5" y="3.5" class="st0" width="120.3" height="125.8"/>
		<rect x="143.5" y="141.2" class="st1" width="120.3" height="128.3"/>
		<rect x="13.3" y="3.5" class="st0" width="120.3" height="125.8"/>
		<rect x="13.3" y="141.2" class="st0" width="120.3" height="128.3"/>
		<g>
			<path class="st0" d="M419.7,3.5c21.5,0,37.1,5,46.7,15c9.6,10,14.4,25.1,14.4,45.4v9.4c0,13.5-2.1,24.6-6.4,33.4
				c-4.3,8.8-11,15.3-20.3,19.5c11.3,4.3,19.2,11.2,23.8,20.8c4.6,9.6,6.9,21.4,6.9,35.4v21.4c0,20.3-5.3,35.7-15.8,46.3
				c-10.5,10.6-26.1,15.9-46.9,15.9h-64.9V3.5H419.7z M398.7,41v69.4h16.1c7.7,0,13.8-2,18.2-6c4.4-4,6.6-11.3,6.6-21.8V68
				c0-9.5-1.7-16.4-5.1-20.6c-3.4-4.2-8.7-6.4-15.9-6.4H398.7z M398.7,148v80.7h23.6c7,0,12.3-1.9,15.9-5.6
				c3.6-3.8,5.4-10.5,5.4-20.3v-22.9c0-12.3-2.1-20.6-6.2-25.1c-4.1-4.5-10.9-6.8-20.4-6.8H398.7z"/>
			<path class="st0" d="M549.1,3.5v202.6c0,9.5,1.9,16.1,5.8,19.9c3.9,3.8,9.1,5.6,15.6,5.6c6.5,0,11.7-1.9,15.6-5.6
				c3.9-3.8,5.8-10.4,5.8-19.9V3.5h39v199.9c0,21.3-5.2,37.6-15.6,49c-10.4,11.4-25.7,17.1-46,17.1c-20.3,0-35.6-5.7-46-17.1
				c-10.4-11.4-15.6-27.7-15.6-49V3.5H549.1z"/>
			<path class="st0" d="M659.1,3.5h41.3v225.1h67.9v37.5H659.1V3.5z"/>
			<path class="st1" d="M840.2,161.5l-12.8,24v80.7h-41.3V3.5h41.3v114.4l54-114.4h41.3l-57.4,117l57.4,145.6h-42.4L840.2,161.5z"/>
			<path class="st1" d="M941.5,3.5h41.3v262.6h-41.3V3.5z"/>
			<path class="st1" d="M1000.8,3.5h127.5V41h-43.1v225.1h-41.3V41h-43.1V3.5z"/>
		</g>
		<polygon class="st2" points="13.3,269.5 133.6,141.2 133.6,269.5 		"/>
		<polygon class="st2" points="143.5,130.6 263.9,2.3 263.9,130.6 		"/>
		<g class="st3">
			<path class="st4" d="M419.7,3.5c21.5,0,37.1,5,46.7,15c9.6,10,14.4,25.1,14.4,45.4v9.4c0,13.5-2.1,24.6-6.4,33.4
				c-4.3,8.8-11,15.3-20.3,19.5c11.3,4.3,19.2,11.2,23.8,20.8c4.6,9.6,6.9,21.4,6.9,35.4v21.4c0,20.3-5.3,35.7-15.8,46.3
				c-10.5,10.6-26.1,15.9-46.9,15.9h-64.9V3.5H419.7z M398.7,41v69.4h16.1c7.7,0,13.8-2,18.2-6c4.4-4,6.6-11.3,6.6-21.8V68
				c0-9.5-1.7-16.4-5.1-20.6c-3.4-4.2-8.7-6.4-15.9-6.4H398.7z M398.7,148v80.7h23.6c7,0,12.3-1.9,15.9-5.6
				c3.6-3.8,5.4-10.5,5.4-20.3v-22.9c0-12.3-2.1-20.6-6.2-25.1c-4.1-4.5-10.9-6.8-20.4-6.8H398.7z"/>
			<path class="st4" d="M549.1,3.5v202.6c0,9.5,1.9,16.1,5.8,19.9c3.9,3.8,9.1,5.6,15.6,5.6c6.5,0,11.7-1.9,15.6-5.6
				c3.9-3.8,5.8-10.4,5.8-19.9V3.5h39v199.9c0,21.3-5.2,37.6-15.6,49c-10.4,11.4-25.7,17.1-46,17.1c-20.3,0-35.6-5.7-46-17.1
				c-10.4-11.4-15.6-27.7-15.6-49V3.5H549.1z"/>
			<path class="st4" d="M659.1,3.5h41.3v225.1h67.9v37.5H659.1V3.5z"/>
		</g>
		<g class="st3">
			<path class="st4" d="M419.7,3.5c21.5,0,37.1,5,46.7,15c9.6,10,14.4,25.1,14.4,45.4v9.4c0,13.5-2.1,24.6-6.4,33.4
				c-4.3,8.8-11,15.3-20.3,19.5c11.3,4.3,19.2,11.2,23.8,20.8c4.6,9.6,6.9,21.4,6.9,35.4v21.4c0,20.3-5.3,35.7-15.8,46.3
				c-10.5,10.6-26.1,15.9-46.9,15.9h-64.9V3.5H419.7z M398.7,41v69.4h16.1c7.7,0,13.8-2,18.2-6c4.4-4,6.6-11.3,6.6-21.8V68
				c0-9.5-1.7-16.4-5.1-20.6c-3.4-4.2-8.7-6.4-15.9-6.4H398.7z M398.7,148v80.7h23.6c7,0,12.3-1.9,15.9-5.6
				c3.6-3.8,5.4-10.5,5.4-20.3v-22.9c0-12.3-2.1-20.6-6.2-25.1c-4.1-4.5-10.9-6.8-20.4-6.8H398.7z"/>
			<path class="st4" d="M549.1,3.5v202.6c0,9.5,1.9,16.1,5.8,19.9c3.9,3.8,9.1,5.6,15.6,5.6c6.5,0,11.7-1.9,15.6-5.6
				c3.9-3.8,5.8-10.4,5.8-19.9V3.5h39v199.9c0,21.3-5.2,37.6-15.6,49c-10.4,11.4-25.7,17.1-46,17.1c-20.3,0-35.6-5.7-46-17.1
				c-10.4-11.4-15.6-27.7-15.6-49V3.5H549.1z"/>
			<path class="st4" d="M659.1,3.5h41.3v225.1h67.9v37.5H659.1V3.5z"/>
		</g>
	</g>
</g>
<g id="white">
</g>
<g id="components">
</g>
</svg>
