<?xml version="1.0" encoding="utf-8"?>
<!-- Generator: Adobe Illustrator 19.0.0, SVG Export Plug-In . SVG Version: 6.00 Build 0)  -->
<svg version="1.1" id="Calque_1" xmlns="http://www.w3.org/2000/svg" xmlns:xlink="http://www.w3.org/1999/xlink" x="0px" y="0px"
	 viewBox="-119 121 160 160" style="enable-background:new -119 121 160 160;" xml:space="preserve">
<style type="text/css">
	.st0{fill:#FFFFFF;}
	.st1{fill:#36A2EB;}
	.st2{fill:#7F00FF;fill-opacity:0.8;}
	.st3{fill:#00D1B2;}
	.st4{fill:none;stroke:#E7E9ED;stroke-width:8;}
</style>
<path class="st0" d="M-39,127l64.1,37v74L-39,275l-64.1-37v-74L-39,127z"/>
<title>Artboard 6</title>
<g>
	<g>
		<polygon class="st1" points="25.2,216.2 25.2,222 -38.9,259 -103,222 -101.7,201.6 -38.9,203.6 -37.6,221.8 		"/>
		<g>
			<path class="st1" d="M25.4,197.6c-5,6-11,12-18,16c-11,4-25,5-33-7c-8-11-16-21-30-24c-18-4-35,2-47,15c1,8-2,17,0,25
				c9-16,32-27,48-13c8,8,11,18,21,23c19,9,44,6,59-11C25.4,213.6,25.4,205.6,25.4,197.6L25.4,197.6z"/>
		</g>
	</g>
	<path class="st2" d="M-103,213.1c7.2-20,10.3-36.1,24.1-36.1c21,0,26,59,44,53s16-38,44-38c5.3,0,10.8,3.3,16.1,8.5V238l-64.1,37
		l-64.1-37V213.1z"/>
	<g>
		<polygon class="st3" points="25.2,232.2 25.2,238 -38.9,275 -103,238 -101.7,217.5 -38.9,219.5 -37.6,237.8 		"/>
		<g>
			<path class="st3" d="M25.1,213c-9,16-33,28-47,13c-11-11-18-24-34-27c-17-3-34,2-47,14c0,9,0,17,0,26c6-12,20-19,33-20
				c7,0,14,4,18,10c8,11,16,21,30,24c18,4,34-4,47-15C25.1,230,25.1,221,25.1,213L25.1,213z"/>
		</g>
	</g>
	<path class="st4" d="M-38.9,127l64.1,37v74l-64.1,37l-64.1-37v-74L-38.9,127z"/>
</g>
</svg>
