<?xml version="1.0" encoding="utf-8"?>
<!-- Generator: Adobe Illustrator 19.0.0, SVG Export Plug-In . SVG Version: 6.00 Build 0)  -->
<svg version="1.1" id="Calque_1" xmlns="http://www.w3.org/2000/svg" xmlns:xlink="http://www.w3.org/1999/xlink" x="0px" y="0px"
	 viewBox="-119 121 160 160" style="enable-background:new -119 121 160 160;" xml:space="preserve">
<style type="text/css">
	.st0{fill:#FFFFFF;}
	.st1{fill:#36A2EB;}
	.st2{fill:#FFCE56;}
	.st3{fill:#FE6184;fill-opacity:0.8;}
	.st4{fill:none;stroke:#E7E9ED;stroke-width:8;}
</style>
<title>Artboard 6</title>
<g>
	<path class="st0" d="M-39,127l64.1,37v74L-39,275l-64.1-37v-74L-39,127z"/>
	<path class="st1" d="M25.1,201.6c-22,0.4-17.4,14.3-32.9,17.9C-23.5,223-26,181-41.8,181c-15.7,0-19.2,40.8-38.9,68.8l-0.6,0.8
		L-39,275l64.1-37V201.6z"/>
	<path class="st2" d="M25.1,200.3C17.7,190.9,12.7,180,2,180c-19,0-14,31-35,31s-23.2-33.3-47-2c-7.6,10-13.7,21.1-18.5,31.7
		L-39,275l64.1-37V200.3z"/>
	<path class="st3" d="M-103.1,213.1c7.2-20,10.3-36.1,24.1-36.1c21,0,26,59,44,53s16-38,44-38c5.3,0,10.8,3.3,16.1,8.5V238L-39,275
		l-64.1-37C-103.1,238-103.1,213.1-103.1,213.1z"/>
	<path class="st4" d="M-39,127l64.1,37v74L-39,275l-64.1-37v-74L-39,127z"/>
</g>
</svg>
