<?xml version="1.0" encoding="utf-8"?>
<!-- Generator: Adobe Illustrator 19.0.0, SVG Export Plug-In . SVG Version: 6.00 Build 0)  -->
<svg version="1.1" id="Calque_1" xmlns="http://www.w3.org/2000/svg" xmlns:xlink="http://www.w3.org/1999/xlink" x="0px" y="0px"
	 viewBox="0 0 450 450" style="enable-background:new 0 0 450 450;" xml:space="preserve">
<style type="text/css">
	.st0{fill:#FFFFFF;stroke:#C0D7F1;stroke-width:2;stroke-miterlimit:10;}
	.st1{fill:#FFFFFF;stroke:#0B82C5;stroke-width:2;stroke-miterlimit:10;}
	.st2{fill:none;stroke:#0B82C5;stroke-width:2;stroke-linecap:round;stroke-miterlimit:10;}
</style>
<path id="XMLID_22_" class="st0" d="M341.4,336.3H145.3c-4.3,0-7.8-3.5-7.8-7.8V187.5c0-4.3,3.5-7.8,7.8-7.8h196.1
	c4.3,0,7.8,3.5,7.8,7.8v140.9C349.2,332.8,345.7,336.3,341.4,336.3z"/>
<line id="XMLID_27_" class="st0" x1="157.7" y1="267.5" x2="240.6" y2="267.5"/>
<line id="XMLID_28_" class="st0" x1="157.7" y1="282.6" x2="240.6" y2="282.6"/>
<line id="XMLID_29_" class="st0" x1="157.7" y1="297.6" x2="240.6" y2="297.6"/>
<line id="XMLID_25_" class="st0" x1="211.7" y1="215.5" x2="316.9" y2="215.5"/>
<line id="XMLID_26_" class="st0" x1="211.7" y1="231.7" x2="316.9" y2="231.7"/>
<g id="XMLID_21_">
	<g id="XMLID_10_">
		<path id="XMLID_1_" class="st1" d="M371,317.7H250.3c-7.3,0-13.3-5.9-13.3-13.3V133.3c0-7.3,5.9-13.3,13.3-13.3h107.5
			c7.3,0,13.3,5.9,13.3,13.3V317.7z"/>
		<line id="XMLID_3_" class="st1" x1="237" y1="171.4" x2="371" y2="171.4"/>
		<circle id="XMLID_2_" class="st1" cx="304" cy="145.8" r="13.3"/>
		<g id="XMLID_9_">
			<circle id="XMLID_5_" class="st1" cx="263.2" cy="194.7" r="9.9"/>
			<line id="XMLID_6_" class="st1" x1="280.6" y1="194.7" x2="353.3" y2="194.7"/>
		</g>
		<g id="XMLID_4_">
			<circle id="XMLID_8_" class="st1" cx="343.4" cy="225.3" r="9.9"/>
			<line id="XMLID_7_" class="st1" x1="326" y1="225.3" x2="253.4" y2="225.3"/>
		</g>
		<g id="XMLID_14_">
			<circle id="XMLID_16_" class="st1" cx="263.2" cy="251.9" r="9.9"/>
			<line id="XMLID_15_" class="st1" x1="280.6" y1="251.9" x2="353.3" y2="251.9"/>
		</g>
		<g id="XMLID_11_">
			<circle id="XMLID_13_" class="st1" cx="343.4" cy="282.6" r="9.9"/>
			<line id="XMLID_12_" class="st1" x1="326" y1="282.6" x2="253.4" y2="282.6"/>
		</g>
	</g>
	<path id="XMLID_17_" class="st1" d="M386.7,319.2v-15.8h15.8c7.1,0,12.8,5.7,12.8,12.8v3c0,7.1-5.7,12.8-12.8,12.8h-3
		C392.4,332,386.7,326.3,386.7,319.2z"/>
	<g id="XMLID_20_">
		<line id="XMLID_19_" class="st2" x1="404.9" y1="313" x2="397.2" y2="320.7"/>
		<line id="XMLID_18_" class="st2" x1="404.9" y1="320.7" x2="397.2" y2="313"/>
	</g>
</g>
<rect id="XMLID_23_" x="157.7" y="204.6" class="st0" width="41.2" height="41.2"/>
</svg>
